<svg xmlns="http://www.w3.org/2000/svg" xmlns:xlink="http://www.w3.org/1999/xlink" viewBox="0 0 64 64"><defs><style>.cls-1{fill:url(#linear-gradient);}.cls-2{fill:url(#linear-gradient-2);}.cls-3{fill:url(#linear-gradient-3);}.cls-4{fill:url(#linear-gradient-4);}.cls-5{fill:url(#linear-gradient-5);}.cls-6{fill:url(#linear-gradient-6);}.cls-7{fill:url(#linear-gradient-7);}.cls-8{fill:url(#linear-gradient-8);}.cls-9{fill:url(#linear-gradient-9);}</style><linearGradient id="linear-gradient" x1="2" y1="51.5" x2="41" y2="51.5" gradientUnits="userSpaceOnUse"><stop offset="0" stop-color="#e2f0f3"/><stop offset="1" stop-color="#a5b7c3"/></linearGradient><linearGradient id="linear-gradient-2" x1="48" y1="14.5" x2="62" y2="14.5" xlink:href="#linear-gradient"/><linearGradient id="linear-gradient-3" x1="16" y1="32" x2="55" y2="32" xlink:href="#linear-gradient"/><linearGradient id="linear-gradient-4" x1="54" y1="42" x2="60" y2="42" gradientUnits="userSpaceOnUse"><stop offset="0" stop-color="#23c8de"/><stop offset="1" stop-color="#117bc9"/></linearGradient><linearGradient id="linear-gradient-5" x1="55" y1="26.5" x2="59" y2="26.5" gradientUnits="userSpaceOnUse"><stop offset="0" stop-color="#243384"/><stop offset="1" stop-color="#0f274b"/></linearGradient><linearGradient id="linear-gradient-6" x1="20" y1="26" x2="44" y2="26" xlink:href="#linear-gradient-5"/><linearGradient id="linear-gradient-7" x1="22" y1="26" x2="42" y2="26" xlink:href="#linear-gradient-4"/><linearGradient id="linear-gradient-8" x1="13.32" y1="39.55" x2="23.58" y2="39.55" gradientUnits="userSpaceOnUse"><stop offset="0" stop-color="#efad7b"/><stop offset="1" stop-color="#ed7a5f"/></linearGradient><linearGradient id="linear-gradient-9" x1="25" y1="24.5" x2="39" y2="24.5" xlink:href="#linear-gradient-8"/></defs><title>analysis</title><g id="analysis"><path class="cls-1" d="M41,55H9a7,7,0,0,1-7-7H34A7,7,0,0,0,41,55Z"/><path class="cls-2" d="M62,16v4H48V16a7,7,0,0,1,7-7,6.91,6.91,0,0,1,2,.29A7,7,0,0,1,62,16Z"/><path class="cls-3" d="M55,9a7,7,0,0,0-7,7V48a7,7,0,0,1-14,0H16V44.67h.15a2.82,2.82,0,0,0,2-.83l5.14-5.14a1,1,0,0,0,0-1.42l-2.58-2.58a1,1,0,0,0-1.42,0L16,38V16a7,7,0,0,1,7-7Z"/><path class="cls-4" d="M60,51l-3.08,4L54,51V30a1,1,0,0,1,1-1h4a1,1,0,0,1,1,1Z"/><path class="cls-5" d="M57,24h0a2,2,0,0,1,2,2v3a0,0,0,0,1,0,0H55a0,0,0,0,1,0,0V26A2,2,0,0,1,57,24Z"/><path class="cls-6" d="M32,14a12,12,0,0,0-9.15,19.74l-1.56,1.55a1,1,0,0,0,0,1.42,1,1,0,0,0,1.42,0l1.55-1.56A12,12,0,1,0,32,14Zm0,22A10,10,0,1,1,42,26,10,10,0,0,1,32,36Z"/><circle class="cls-7" cx="32" cy="26" r="10"/><path class="cls-8" d="M23.29,38.71l-5.14,5.14a2.82,2.82,0,0,1-2,.83H16a2.8,2.8,0,0,1-1.85-.82,2.84,2.84,0,0,1,0-4L16,38l3.29-3.29a1,1,0,0,1,1.42,0l2.58,2.58A1,1,0,0,1,23.29,38.71Z"/><path class="cls-9" d="M38,28H37V23a1,1,0,0,0-2,0v5H33V20a1,1,0,0,0-2,0v8H29V25a1,1,0,0,0-2,0v3H26a1,1,0,0,0,0,2H38a1,1,0,0,0,0-2Z"/></g></svg>