<svg xmlns="http://www.w3.org/2000/svg" xmlns:xlink="http://www.w3.org/1999/xlink" viewBox="0 0 64 64"><defs><style>.cls-1{fill:url(#linear-gradient);}.cls-2{fill:url(#linear-gradient-2);}.cls-3{fill:url(#linear-gradient-3);}.cls-4{fill:url(#linear-gradient-4);}.cls-5{fill:url(#linear-gradient-5);}.cls-6{fill:url(#linear-gradient-6);}.cls-7{fill:url(#linear-gradient-7);}.cls-8{fill:url(#linear-gradient-8);}.cls-9{fill:url(#linear-gradient-9);}.cls-10{fill:url(#linear-gradient-10);}.cls-11{fill:url(#linear-gradient-11);}.cls-12{fill:url(#linear-gradient-12);}.cls-13{fill:url(#linear-gradient-13);}.cls-14{fill:url(#linear-gradient-14);}.cls-15{fill:url(#linear-gradient-15);}.cls-16{fill:url(#linear-gradient-16);}.cls-17{fill:url(#linear-gradient-17);}.cls-18{fill:url(#linear-gradient-18);}</style><linearGradient id="linear-gradient" x1="5" y1="46.5" x2="59" y2="46.5" gradientUnits="userSpaceOnUse"><stop offset="0" stop-color="#23c8de"/><stop offset="1" stop-color="#117bc9"/></linearGradient><linearGradient id="linear-gradient-2" x1="5" y1="27" x2="59" y2="27" gradientUnits="userSpaceOnUse"><stop offset="0" stop-color="#e2f0f3"/><stop offset="1" stop-color="#a5b7c3"/></linearGradient><linearGradient id="linear-gradient-3" x1="31" y1="11.5" x2="33" y2="11.5" xlink:href="#linear-gradient"/><linearGradient id="linear-gradient-4" x1="28" y1="16" x2="36" y2="16" xlink:href="#linear-gradient"/><linearGradient id="linear-gradient-5" x1="15" y1="11.5" x2="17" y2="11.5" xlink:href="#linear-gradient"/><linearGradient id="linear-gradient-6" x1="12" y1="16" x2="20" y2="16" xlink:href="#linear-gradient"/><linearGradient id="linear-gradient-7" x1="47" y1="11.5" x2="49" y2="11.5" xlink:href="#linear-gradient"/><linearGradient id="linear-gradient-8" x1="44" y1="16" x2="52" y2="16" xlink:href="#linear-gradient"/><linearGradient id="linear-gradient-9" x1="12" y1="30" x2="18" y2="30" gradientUnits="userSpaceOnUse"><stop offset="0" stop-color="#efad7b"/><stop offset="1" stop-color="#ed7a5f"/></linearGradient><linearGradient id="linear-gradient-10" x1="18" x2="24" xlink:href="#linear-gradient-9"/><linearGradient id="linear-gradient-11" x1="27" x2="31" xlink:href="#linear-gradient-9"/><linearGradient id="linear-gradient-12" x1="27" y1="25.5" x2="31" y2="25.5" xlink:href="#linear-gradient-9"/><linearGradient id="linear-gradient-13" x1="27" y1="34.5" x2="31" y2="34.5" xlink:href="#linear-gradient-9"/><linearGradient id="linear-gradient-14" x1="14" y1="35" x2="16" y2="35" xlink:href="#linear-gradient-9"/><linearGradient id="linear-gradient-15" x1="36" y1="25" x2="52" y2="25" gradientUnits="userSpaceOnUse"><stop offset="0" stop-color="#243384"/><stop offset="1" stop-color="#0f274b"/></linearGradient><linearGradient id="linear-gradient-16" y1="30" y2="30" xlink:href="#linear-gradient-15"/><linearGradient id="linear-gradient-17" y1="35" x2="46" y2="35" xlink:href="#linear-gradient-15"/><linearGradient id="linear-gradient-18" x1="29" y1="53.5" x2="35" y2="53.5" xlink:href="#linear-gradient-15"/></defs><title>bill board</title><g id="bill_board" data-name="bill board"><path class="cls-1" d="M58,48H56V44a1,1,0,0,0-1-1H34a1,1,0,0,0-1,1v4H31V44a1,1,0,0,0-1-1H9a1,1,0,0,0-1,1v4H6a1,1,0,0,0,0,2H58a1,1,0,0,0,0-2ZM10,45h5v3H10Zm7,0h5v3H17Zm7,3V45h5v3Zm11-3h5v3H35Zm7,0h5v3H42Zm7,3V45h5v3Z"/><rect class="cls-2" x="5" y="9" width="54" height="36"/><rect class="cls-3" x="31" y="9" width="2" height="5"/><polygon class="cls-4" points="36 18 28 18 31 14 33 14 36 18"/><rect class="cls-5" x="15" y="9" width="2" height="5"/><polygon class="cls-6" points="20 18 12 18 15 14 17 14 20 18"/><rect class="cls-7" x="47" y="9" width="2" height="5"/><polygon class="cls-8" points="52 18 44 18 47 14 49 14 52 18"/><path class="cls-9" d="M15,27h3a0,0,0,0,1,0,0v6a0,0,0,0,1,0,0H15a3,3,0,0,1-3-3v0a3,3,0,0,1,3-3Z"/><polygon class="cls-10" points="18 27 24 24 24 36 18 33 18 27"/><path class="cls-11" d="M30,31H28a1,1,0,0,1,0-2h2a1,1,0,0,1,0,2Z"/><path class="cls-12" d="M28,27a1,1,0,0,1-.89-.55,1,1,0,0,1,.44-1.34l2-1a1,1,0,1,1,.9,1.78l-2,1A.93.93,0,0,1,28,27Z"/><path class="cls-13" d="M30,36a.93.93,0,0,1-.45-.11l-2-1a1,1,0,0,1,.9-1.78l2,1a1,1,0,0,1,.44,1.34A1,1,0,0,1,30,36Z"/><path class="cls-14" d="M15,38a1,1,0,0,1-1-1V33a1,1,0,0,1,2,0v4A1,1,0,0,1,15,38Z"/><path class="cls-15" d="M51,26H37a1,1,0,0,1,0-2H51a1,1,0,0,1,0,2Z"/><path class="cls-16" d="M51,31H37a1,1,0,0,1,0-2H51a1,1,0,0,1,0,2Z"/><path class="cls-17" d="M45,36H37a1,1,0,0,1,0-2h8a1,1,0,0,1,0,2Z"/><rect class="cls-18" x="29" y="45" width="6" height="17"/></g></svg>