<svg xmlns="http://www.w3.org/2000/svg" xmlns:xlink="http://www.w3.org/1999/xlink" viewBox="0 0 64 64"><defs><style>.cls-1{fill:url(#linear-gradient);}.cls-2{fill:url(#linear-gradient-2);}.cls-3{fill:url(#linear-gradient-3);}.cls-4{fill:url(#linear-gradient-4);}.cls-5{fill:url(#linear-gradient-5);}.cls-6{fill:url(#linear-gradient-6);}.cls-7{fill:url(#linear-gradient-7);}.cls-8{fill:url(#linear-gradient-8);}.cls-9{fill:url(#linear-gradient-9);}.cls-10{fill:url(#linear-gradient-10);}.cls-11{fill:url(#linear-gradient-11);}.cls-12{fill:url(#linear-gradient-12);}.cls-13{fill:url(#linear-gradient-13);}.cls-14{fill:url(#linear-gradient-14);}.cls-15{fill:url(#linear-gradient-15);}.cls-16{fill:url(#linear-gradient-16);}</style><linearGradient id="linear-gradient" x1="10" y1="30" x2="46" y2="30" gradientUnits="userSpaceOnUse"><stop offset="0" stop-color="#e2f0f3"/><stop offset="1" stop-color="#a5b7c3"/></linearGradient><linearGradient id="linear-gradient-2" x1="30" y1="62" x2="56" y2="36" gradientUnits="userSpaceOnUse"><stop offset="0" stop-color="#23c8de"/><stop offset="1" stop-color="#117bc9"/></linearGradient><linearGradient id="linear-gradient-3" x1="5" y1="26" x2="25" y2="26" xlink:href="#linear-gradient-2"/><linearGradient id="linear-gradient-4" x1="52" y1="23" x2="58" y2="23" xlink:href="#linear-gradient-2"/><linearGradient id="linear-gradient-5" x1="53" y1="7.5" x2="57" y2="7.5" gradientUnits="userSpaceOnUse"><stop offset="0" stop-color="#243384"/><stop offset="1" stop-color="#0f274b"/></linearGradient><linearGradient id="linear-gradient-6" x1="9" y1="25" x2="13" y2="25" gradientUnits="userSpaceOnUse"><stop offset="0" stop-color="#efad7b"/><stop offset="1" stop-color="#ed7a5f"/></linearGradient><linearGradient id="linear-gradient-7" x1="16" y1="26" x2="22" y2="26" xlink:href="#linear-gradient-5"/><linearGradient id="linear-gradient-8" x1="16" y1="29" x2="22" y2="29" xlink:href="#linear-gradient-5"/><linearGradient id="linear-gradient-9" x1="15" y1="12" x2="21" y2="12" xlink:href="#linear-gradient-6"/><linearGradient id="linear-gradient-10" x1="24" y1="10" x2="35" y2="10" xlink:href="#linear-gradient-5"/><linearGradient id="linear-gradient-11" x1="24" y1="14" x2="31" y2="14" xlink:href="#linear-gradient-5"/><linearGradient id="linear-gradient-12" x1="38" y1="9" y2="9" xlink:href="#linear-gradient"/><linearGradient id="linear-gradient-13" x1="35" y1="47" x2="51" y2="31" xlink:href="#linear-gradient-2"/><linearGradient id="linear-gradient-14" x1="31" y1="52.5" x2="36" y2="52.5" xlink:href="#linear-gradient-6"/><linearGradient id="linear-gradient-15" x1="39" y1="51" x2="50" y2="51" xlink:href="#linear-gradient-5"/><linearGradient id="linear-gradient-16" x1="39" y1="55" x2="46" y2="55" xlink:href="#linear-gradient-5"/></defs><title>branding</title><g id="branding"><polygon class="cls-1" points="46 13 46 39 27 39 27 55 10 55 10 33 25 33 25 19 10 19 10 5 38 5 46 13"/><polygon class="cls-2" points="59 39 59 59 27 59 27 39 43 47 59 39"/><rect class="cls-3" x="5" y="19" width="20" height="14"/><path class="cls-4" d="M58,32l-3.08,4L52,32V11a1,1,0,0,1,1-1h4a1,1,0,0,1,1,1Z"/><path class="cls-5" d="M55,5h0a2,2,0,0,1,2,2v3a0,0,0,0,1,0,0H53a0,0,0,0,1,0,0V7A2,2,0,0,1,55,5Z"/><circle class="cls-6" cx="11" cy="25" r="2"/><path class="cls-7" d="M21,27H17a1,1,0,0,1,0-2h4a1,1,0,0,1,0,2Z"/><path class="cls-8" d="M21,30H17a1,1,0,0,1,0-2h4a1,1,0,0,1,0,2Z"/><circle class="cls-9" cx="18" cy="12" r="3"/><path class="cls-10" d="M34,11H25a1,1,0,0,1,0-2h9a1,1,0,0,1,0,2Z"/><path class="cls-11" d="M30,15H25a1,1,0,0,1,0-2h5a1,1,0,0,1,0,2Z"/><polygon class="cls-12" points="46 13 38 13 38 5 46 13"/><polygon class="cls-13" points="59 39 43 47 27 39 59 39"/><circle class="cls-14" cx="33.5" cy="52.5" r="2.5"/><path class="cls-15" d="M49,52H40a1,1,0,0,1,0-2h9a1,1,0,0,1,0,2Z"/><path class="cls-16" d="M45,56H40a1,1,0,0,1,0-2h5a1,1,0,0,1,0,2Z"/></g></svg>