<svg xmlns="http://www.w3.org/2000/svg" xmlns:xlink="http://www.w3.org/1999/xlink" viewBox="0 0 64 64"><defs><style>.cls-1{fill:url(#linear-gradient);}.cls-2{fill:url(#linear-gradient-2);}.cls-3{fill:url(#linear-gradient-3);}.cls-4{fill:url(#linear-gradient-4);}.cls-5{fill:url(#linear-gradient-5);}.cls-6{fill:url(#linear-gradient-6);}.cls-7{fill:url(#linear-gradient-7);}</style><linearGradient id="linear-gradient" x1="5" y1="19.29" x2="47" y2="19.29" gradientUnits="userSpaceOnUse"><stop offset="0" stop-color="#e2f0f3"/><stop offset="1" stop-color="#a5b7c3"/></linearGradient><linearGradient id="linear-gradient-2" x1="33" y1="16" x2="41" y2="16" gradientUnits="userSpaceOnUse"><stop offset="0" stop-color="#efad7b"/><stop offset="1" stop-color="#ed7a5f"/></linearGradient><linearGradient id="linear-gradient-3" x1="22" x2="30" xlink:href="#linear-gradient-2"/><linearGradient id="linear-gradient-4" x1="11" x2="19" xlink:href="#linear-gradient-2"/><linearGradient id="linear-gradient-5" x1="29" y1="51" x2="59" y2="51" gradientUnits="userSpaceOnUse"><stop offset="0" stop-color="#23c8de"/><stop offset="1" stop-color="#117bc9"/></linearGradient><linearGradient id="linear-gradient-6" x1="36" y1="33" x2="52" y2="33" xlink:href="#linear-gradient-5"/><linearGradient id="linear-gradient-7" x1="40.88" y1="38.56" x2="47.12" y2="38.56" gradientUnits="userSpaceOnUse"><stop offset="0" stop-color="#243384"/><stop offset="1" stop-color="#0f274b"/></linearGradient></defs><title>consumer review</title><g id="consumer_review" data-name="consumer review"><path class="cls-1" d="M47,11V21a6,6,0,0,1-.5,2.4A8,8,0,0,0,37.08,27H30v5.59a1,1,0,0,1-1.71.7L22,27H11a6,6,0,0,1-6-6V11a6,6,0,0,1,6-6H41A6,6,0,0,1,47,11Z"/><polygon class="cls-2" points="37 12.2 38.31 14.59 41 15.1 39.13 17.09 39.47 19.8 37 18.64 34.53 19.8 34.87 17.09 33 15.1 35.69 14.59 37 12.2"/><polygon class="cls-3" points="26 12.2 27.31 14.59 30 15.1 28.13 17.09 28.47 19.8 26 18.64 23.53 19.8 23.87 17.09 22 15.1 24.69 14.59 26 12.2"/><polygon class="cls-4" points="15 12.2 16.31 14.59 19 15.1 17.13 17.09 17.47 19.8 15 18.64 12.53 19.8 12.87 17.09 11 15.1 13.69 14.59 15 12.2"/><path class="cls-5" d="M59,59H29l1.33-5.33a14.09,14.09,0,0,1,27.34,0Z"/><path class="cls-6" d="M52,31v4a8,8,0,0,1-16,0V31a7.85,7.85,0,0,1,1.08-4,8,8,0,0,1,9.42-3.6,8.1,8.1,0,0,1,3.16,1.94A8,8,0,0,1,52,31Z"/><path class="cls-7" d="M44,40a4,4,0,0,1-2.83-1.17,1,1,0,0,1,1.42-1.42,2,2,0,0,0,2.82,0,1,1,0,0,1,1.42,1.42A4,4,0,0,1,44,40Z"/></g></svg>