<svg xmlns="http://www.w3.org/2000/svg" xmlns:xlink="http://www.w3.org/1999/xlink" viewBox="0 0 64 64"><defs><style>.cls-1{fill:url(#linear-gradient);}.cls-2{fill:url(#linear-gradient-2);}.cls-3{fill:url(#linear-gradient-3);}.cls-4{fill:url(#linear-gradient-4);}.cls-5{fill:url(#linear-gradient-5);}.cls-6{fill:url(#linear-gradient-6);}.cls-7{fill:url(#linear-gradient-7);}.cls-8{fill:url(#linear-gradient-8);}.cls-9{fill:url(#linear-gradient-9);}.cls-10{fill:url(#linear-gradient-10);}.cls-11{fill:url(#linear-gradient-11);}.cls-12{fill:url(#linear-gradient-12);}.cls-13{fill:url(#linear-gradient-13);}.cls-14{fill:url(#linear-gradient-14);}.cls-15{fill:url(#linear-gradient-15);}</style><linearGradient id="linear-gradient" x1="2" y1="47.5" x2="44" y2="47.5" gradientUnits="userSpaceOnUse"><stop offset="0" stop-color="#243384"/><stop offset="1" stop-color="#0f274b"/></linearGradient><linearGradient id="linear-gradient-2" x1="6" y1="27" x2="52" y2="27" gradientUnits="userSpaceOnUse"><stop offset="0" stop-color="#23c8de"/><stop offset="1" stop-color="#117bc9"/></linearGradient><linearGradient id="linear-gradient-3" x1="11" y1="27" x2="47" y2="27" gradientUnits="userSpaceOnUse"><stop offset="0" stop-color="#e2f0f3"/><stop offset="1" stop-color="#a5b7c3"/></linearGradient><linearGradient id="linear-gradient-4" x1="43" y1="39" x2="63" y2="39" xlink:href="#linear-gradient"/><linearGradient id="linear-gradient-5" x1="45" y1="39" x2="61" y2="39" xlink:href="#linear-gradient-3"/><linearGradient id="linear-gradient-6" x1="51" y1="51" x2="55" y2="51" xlink:href="#linear-gradient-2"/><linearGradient id="linear-gradient-7" x1="25" y1="26" x2="31" y2="26" gradientUnits="userSpaceOnUse"><stop offset="0" stop-color="#efad7b"/><stop offset="1" stop-color="#ed7a5f"/></linearGradient><linearGradient id="linear-gradient-8" x1="34" x2="38" xlink:href="#linear-gradient-7"/><linearGradient id="linear-gradient-9" x1="34" y1="21.5" x2="38" y2="21.5" xlink:href="#linear-gradient-7"/><linearGradient id="linear-gradient-10" x1="34" y1="30.5" x2="38" y2="30.5" xlink:href="#linear-gradient-7"/><linearGradient id="linear-gradient-11" x1="21" y1="31" x2="23" y2="31" xlink:href="#linear-gradient-7"/><linearGradient id="linear-gradient-12" x1="49" y1="32" x2="57" y2="32" xlink:href="#linear-gradient-7"/><linearGradient id="linear-gradient-13" x1="48" y1="40" x2="58" y2="40" xlink:href="#linear-gradient-2"/><linearGradient id="linear-gradient-14" x1="48" y1="44" x2="58" y2="44" xlink:href="#linear-gradient-2"/><linearGradient id="linear-gradient-15" x1="19" x2="25" xlink:href="#linear-gradient-7"/></defs><title>digital marketing</title><g id="digital_marketing" data-name="digital marketing"><path class="cls-1" d="M44,44v7H7a5,5,0,0,1-5-5,2,2,0,0,1,2-2H22l1,1H35l1-1Z"/><path class="cls-2" d="M52,12V23H46a2,2,0,0,0-2,2V44H36l-1,1H23l-1-1H6V12A3,3,0,0,1,9,9H49A3,3,0,0,1,52,12Z"/><path class="cls-3" d="M47,14v9H46a2,2,0,0,0-2,2V40H11V14Z"/><path class="cls-4" d="M60,22H46a3,3,0,0,0-3,3V53a3,3,0,0,0,3,3H60a3,3,0,0,0,3-3V25A3,3,0,0,0,60,22Zm1,31a1,1,0,0,1-1,1H46a1,1,0,0,1-1-1V25a1,1,0,0,1,1-1H60a1,1,0,0,1,1,1Z"/><rect class="cls-5" x="45" y="24" width="16" height="30" rx="1" ry="1"/><path class="cls-6" d="M54,52H52a1,1,0,0,1,0-2h2a1,1,0,0,1,0,2Z"/><polygon class="cls-7" points="25 23 31 20 31 32 25 29 25 23"/><path class="cls-8" d="M37,27H35a1,1,0,0,1,0-2h2a1,1,0,0,1,0,2Z"/><path class="cls-9" d="M35,23a1,1,0,0,1-.89-.55,1,1,0,0,1,.44-1.34l2-1a1,1,0,1,1,.9,1.78l-2,1A.93.93,0,0,1,35,23Z"/><path class="cls-10" d="M37,32a.93.93,0,0,1-.45-.11l-2-1a1,1,0,1,1,.9-1.78l2,1a1,1,0,0,1,.44,1.34A1,1,0,0,1,37,32Z"/><path class="cls-11" d="M22,34a1,1,0,0,1-1-1V29a1,1,0,0,1,2,0v4A1,1,0,0,1,22,34Z"/><rect class="cls-12" x="49" y="28" width="8" height="8" rx="4" ry="4"/><path class="cls-13" d="M57,41H49a1,1,0,0,1,0-2h8a1,1,0,0,1,0,2Z"/><path class="cls-14" d="M57,45H49a1,1,0,0,1,0-2h8a1,1,0,0,1,0,2Z"/><path class="cls-15" d="M22,23h3a0,0,0,0,1,0,0v6a0,0,0,0,1,0,0H22a3,3,0,0,1-3-3v0a3,3,0,0,1,3-3Z"/></g></svg>