<svg xmlns="http://www.w3.org/2000/svg" xmlns:xlink="http://www.w3.org/1999/xlink" viewBox="0 0 64 64"><defs><style>.cls-1{fill:url(#linear-gradient);}.cls-2{fill:url(#linear-gradient-2);}.cls-3{fill:url(#linear-gradient-3);}.cls-4{fill:url(#linear-gradient-4);}.cls-5{fill:url(#linear-gradient-5);}.cls-6{fill:url(#linear-gradient-6);}.cls-7{fill:url(#linear-gradient-7);}</style><linearGradient id="linear-gradient" x1="28" y1="47" x2="55" y2="47" gradientUnits="userSpaceOnUse"><stop offset="0" stop-color="#e2f0f3"/><stop offset="1" stop-color="#a5b7c3"/></linearGradient><linearGradient id="linear-gradient-2" x1="20" y1="52" x2="28" y2="52" gradientUnits="userSpaceOnUse"><stop offset="0" stop-color="#23c8de"/><stop offset="1" stop-color="#117bc9"/></linearGradient><linearGradient id="linear-gradient-3" x1="9" y1="52" x2="20" y2="52" gradientUnits="userSpaceOnUse"><stop offset="0" stop-color="#243384"/><stop offset="1" stop-color="#0f274b"/></linearGradient><linearGradient id="linear-gradient-4" x1="12" y1="57" x2="16" y2="57" gradientUnits="userSpaceOnUse"><stop offset="0" stop-color="#efad7b"/><stop offset="1" stop-color="#ed7a5f"/></linearGradient><linearGradient id="linear-gradient-5" x1="23" y1="57.5" x2="25" y2="57.5" xlink:href="#linear-gradient"/><linearGradient id="linear-gradient-6" x1="17" y1="17.29" x2="47" y2="17.29" xlink:href="#linear-gradient"/><linearGradient id="linear-gradient-7" x1="25" y1="14.24" x2="39.14" y2="14.24" xlink:href="#linear-gradient-4"/></defs><title>feedback</title><g id="feedback"><path class="cls-1" d="M55,44.76A2.5,2.5,0,0,0,52.5,42H45V36a4,4,0,0,0-4.13-4A2,2,0,0,0,39,34v.38A11.55,11.55,0,0,1,32,45H28V59h1.88a5.12,5.12,0,0,1,3.62,1.5h0A5.12,5.12,0,0,0,37.12,62H49.36A2.6,2.6,0,0,0,52,59.76,2.5,2.5,0,0,0,49.5,57h.86A2.6,2.6,0,0,0,53,54.76,2.5,2.5,0,0,0,50.5,52h.86A2.6,2.6,0,0,0,54,49.76,2.5,2.5,0,0,0,51.5,47h.86A2.6,2.6,0,0,0,55,44.76Z"/><rect class="cls-2" x="20" y="43" width="8" height="18"/><rect class="cls-3" x="9" y="42" width="11" height="20"/><path class="cls-4" d="M14,59a2,2,0,1,1,2-2A2,2,0,0,1,14,59Zm0-2Z"/><path class="cls-5" d="M25,55v6H23V55a1,1,0,0,1,2,0Z"/><path class="cls-6" d="M17,9V21a7,7,0,0,0,7,7h5v3.59a1,1,0,0,0,1.71.7L35,28h5a7,7,0,0,0,7-7V9a7,7,0,0,0-7-7H24A7,7,0,0,0,17,9Z"/><polygon class="cls-7" points="32.07 7.51 34.41 11.73 39.14 12.65 35.86 16.18 36.44 20.97 32.07 18.93 27.7 20.97 28.29 16.18 25 12.65 29.73 11.73 32.07 7.51"/></g></svg>