<svg xmlns="http://www.w3.org/2000/svg" xmlns:xlink="http://www.w3.org/1999/xlink" viewBox="0 0 64 64"><defs><style>.cls-1{fill:url(#linear-gradient);}.cls-2{fill:url(#linear-gradient-2);}.cls-3{fill:url(#linear-gradient-3);}.cls-4{fill:url(#linear-gradient-4);}.cls-5{fill:url(#linear-gradient-5);}.cls-6{fill:url(#linear-gradient-6);}.cls-7{fill:url(#linear-gradient-7);}.cls-8{fill:url(#linear-gradient-8);}.cls-9{fill:url(#linear-gradient-9);}.cls-10{fill:url(#linear-gradient-10);}.cls-11{fill:url(#linear-gradient-11);}.cls-12{fill:url(#linear-gradient-12);}.cls-13{fill:url(#linear-gradient-13);}.cls-14{fill:url(#linear-gradient-14);}.cls-15{fill:url(#linear-gradient-15);}</style><linearGradient id="linear-gradient" x1="25" y1="56.1" x2="39" y2="56.1" gradientUnits="userSpaceOnUse"><stop offset="0" stop-color="#e2f0f3"/><stop offset="1" stop-color="#a5b7c3"/></linearGradient><linearGradient id="linear-gradient-2" x1="25" y1="51.5" x2="39" y2="51.5" gradientUnits="userSpaceOnUse"><stop offset="0" stop-color="#23c8de"/><stop offset="1" stop-color="#117bc9"/></linearGradient><linearGradient id="linear-gradient-3" x1="29.21" y1="60" x2="34.87" y2="60" gradientUnits="userSpaceOnUse"><stop offset="0" stop-color="#efad7b"/><stop offset="1" stop-color="#ed7a5f"/></linearGradient><linearGradient id="linear-gradient-4" x1="15" y1="20" x2="49" y2="20" xlink:href="#linear-gradient-3"/><linearGradient id="linear-gradient-5" x1="4" y1="20" x2="11" y2="20" xlink:href="#linear-gradient"/><linearGradient id="linear-gradient-6" x1="53" y1="20" x2="60" y2="20" xlink:href="#linear-gradient"/><linearGradient id="linear-gradient-7" x1="7.62" y1="32.25" x2="13.95" y2="32.25" xlink:href="#linear-gradient"/><linearGradient id="linear-gradient-8" x1="50.05" y1="7.75" x2="56.38" y2="7.75" xlink:href="#linear-gradient"/><linearGradient id="linear-gradient-9" x1="7.62" y1="7.75" x2="13.95" y2="7.75" xlink:href="#linear-gradient"/><linearGradient id="linear-gradient-10" x1="50.05" y1="32.25" x2="56.38" y2="32.25" xlink:href="#linear-gradient"/><linearGradient id="linear-gradient-11" x1="23" y1="28.5" x2="41" y2="28.5" xlink:href="#linear-gradient-2"/><linearGradient id="linear-gradient-12" x1="43.92" y1="18.28" x2="46" y2="18.28" xlink:href="#linear-gradient"/><linearGradient id="linear-gradient-13" x1="31" y1="9.5" x2="44.53" y2="9.5" xlink:href="#linear-gradient"/><linearGradient id="linear-gradient-14" x1="26.48" y1="51.02" x2="37.52" y2="39.98" gradientUnits="userSpaceOnUse"><stop offset="0" stop-color="#243384"/><stop offset="1" stop-color="#0f274b"/></linearGradient><linearGradient id="linear-gradient-15" x1="26.48" y1="46.02" x2="37.52" y2="34.98" xlink:href="#linear-gradient-14"/></defs><title>idea</title><g id="idea"><path class="cls-1" d="M39,55l-4.13,4.21a4,4,0,0,0-5.66-.08L25,55l3.5-2L32,55l3.51-2Z"/><polygon class="cls-2" points="39 48 39 55 35.5 53 31.99 55 28.5 53 25 55 25 48 39 48"/><path class="cls-3" d="M34.87,59.21,32.13,62l-2.92-2.87a4,4,0,0,1,5.66.08Z"/><path class="cls-4" d="M49,19a17,17,0,1,0-26.55,14A5.94,5.94,0,0,1,25,38H39a5.94,5.94,0,0,1,2.53-4.94A16.94,16.94,0,0,0,49,19Z"/><path class="cls-5" d="M10,21H5a1,1,0,0,1,0-2h5a1,1,0,0,1,0,2Z"/><path class="cls-6" d="M59,21H54a1,1,0,0,1,0-2h5a1,1,0,0,1,0,2Z"/><path class="cls-7" d="M8.62,34.5a1,1,0,0,1-.5-1.87l4.33-2.5a1,1,0,0,1,1,1.74l-4.33,2.5A1,1,0,0,1,8.62,34.5Z"/><path class="cls-8" d="M51.05,10a1,1,0,0,1-.5-1.87l4.33-2.5a1,1,0,0,1,1,1.74l-4.33,2.5A1,1,0,0,1,51.05,10Z"/><path class="cls-9" d="M13,10a1,1,0,0,1-.5-.13L8.12,7.37a1,1,0,0,1,1-1.74l4.33,2.5A1,1,0,0,1,13,10Z"/><path class="cls-10" d="M55.38,34.5a1,1,0,0,1-.5-.13l-4.33-2.5a1,1,0,0,1,1-1.74l4.33,2.5a1,1,0,0,1-.5,1.87Z"/><path class="cls-11" d="M41,23.06s0,0,0-.06a1,1,0,0,0-.29-.71l-4-4a1,1,0,0,0-1.41,0L32,21.59l-3.29-3.3a1,1,0,0,0-1.41,0l-4,4a1.88,1.88,0,0,0-.12.18l-.1.15a1.08,1.08,0,0,0,0,.19A.58.58,0,0,0,23,23a.71.71,0,0,0,0,.2,1.13,1.13,0,0,0,0,.18l.11.15a.87.87,0,0,0,.11.18A19.36,19.36,0,0,1,29,37.49V38a1,1,0,0,0,2,0v-.51A21.32,21.32,0,0,0,25.38,23L28,20.42l3.29,3.29a1,1,0,0,0,1.41,0l3.3-3.3L38.62,23A21.32,21.32,0,0,0,33,37.49V38a1,1,0,0,0,2,0v-.51a19.36,19.36,0,0,1,5.71-13.78h0a1.26,1.26,0,0,0,.21-.32h0A1.2,1.2,0,0,0,41,23.06Z"/><path class="cls-12" d="M45,20a1,1,0,0,1-1-1,12.23,12.23,0,0,0-.07-1.33,1,1,0,1,1,2-.22A14,14,0,0,1,46,19,1,1,0,0,1,45,20Z"/><path class="cls-13" d="M43.53,14a1,1,0,0,1-.89-.54A12,12,0,0,0,32,7a1,1,0,0,1,0-2,14,14,0,0,1,12.42,7.54A1,1,0,0,1,44,13.89,1.07,1.07,0,0,1,43.53,14Z"/><rect class="cls-14" x="22" y="43" width="20" height="5" rx="2.5" ry="2.5"/><rect class="cls-15" x="22" y="38" width="20" height="5" rx="2.5" ry="2.5"/></g></svg>