<svg xmlns="http://www.w3.org/2000/svg" xmlns:xlink="http://www.w3.org/1999/xlink" viewBox="0 0 64 64"><defs><style>.cls-1{fill:url(#linear-gradient);}.cls-2{fill:url(#linear-gradient-2);}.cls-3{fill:url(#linear-gradient-3);}.cls-4{fill:url(#linear-gradient-4);}.cls-5{fill:url(#linear-gradient-5);}.cls-6{fill:url(#linear-gradient-6);}.cls-7{fill:url(#linear-gradient-7);}.cls-8{fill:url(#linear-gradient-8);}.cls-9{fill:url(#linear-gradient-9);}.cls-10{fill:url(#linear-gradient-10);}.cls-11{fill:url(#linear-gradient-11);}.cls-12{fill:url(#linear-gradient-12);}.cls-13{fill:url(#linear-gradient-13);}.cls-14{fill:url(#linear-gradient-14);}.cls-15{fill:url(#linear-gradient-15);}</style><linearGradient id="linear-gradient" x1="29" y1="22" x2="31" y2="22" gradientUnits="userSpaceOnUse"><stop offset="0" stop-color="#e2f0f3"/><stop offset="1" stop-color="#a5b7c3"/></linearGradient><linearGradient id="linear-gradient-2" x1="38" y1="13.5" x2="40" y2="13.5" xlink:href="#linear-gradient"/><linearGradient id="linear-gradient-3" x1="47" y1="21.5" x2="49" y2="21.5" xlink:href="#linear-gradient"/><linearGradient id="linear-gradient-4" x1="38" y1="5" x2="40" y2="5" xlink:href="#linear-gradient"/><linearGradient id="linear-gradient-5" x1="47" y1="12" x2="49" y2="12" xlink:href="#linear-gradient"/><linearGradient id="linear-gradient-6" x1="33" y1="10" x2="35" y2="10" xlink:href="#linear-gradient"/><linearGradient id="linear-gradient-7" x1="43" y1="12.5" x2="45" y2="12.5" xlink:href="#linear-gradient"/><linearGradient id="linear-gradient-8" x1="40" y1="47" x2="49" y2="47" xlink:href="#linear-gradient"/><linearGradient id="linear-gradient-9" x1="20" y1="49" x2="28" y2="49" gradientUnits="userSpaceOnUse"><stop offset="0" stop-color="#23c8de"/><stop offset="1" stop-color="#117bc9"/></linearGradient><linearGradient id="linear-gradient-10" x1="5" y1="49" x2="20" y2="49" gradientUnits="userSpaceOnUse"><stop offset="0" stop-color="#243384"/><stop offset="1" stop-color="#0f274b"/></linearGradient><linearGradient id="linear-gradient-11" x1="12" y1="54" x2="16" y2="54" gradientUnits="userSpaceOnUse"><stop offset="0" stop-color="#efad7b"/><stop offset="1" stop-color="#ed7a5f"/></linearGradient><linearGradient id="linear-gradient-12" x1="23" y1="54.5" x2="25" y2="54.5" xlink:href="#linear-gradient"/><linearGradient id="linear-gradient-13" x1="28" y1="49.4" x2="59.24" y2="49.4" xlink:href="#linear-gradient"/><linearGradient id="linear-gradient-14" x1="29" y1="28" x2="49" y2="28" xlink:href="#linear-gradient-11"/><linearGradient id="linear-gradient-15" x1="35" y1="28" x2="43" y2="28" xlink:href="#linear-gradient-10"/></defs><title>income</title><g id="income"><path class="cls-1" d="M30,28a1,1,0,0,1-1-1V17a1,1,0,0,1,2,0V27A1,1,0,0,1,30,28Z"/><path class="cls-2" d="M39,19a1,1,0,0,1-1-1V9a1,1,0,0,1,2,0v9A1,1,0,0,1,39,19Z"/><path class="cls-3" d="M48,28a1,1,0,0,1-1-1V16a1,1,0,0,1,2,0V27A1,1,0,0,1,48,28Z"/><circle class="cls-4" cx="39" cy="5" r="1"/><circle class="cls-5" cx="48" cy="12" r="1"/><path class="cls-6" d="M34,14a1,1,0,0,1-1-1V7a1,1,0,0,1,2,0v6A1,1,0,0,1,34,14Z"/><path class="cls-7" d="M44,16a1,1,0,0,1-1-1V10a1,1,0,0,1,2,0v5A1,1,0,0,1,44,16Z"/><path class="cls-8" d="M46,44a3,3,0,0,1,3,3h0a3,3,0,0,1-3,3H40"/><rect class="cls-9" x="20" y="40" width="8" height="18"/><rect class="cls-10" x="5" y="39" width="15" height="20"/><path class="cls-11" d="M14,56a2,2,0,1,1,2-2A2,2,0,0,1,14,56Zm0-2Z"/><path class="cls-12" d="M25,52v6H23V52a1,1,0,0,1,2,0Z"/><path class="cls-13" d="M59.24,44.26A2.49,2.49,0,0,1,58.51,46L49.3,55.24A6,6,0,0,1,45.05,57H35.41A3.41,3.41,0,0,1,33,56h0a3.41,3.41,0,0,0-2.41-1H28V42h9.59A3.41,3.41,0,0,1,40,43h0a3.41,3.41,0,0,0,2.41,1h3.43A3.12,3.12,0,0,1,49,46.84,3,3,0,0,1,46,50h1.46l7.4-7.4a2.61,2.61,0,0,1,3.52-.23A2.48,2.48,0,0,1,59.24,44.26Z"/><circle class="cls-14" cx="39" cy="28" r="10"/><path class="cls-15" d="M40,27H38a1,1,0,0,1,0-2h4a1,1,0,0,0,0-2H40V22a1,1,0,0,0-2,0v1a3,3,0,0,0,0,6h2a1,1,0,0,1,0,2H36a1,1,0,0,0,0,2h2v1a1,1,0,0,0,2,0V33a3,3,0,0,0,0-6Z"/></g></svg>