<svg xmlns="http://www.w3.org/2000/svg" xmlns:xlink="http://www.w3.org/1999/xlink" viewBox="0 0 64 64"><defs><style>.cls-1{fill:url(#linear-gradient);}.cls-2{fill:url(#linear-gradient-2);}.cls-3{fill:url(#linear-gradient-3);}.cls-4{fill:url(#linear-gradient-4);}.cls-5{fill:url(#linear-gradient-5);}.cls-6{fill:url(#linear-gradient-6);}.cls-7{fill:url(#linear-gradient-7);}.cls-8{fill:url(#linear-gradient-8);}.cls-9{fill:url(#linear-gradient-9);}.cls-10{fill:url(#linear-gradient-10);}.cls-11{fill:url(#linear-gradient-11);}.cls-12{fill:url(#linear-gradient-12);}.cls-13{fill:url(#linear-gradient-13);}.cls-14{fill:url(#linear-gradient-14);}.cls-15{fill:url(#linear-gradient-15);}</style><linearGradient id="linear-gradient" x1="28" y1="36.5" x2="30" y2="36.5" gradientUnits="userSpaceOnUse"><stop offset="0" stop-color="#efad7b"/><stop offset="1" stop-color="#ed7a5f"/></linearGradient><linearGradient id="linear-gradient-2" x1="31" y1="38" x2="33" y2="38" xlink:href="#linear-gradient"/><linearGradient id="linear-gradient-3" x1="34" x2="36" xlink:href="#linear-gradient"/><linearGradient id="linear-gradient-4" x1="13" y1="53" x2="41" y2="53" gradientUnits="userSpaceOnUse"><stop offset="0" stop-color="#23c8de"/><stop offset="1" stop-color="#117bc9"/></linearGradient><linearGradient id="linear-gradient-5" x1="9" y1="48" x2="41" y2="48" gradientUnits="userSpaceOnUse"><stop offset="0" stop-color="#e2f0f3"/><stop offset="1" stop-color="#a5b7c3"/></linearGradient><linearGradient id="linear-gradient-6" x1="41" x2="51" xlink:href="#linear-gradient-4"/><linearGradient id="linear-gradient-7" x1="41" x2="55" xlink:href="#linear-gradient-5"/><linearGradient id="linear-gradient-8" x1="16" y1="56" x2="22" y2="56" gradientUnits="userSpaceOnUse"><stop offset="0" stop-color="#243384"/><stop offset="1" stop-color="#0f274b"/></linearGradient><linearGradient id="linear-gradient-9" y1="59" y2="59" xlink:href="#linear-gradient-8"/><linearGradient id="linear-gradient-10" x1="26" y1="33" x2="38" y2="33" xlink:href="#linear-gradient-8"/><linearGradient id="linear-gradient-11" x1="23" y1="16.5" y2="16.5" xlink:href="#linear-gradient-5"/><linearGradient id="linear-gradient-12" x1="38" y1="28.1" x2="48" y2="28.1" xlink:href="#linear-gradient-8"/><linearGradient id="linear-gradient-13" y1="28.1" x2="26" y2="28.1" xlink:href="#linear-gradient-8"/><linearGradient id="linear-gradient-14" x1="28" y1="21" x2="36" y2="21" xlink:href="#linear-gradient-4"/><linearGradient id="linear-gradient-15" x1="27.79" y1="5" x2="36.21" y2="5" xlink:href="#linear-gradient"/></defs><title>launching</title><g id="launching"><path class="cls-1" d="M29,39a1,1,0,0,1-1-1V35a1,1,0,0,1,2,0v3A1,1,0,0,1,29,39Z"/><path class="cls-2" d="M32,42a1,1,0,0,1-1-1V35a1,1,0,0,1,2,0v6A1,1,0,0,1,32,42Z"/><path class="cls-3" d="M35,39a1,1,0,0,1-1-1V35a1,1,0,0,1,2,0v3A1,1,0,0,1,35,39Z"/><polygon class="cls-4" points="41 44 41 62 13 62 13 52 37 52 41 44"/><polygon class="cls-5" points="41 44 37 52 9 52 13 44 41 44"/><polygon class="cls-6" points="51 52 51 62 41 62 41 44 45 52 51 52"/><polygon class="cls-7" points="55 52 45 52 41 44 51 44 55 52"/><path class="cls-8" d="M21,57H17a1,1,0,0,1,0-2h4a1,1,0,0,1,0,2Z"/><path class="cls-9" d="M21,60H17a1,1,0,0,1,0-2h4a1,1,0,0,1,0,2Z"/><polygon class="cls-10" points="38 31 37 35 27 35 26 31 38 31"/><path class="cls-11" d="M41,20.4V28a3,3,0,0,1-3,3H26a3,3,0,0,1-3-3V20.4A23.22,23.22,0,0,1,27.79,6.27,22.68,22.68,0,0,1,32,2a22.68,22.68,0,0,1,4.21,4.27,22.13,22.13,0,0,1,2.42,3.89A23.29,23.29,0,0,1,41,20.4Z"/><path class="cls-12" d="M48,34,38,31a3,3,0,0,0,3-3V22.2A13.45,13.45,0,0,1,48,34Z"/><path class="cls-13" d="M26,31,16,34a13.45,13.45,0,0,1,7-11.8V28A3,3,0,0,0,26,31Z"/><circle class="cls-14" cx="32" cy="21" r="4"/><path class="cls-15" d="M36.21,6.27a6,6,0,0,1-8.42,0A22.68,22.68,0,0,1,32,2,22.68,22.68,0,0,1,36.21,6.27Z"/></g></svg>