<svg xmlns="http://www.w3.org/2000/svg" xmlns:xlink="http://www.w3.org/1999/xlink" viewBox="0 0 64 64"><defs><style>.cls-1{fill:url(#linear-gradient);}.cls-2{fill:url(#linear-gradient-2);}.cls-3{fill:url(#linear-gradient-3);}.cls-4{fill:url(#linear-gradient-4);}.cls-5{fill:url(#linear-gradient-5);}.cls-6{fill:url(#linear-gradient-6);}.cls-7{fill:url(#linear-gradient-7);}.cls-8{fill:url(#linear-gradient-8);}.cls-9{fill:url(#linear-gradient-9);}.cls-10{fill:url(#linear-gradient-10);}.cls-11{fill:url(#linear-gradient-11);}.cls-12{fill:url(#linear-gradient-12);}.cls-13{fill:url(#linear-gradient-13);}</style><linearGradient id="linear-gradient" x1="42.61" y1="51.47" x2="66.36" y2="37.75" gradientUnits="userSpaceOnUse"><stop offset="0" stop-color="#23c8de"/><stop offset="1" stop-color="#117bc9"/></linearGradient><linearGradient id="linear-gradient-2" x1="5" y1="25" x2="12" y2="25" gradientUnits="userSpaceOnUse"><stop offset="0" stop-color="#243384"/><stop offset="1" stop-color="#0f274b"/></linearGradient><linearGradient id="linear-gradient-3" x1="52" x2="59" xlink:href="#linear-gradient-2"/><linearGradient id="linear-gradient-4" x1="12" y1="25" x2="52" y2="25" gradientUnits="userSpaceOnUse"><stop offset="0" stop-color="#e2f0f3"/><stop offset="1" stop-color="#a5b7c3"/></linearGradient><linearGradient id="linear-gradient-5" x1="-2.36" y1="46.25" x2="21.39" y2="32.53" xlink:href="#linear-gradient"/><linearGradient id="linear-gradient-6" x1="10.8" y1="69.05" x2="51.3" y2="45.67" xlink:href="#linear-gradient"/><linearGradient id="linear-gradient-7" x1="44" y1="8" y2="8" xlink:href="#linear-gradient-4"/><linearGradient id="linear-gradient-8" x1="29" y1="23" x2="35" y2="23" gradientUnits="userSpaceOnUse"><stop offset="0" stop-color="#efad7b"/><stop offset="1" stop-color="#ed7a5f"/></linearGradient><linearGradient id="linear-gradient-9" x1="38" x2="42" xlink:href="#linear-gradient-8"/><linearGradient id="linear-gradient-10" x1="38" y1="18.5" x2="42" y2="18.5" xlink:href="#linear-gradient-8"/><linearGradient id="linear-gradient-11" x1="38" y1="27.5" x2="42" y2="27.5" xlink:href="#linear-gradient-8"/><linearGradient id="linear-gradient-12" x1="25" y1="28" x2="27" y2="28" xlink:href="#linear-gradient-8"/><linearGradient id="linear-gradient-13" x1="23" x2="29" xlink:href="#linear-gradient-8"/></defs><title>mailing</title><g id="mailing"><polygon class="cls-1" points="59 25 59 59 46.14 49 37.14 42 52 30.44 59 25"/><polygon class="cls-2" points="12 19.56 12 30.44 5 25 12 19.56"/><polyline class="cls-3" points="59 25 52 30.44 52 19.56 59 25"/><polygon class="cls-4" points="52 12 52 30.44 37.14 42 32 46 26.86 42 12 30.44 12 4 44 4 52 12"/><polygon class="cls-5" points="26.86 42 17.86 49 5 59 5 25 12 30.44 26.86 42"/><polygon class="cls-6" points="59 59 5 59 17.86 49 26.86 42 32 46 37.14 42 46.14 49 59 59"/><polygon class="cls-7" points="52 12 44 12 44 4 52 12"/><polygon class="cls-8" points="29 20 35 17 35 29 29 26 29 20"/><path class="cls-9" d="M41,24H39a1,1,0,0,1,0-2h2a1,1,0,0,1,0,2Z"/><path class="cls-10" d="M39,20a1,1,0,0,1-.89-.55,1,1,0,0,1,.44-1.34l2-1a1,1,0,1,1,.9,1.78l-2,1A.93.93,0,0,1,39,20Z"/><path class="cls-11" d="M41,29a.93.93,0,0,1-.45-.11l-2-1a1,1,0,1,1,.9-1.78l2,1a1,1,0,0,1,.44,1.34A1,1,0,0,1,41,29Z"/><path class="cls-12" d="M26,31a1,1,0,0,1-1-1V26a1,1,0,0,1,2,0v4A1,1,0,0,1,26,31Z"/><path class="cls-13" d="M26,20h3a0,0,0,0,1,0,0v6a0,0,0,0,1,0,0H26a3,3,0,0,1-3-3v0A3,3,0,0,1,26,20Z"/></g></svg>