<svg xmlns="http://www.w3.org/2000/svg" xmlns:xlink="http://www.w3.org/1999/xlink" viewBox="0 0 64 64"><defs><style>.cls-1{fill:url(#linear-gradient);}.cls-2{fill:url(#linear-gradient-2);}.cls-3{fill:url(#linear-gradient-3);}.cls-4{fill:url(#linear-gradient-4);}.cls-5{fill:url(#linear-gradient-5);}.cls-6{fill:url(#linear-gradient-6);}.cls-7{fill:url(#linear-gradient-7);}.cls-8{fill:url(#linear-gradient-8);}.cls-9{fill:url(#linear-gradient-9);}.cls-10{fill:url(#linear-gradient-10);}.cls-11{fill:url(#linear-gradient-11);}.cls-12{fill:url(#linear-gradient-12);}</style><linearGradient id="linear-gradient" x1="31" y1="38" x2="33" y2="38" gradientUnits="userSpaceOnUse"><stop offset="0" stop-color="#efad7b"/><stop offset="1" stop-color="#ed7a5f"/></linearGradient><linearGradient id="linear-gradient-2" x1="37" y1="27.5" x2="44" y2="27.5" xlink:href="#linear-gradient"/><linearGradient id="linear-gradient-3" x1="20" y1="27.5" x2="27" y2="27.5" xlink:href="#linear-gradient"/><linearGradient id="linear-gradient-4" x1="3" y1="32" x2="61" y2="32" gradientUnits="userSpaceOnUse"><stop offset="0" stop-color="#243384"/><stop offset="1" stop-color="#0f274b"/></linearGradient><linearGradient id="linear-gradient-5" x1="11" y1="32" x2="53" y2="32" gradientUnits="userSpaceOnUse"><stop offset="0" stop-color="#23c8de"/><stop offset="1" stop-color="#117bc9"/></linearGradient><linearGradient id="linear-gradient-6" y1="5" y2="5" xlink:href="#linear-gradient"/><linearGradient id="linear-gradient-7" y1="59" y2="59" xlink:href="#linear-gradient"/><linearGradient id="linear-gradient-8" x1="1" y1="32" x2="9" y2="32" xlink:href="#linear-gradient"/><linearGradient id="linear-gradient-9" x1="55" y1="32" x2="63" y2="32" xlink:href="#linear-gradient"/><linearGradient id="linear-gradient-10" x1="25" y1="28" x2="39" y2="28" xlink:href="#linear-gradient"/><linearGradient id="linear-gradient-11" x1="27" y1="43" x2="37" y2="43" xlink:href="#linear-gradient-5"/><linearGradient id="linear-gradient-12" x1="25" y1="46" x2="39" y2="46" xlink:href="#linear-gradient-4"/></defs><title>mission</title><g id="mission"><path class="cls-1" d="M32,41a1,1,0,0,1-1-1V36a1,1,0,0,1,2,0v4A1,1,0,0,1,32,41Z"/><path class="cls-2" d="M38,33a1,1,0,0,1-1-1V25.5a3.5,3.5,0,0,1,7,0V27A6,6,0,0,1,38,33Zm2.5-9A1.5,1.5,0,0,0,39,25.5v5.37A4,4,0,0,0,42,27V25.5A1.5,1.5,0,0,0,40.5,24Z"/><path class="cls-3" d="M26,33a6,6,0,0,1-6-6V25.5a3.5,3.5,0,0,1,7,0V32A1,1,0,0,1,26,33Zm-2.5-9A1.5,1.5,0,0,0,22,25.5V27a4,4,0,0,0,3,3.87V25.5A1.5,1.5,0,0,0,23.5,24Z"/><path class="cls-4" d="M32,61A29,29,0,1,1,61,32,29,29,0,0,1,32,61ZM32,7A25,25,0,1,0,57,32,25,25,0,0,0,32,7Z"/><path class="cls-5" d="M32,53A21,21,0,1,1,53,32,21,21,0,0,1,32,53Zm0-40A19,19,0,1,0,51,32,19,19,0,0,0,32,13Z"/><path class="cls-6" d="M32,9a1,1,0,0,1-1-1V2a1,1,0,0,1,2,0V8A1,1,0,0,1,32,9Z"/><path class="cls-7" d="M32,63a1,1,0,0,1-1-1V56a1,1,0,0,1,2,0v6A1,1,0,0,1,32,63Z"/><path class="cls-8" d="M8,33H2a1,1,0,0,1,0-2H8a1,1,0,0,1,0,2Z"/><path class="cls-9" d="M62,33H56a1,1,0,0,1,0-2h6a1,1,0,0,1,0,2Z"/><path class="cls-10" d="M25,20H39a0,0,0,0,1,0,0v9a7,7,0,0,1-7,7h0a7,7,0,0,1-7-7V20A0,0,0,0,1,25,20Z"/><rect class="cls-11" x="27" y="40" width="10" height="6"/><path class="cls-12" d="M38,47H26a1,1,0,0,1,0-2H38a1,1,0,0,1,0,2Z"/></g></svg>