<svg xmlns="http://www.w3.org/2000/svg" xmlns:xlink="http://www.w3.org/1999/xlink" viewBox="0 0 64 64"><defs><style>.cls-1{fill:url(#linear-gradient);}.cls-2{fill:url(#linear-gradient-2);}.cls-3{fill:url(#linear-gradient-3);}.cls-4{fill:url(#linear-gradient-4);}.cls-5{fill:url(#linear-gradient-5);}.cls-6{fill:url(#linear-gradient-6);}.cls-7{fill:url(#linear-gradient-7);}.cls-8{fill:url(#linear-gradient-8);}.cls-9{fill:url(#linear-gradient-9);}.cls-10{fill:url(#linear-gradient-10);}.cls-11{fill:url(#linear-gradient-11);}.cls-12{fill:url(#linear-gradient-12);}.cls-13{fill:url(#linear-gradient-13);}.cls-14{fill:url(#linear-gradient-14);}.cls-15{fill:url(#linear-gradient-15);}</style><linearGradient id="linear-gradient" x1="47" y1="31.5" x2="56" y2="31.5" gradientUnits="userSpaceOnUse"><stop offset="0" stop-color="#e2f0f3"/><stop offset="0.14" stop-color="#d5e3e8"/><stop offset="0.47" stop-color="#bacbd4"/><stop offset="0.77" stop-color="#abbcc7"/><stop offset="1" stop-color="#a5b7c3"/></linearGradient><linearGradient id="linear-gradient-2" x1="47" y1="35" x2="59" y2="35" gradientUnits="userSpaceOnUse"><stop offset="0" stop-color="#e2f0f3"/><stop offset="0.27" stop-color="#deedf0"/><stop offset="0.52" stop-color="#d3e2e7"/><stop offset="0.76" stop-color="#c0d1d9"/><stop offset="0.99" stop-color="#a6b8c4"/><stop offset="1" stop-color="#a5b7c3"/></linearGradient><linearGradient id="linear-gradient-3" x1="5" y1="32" x2="53" y2="32" gradientUnits="userSpaceOnUse"><stop offset="0" stop-color="#e2f0f3"/><stop offset="1" stop-color="#a5b7c3"/></linearGradient><linearGradient id="linear-gradient-4" x1="11" y1="21.5" x2="41" y2="21.5" gradientUnits="userSpaceOnUse"><stop offset="0" stop-color="#23c8de"/><stop offset="1" stop-color="#117bc9"/></linearGradient><linearGradient id="linear-gradient-5" x1="28" y1="45" y2="45" xlink:href="#linear-gradient-4"/><linearGradient id="linear-gradient-6" x1="10" y1="38" x2="24" y2="38" gradientUnits="userSpaceOnUse"><stop offset="0" stop-color="#243384"/><stop offset="1" stop-color="#0f274b"/></linearGradient><linearGradient id="linear-gradient-7" y1="43" y2="43" xlink:href="#linear-gradient-6"/><linearGradient id="linear-gradient-8" y1="48" y2="48" xlink:href="#linear-gradient-6"/><linearGradient id="linear-gradient-9" y1="53" y2="53" xlink:href="#linear-gradient-6"/><linearGradient id="linear-gradient-10" x1="32" y1="21" x2="36" y2="21" gradientUnits="userSpaceOnUse"><stop offset="0" stop-color="#efad7b"/><stop offset="1" stop-color="#ed7a5f"/></linearGradient><linearGradient id="linear-gradient-11" y1="16.5" y2="16.5" xlink:href="#linear-gradient-10"/><linearGradient id="linear-gradient-12" y1="25.5" y2="25.5" xlink:href="#linear-gradient-10"/><linearGradient id="linear-gradient-13" x1="19" y1="26" x2="21" y2="26" xlink:href="#linear-gradient-10"/><linearGradient id="linear-gradient-14" x1="17" x2="23" xlink:href="#linear-gradient-10"/><linearGradient id="linear-gradient-15" x1="23" x2="29" xlink:href="#linear-gradient-10"/></defs><title>news paper</title><g id="news_paper" data-name="news paper"><path class="cls-1" d="M56,11a3,3,0,0,0-3,3V52H47V11Z"/><path class="cls-2" d="M59,14V53a6,6,0,0,1-12,0V52h6V14a3,3,0,0,1,6,0Z"/><path class="cls-3" d="M53,59H11a6,6,0,0,1-6-6V5H47V53A6,6,0,0,0,53,59Z"/><rect class="cls-4" x="11" y="11" width="30" height="21"/><rect class="cls-5" x="28" y="36" width="13" height="18"/><path class="cls-6" d="M23,39H11a1,1,0,0,1,0-2H23a1,1,0,0,1,0,2Z"/><path class="cls-7" d="M23,44H11a1,1,0,0,1,0-2H23a1,1,0,0,1,0,2Z"/><path class="cls-8" d="M23,49H11a1,1,0,0,1,0-2H23a1,1,0,0,1,0,2Z"/><path class="cls-9" d="M23,54H11a1,1,0,0,1,0-2H23a1,1,0,0,1,0,2Z"/><path class="cls-10" d="M35,22H33a1,1,0,0,1,0-2h2a1,1,0,0,1,0,2Z"/><path class="cls-11" d="M33,18a1,1,0,0,1-.89-.55,1,1,0,0,1,.44-1.34l2-1a1,1,0,0,1,.9,1.78l-2,1A.93.93,0,0,1,33,18Z"/><path class="cls-12" d="M35,27a.93.93,0,0,1-.45-.11l-2-1a1,1,0,1,1,.9-1.78l2,1a1,1,0,0,1,.44,1.34A1,1,0,0,1,35,27Z"/><path class="cls-13" d="M20,29a1,1,0,0,1-1-1V24a1,1,0,0,1,2,0v4A1,1,0,0,1,20,29Z"/><path class="cls-14" d="M20,18h3a0,0,0,0,1,0,0v6a0,0,0,0,1,0,0H20a3,3,0,0,1-3-3v0A3,3,0,0,1,20,18Z"/><polygon class="cls-15" points="23 18 29 15 29 27 23 24 23 18"/></g></svg>