<svg xmlns="http://www.w3.org/2000/svg" xmlns:xlink="http://www.w3.org/1999/xlink" viewBox="0 0 64 64"><defs><style>.cls-1{fill:url(#linear-gradient);}.cls-2{fill:url(#linear-gradient-2);}.cls-3{fill:url(#linear-gradient-3);}.cls-4{fill:url(#linear-gradient-4);}.cls-5{fill:url(#linear-gradient-5);}.cls-6{fill:url(#linear-gradient-6);}.cls-7{fill:url(#linear-gradient-7);}.cls-8{fill:url(#linear-gradient-8);}.cls-9{fill:url(#linear-gradient-9);}.cls-10{fill:url(#linear-gradient-10);}.cls-11{fill:url(#linear-gradient-11);}.cls-12{fill:url(#linear-gradient-12);}.cls-13{fill:url(#linear-gradient-13);}.cls-14{fill:url(#linear-gradient-14);}.cls-15{fill:url(#linear-gradient-15);}.cls-16{fill:url(#linear-gradient-16);}.cls-17{fill:url(#linear-gradient-17);}.cls-18{fill:url(#linear-gradient-18);}</style><linearGradient id="linear-gradient" x1="26" y1="13" x2="28" y2="13" gradientUnits="userSpaceOnUse"><stop offset="0" stop-color="#e2f0f3"/><stop offset="1" stop-color="#a5b7c3"/></linearGradient><linearGradient id="linear-gradient-2" x1="5" y1="37" x2="47.5" y2="37" gradientUnits="userSpaceOnUse"><stop offset="0" stop-color="#243384"/><stop offset="1" stop-color="#0f274b"/></linearGradient><linearGradient id="linear-gradient-3" x1="10" y1="37" x2="42" y2="37" xlink:href="#linear-gradient"/><linearGradient id="linear-gradient-4" x1="23" y1="8" x2="31" y2="8" gradientUnits="userSpaceOnUse"><stop offset="0" stop-color="#23c8de"/><stop offset="1" stop-color="#117bc9"/></linearGradient><linearGradient id="linear-gradient-5" x1="7.34" y1="19.67" x2="14.34" y2="19.67" xlink:href="#linear-gradient-4"/><linearGradient id="linear-gradient-6" x1="39.66" y1="19.67" x2="46.66" y2="19.67" xlink:href="#linear-gradient-4"/><linearGradient id="linear-gradient-7" x1="30.51" y1="44" x2="59.49" y2="44" gradientUnits="userSpaceOnUse"><stop offset="0" stop-color="#efad7b"/><stop offset="1" stop-color="#ed7a5f"/></linearGradient><linearGradient id="linear-gradient-8" x1="40" y1="44" x2="50" y2="44" xlink:href="#linear-gradient-2"/><linearGradient id="linear-gradient-9" x1="26" y1="24" x2="28" y2="24" xlink:href="#linear-gradient-4"/><linearGradient id="linear-gradient-10" x1="26" y1="50" x2="28" y2="50" xlink:href="#linear-gradient-4"/><linearGradient id="linear-gradient-11" x1="19.5" y1="25.74" x2="21.5" y2="25.74" xlink:href="#linear-gradient-4"/><linearGradient id="linear-gradient-12" x1="14.74" y1="30.5" x2="16.74" y2="30.5" xlink:href="#linear-gradient-4"/><linearGradient id="linear-gradient-13" x1="32.5" y1="25.74" x2="34.5" y2="25.74" xlink:href="#linear-gradient-4"/><linearGradient id="linear-gradient-14" x1="19.5" y1="48.26" x2="21.5" y2="48.26" xlink:href="#linear-gradient-4"/><linearGradient id="linear-gradient-15" x1="37.26" y1="30.5" x2="39.26" y2="30.5" xlink:href="#linear-gradient-4"/><linearGradient id="linear-gradient-16" x1="14.74" y1="43.5" x2="16.74" y2="43.5" xlink:href="#linear-gradient-4"/><linearGradient id="linear-gradient-17" x1="13" y1="37" x2="15" y2="37" xlink:href="#linear-gradient-4"/><linearGradient id="linear-gradient-18" x1="24" y1="33.5" x2="30" y2="33.5" xlink:href="#linear-gradient-7"/></defs><title>productivity</title><g id="productivity"><path class="cls-1" d="M27,16a1,1,0,0,1-1-1V11a1,1,0,0,1,2,0v4A1,1,0,0,1,27,16Z"/><path class="cls-2" d="M47.5,29H42l-.19,1.5A4.92,4.92,0,0,1,41,32.7a12,12,0,0,0-3.77,2.18,5,5,0,0,1-2.32-.39l-1.39-.59-3,5.2,1.21.91a5,5,0,0,1,1.49,1.81,11.42,11.42,0,0,0,0,4.36A5,5,0,0,1,31.72,48l-1.21.91L32.85,53l.66,1.14,1.39-.59a5,5,0,0,1,2.32-.39,11.65,11.65,0,0,0,2.66,1.72,22,22,0,0,1-26.78-.79h0A22.42,22.42,0,0,1,9,49.66,22,22,0,0,1,10,23.09,22.42,22.42,0,0,1,14.34,19a22,22,0,0,1,25.32,0,22.42,22.42,0,0,1,4.39,4.09A21.82,21.82,0,0,1,47.5,29Z"/><path class="cls-3" d="M42,29l-.19,1.5A4.92,4.92,0,0,1,41,32.7a12,12,0,0,0-3.77,2.18,5,5,0,0,1-2.32-.39l-1.39-.59-3,5.2,1.21.91a5,5,0,0,1,1.49,1.81,11.42,11.42,0,0,0,0,4.36A5,5,0,0,1,31.72,48l-1.21.91L32.85,53a17,17,0,0,1-16.59-2.79h0a17.24,17.24,0,0,1-3.16-3.39,17,17,0,0,1,.74-20.53,17.24,17.24,0,0,1,3.39-3.16,17,17,0,0,1,19.56,0,17.24,17.24,0,0,1,3.39,3.16A16.43,16.43,0,0,1,42,29Z"/><rect class="cls-4" x="23" y="5" width="8" height="6"/><path class="cls-5" d="M14.34,19A22.42,22.42,0,0,0,10,23.09L7.64,20.78a1,1,0,0,1,0-1.42l2.82-2.82a1,1,0,0,1,1.42,0Z"/><path class="cls-6" d="M46.36,20.78l-2.31,2.31A22.42,22.42,0,0,0,39.66,19l2.46-2.46a1,1,0,0,1,1.42,0l2.82,2.82A1,1,0,0,1,46.36,20.78Z"/><path class="cls-7" d="M58.28,48l1.21.91-3,5.2-1.39-.59a5,5,0,0,0-2.32-.39A12,12,0,0,1,49,55.3a4.92,4.92,0,0,0-.82,2.2L48,59H42l-.19-1.5A4.92,4.92,0,0,0,41,55.3c-.38-.14-.75-.29-1.11-.46a11.65,11.65,0,0,1-2.66-1.72,5,5,0,0,0-2.32.39l-1.39.59L32.85,53,30.51,48.9,31.72,48a5,5,0,0,0,1.49-1.81,11.42,11.42,0,0,1,0-4.36A5,5,0,0,0,31.72,40l-1.21-.91,3-5.2,1.39.59a5,5,0,0,0,2.32.39A12,12,0,0,1,41,32.7a4.92,4.92,0,0,0,.82-2.2L42,29h6l.19,1.5A4.92,4.92,0,0,0,49,32.7a12,12,0,0,1,3.77,2.18,5,5,0,0,0,2.32-.39l1.39-.59,3,5.2L58.28,40a5,5,0,0,0-1.49,1.81,11.42,11.42,0,0,1,0,4.36A5,5,0,0,0,58.28,48Z"/><circle class="cls-8" cx="45" cy="44" r="5"/><circle class="cls-9" cx="27" cy="24" r="1"/><circle class="cls-10" cx="27" cy="50" r="1"/><circle class="cls-11" cx="20.5" cy="25.74" r="1"/><circle class="cls-12" cx="15.74" cy="30.5" r="1"/><circle class="cls-13" cx="33.5" cy="25.74" r="1"/><circle class="cls-14" cx="20.5" cy="48.26" r="1"/><circle class="cls-15" cx="38.26" cy="30.5" r="1"/><circle class="cls-16" cx="15.74" cy="43.5" r="1"/><circle class="cls-17" cx="14" cy="37" r="1"/><path class="cls-18" d="M28,34.18V28a1,1,0,0,0-2,0v6.18a3,3,0,1,0,2,0Z"/></g></svg>