<svg xmlns="http://www.w3.org/2000/svg" xmlns:xlink="http://www.w3.org/1999/xlink" viewBox="0 0 64 64"><defs><style>.cls-1{fill:url(#linear-gradient);}.cls-2{fill:url(#linear-gradient-2);}.cls-3{fill:url(#linear-gradient-3);}.cls-4{fill:url(#linear-gradient-4);}</style><linearGradient id="linear-gradient" x1="14.57" y1="26" x2="50" y2="26" gradientUnits="userSpaceOnUse"><stop offset="0" stop-color="#e2f0f3"/><stop offset="1" stop-color="#a5b7c3"/></linearGradient><linearGradient id="linear-gradient-2" x1="9" y1="59" x2="55" y2="59" gradientUnits="userSpaceOnUse"><stop offset="0" stop-color="#243384"/><stop offset="1" stop-color="#0f274b"/></linearGradient><linearGradient id="linear-gradient-3" x1="14" y1="53" x2="50" y2="53" gradientUnits="userSpaceOnUse"><stop offset="0" stop-color="#23c8de"/><stop offset="1" stop-color="#117bc9"/></linearGradient><linearGradient id="linear-gradient-4" x1="34" y1="24.27" x2="47" y2="24.27" gradientUnits="userSpaceOnUse"><stop offset="0" stop-color="#efad7b"/><stop offset="1" stop-color="#ed7a5f"/></linearGradient></defs><title>startegy</title><g id="startegy"><path class="cls-1" d="M50,21A19,19,0,0,0,31,2V7L16.41,20.82a5.92,5.92,0,0,0,5.15,10.11L32,29v1.05a2.77,2.77,0,0,1-1.83,2.61h0A18.44,18.44,0,0,0,18,50H42a8,8,0,0,0,8-8V21Z"/><path class="cls-2" d="M14,56H50a5,5,0,0,1,5,5v1a0,0,0,0,1,0,0H9a0,0,0,0,1,0,0V61A5,5,0,0,1,14,56Z"/><path class="cls-3" d="M18,50H46a4,4,0,0,1,4,4v2a0,0,0,0,1,0,0H14a0,0,0,0,1,0,0V54A4,4,0,0,1,18,50Z"/><path class="cls-4" d="M46,43a1,1,0,0,1-1-1V21A14.05,14.05,0,0,0,34.73,7.5a1,1,0,0,1,.54-1.92A16,16,0,0,1,47,21V42A1,1,0,0,1,46,43Z"/></g></svg>