<svg xmlns="http://www.w3.org/2000/svg" xmlns:xlink="http://www.w3.org/1999/xlink" viewBox="0 0 64 64"><defs><style>.cls-1{fill:url(#linear-gradient);}.cls-2{fill:url(#linear-gradient-2);}.cls-3{fill:url(#linear-gradient-3);}.cls-4{fill:url(#linear-gradient-4);}.cls-5{fill:url(#linear-gradient-5);}.cls-6{fill:url(#linear-gradient-6);}.cls-7{fill:url(#linear-gradient-7);}.cls-8{fill:url(#linear-gradient-8);}.cls-9{fill:url(#linear-gradient-9);}.cls-10{fill:url(#linear-gradient-10);}</style><linearGradient id="linear-gradient" x1="5" y1="35" x2="43" y2="35" gradientUnits="userSpaceOnUse"><stop offset="0" stop-color="#243384"/><stop offset="1" stop-color="#0f274b"/></linearGradient><linearGradient id="linear-gradient-2" x1="14" y1="10.5" x2="34" y2="10.5" gradientUnits="userSpaceOnUse"><stop offset="0" stop-color="#efad7b"/><stop offset="1" stop-color="#ed7a5f"/></linearGradient><linearGradient id="linear-gradient-3" x1="10" y1="34.5" x2="38" y2="34.5" gradientUnits="userSpaceOnUse"><stop offset="0" stop-color="#e2f0f3"/><stop offset="1" stop-color="#a5b7c3"/></linearGradient><linearGradient id="linear-gradient-4" x1="13" y1="30" x2="35" y2="30" gradientUnits="userSpaceOnUse"><stop offset="0" stop-color="#23c8de"/><stop offset="1" stop-color="#117bc9"/></linearGradient><linearGradient id="linear-gradient-5" x1="18" x2="30" xlink:href="#linear-gradient-4"/><linearGradient id="linear-gradient-6" x1="22" x2="26" xlink:href="#linear-gradient-4"/><linearGradient id="linear-gradient-7" x1="14" y1="44" x2="34" y2="44" xlink:href="#linear-gradient-4"/><linearGradient id="linear-gradient-8" x1="14" y1="48" x2="34" y2="48" xlink:href="#linear-gradient-4"/><linearGradient id="linear-gradient-9" x1="23" y1="30" x2="47" y2="30" xlink:href="#linear-gradient-2"/><linearGradient id="linear-gradient-10" x1="46" y1="30" x2="59" y2="30" xlink:href="#linear-gradient-2"/></defs><title>target</title><g id="target"><path class="cls-1" d="M43,14V56a3,3,0,0,1-3,3H8a3,3,0,0,1-3-3V14a3,3,0,0,1,3-3h6v3a2,2,0,0,0,2,2h5l1-1h4l1,1h5a2,2,0,0,0,2-2V11h6A3,3,0,0,1,43,14Z"/><path class="cls-2" d="M34,11v3a2,2,0,0,1-2,2H27l-1-1H22l-1,1H16a2,2,0,0,1-2-2V11a2,2,0,0,1,2-2h5V8a3,3,0,0,1,6,0V9h5A2,2,0,0,1,34,11Z"/><path class="cls-3" d="M38,15V54H10V15h4.27A2,2,0,0,0,16,16h5l1-1h4l1,1h5a2,2,0,0,0,1.73-1Z"/><path class="cls-4" d="M24,41A11,11,0,1,1,35,30,11,11,0,0,1,24,41Zm0-20a9,9,0,1,0,9,9A9,9,0,0,0,24,21Z"/><path class="cls-5" d="M24,36a6,6,0,1,1,6-6A6,6,0,0,1,24,36Zm0-10a4,4,0,1,0,4,4A4,4,0,0,0,24,26Z"/><path class="cls-6" d="M24,32a2,2,0,1,1,2-2A2,2,0,0,1,24,32Zm0-2h0Zm0,0h0Zm0,0h0Zm0,0h0Zm0,0h0Zm0,0h0Zm0,0h0Zm0,0h0Z"/><path class="cls-7" d="M33,45H15a1,1,0,0,1,0-2H33a1,1,0,0,1,0,2Z"/><path class="cls-8" d="M33,49H15a1,1,0,0,1,0-2H33a1,1,0,0,1,0,2Z"/><path class="cls-9" d="M46,31H24a1,1,0,0,1,0-2H46a1,1,0,0,1,0,2Z"/><polygon class="cls-10" points="59 36 49 36 46 30 49 24 59 24 56 29.95 59 36"/></g></svg>