<svg xmlns="http://www.w3.org/2000/svg" xmlns:xlink="http://www.w3.org/1999/xlink" viewBox="0 0 64 64"><defs><style>.cls-1{fill:url(#linear-gradient);}.cls-2{fill:url(#linear-gradient-2);}.cls-3{fill:url(#linear-gradient-3);}.cls-4{fill:url(#linear-gradient-4);}.cls-5{fill:url(#linear-gradient-5);}.cls-6{fill:url(#linear-gradient-6);}.cls-7{fill:url(#linear-gradient-7);}.cls-8{fill:url(#linear-gradient-8);}.cls-9{fill:url(#linear-gradient-9);}.cls-10{fill:url(#linear-gradient-10);}.cls-11{fill:url(#linear-gradient-11);}.cls-12{fill:url(#linear-gradient-12);}.cls-13{fill:url(#linear-gradient-13);}.cls-14{fill:url(#linear-gradient-14);}.cls-15{fill:url(#linear-gradient-15);}.cls-16{fill:url(#linear-gradient-16);}.cls-17{fill:url(#linear-gradient-17);}.cls-18{fill:url(#linear-gradient-18);}</style><linearGradient id="linear-gradient" x1="11.74" y1="11.5" x2="26" y2="11.5" gradientUnits="userSpaceOnUse"><stop offset="0" stop-color="#e2f0f3"/><stop offset="1" stop-color="#a5b7c3"/></linearGradient><linearGradient id="linear-gradient-2" x1="24" y1="11.27" x2="52.08" y2="11.27" xlink:href="#linear-gradient"/><linearGradient id="linear-gradient-3" x1="9" y1="7" x2="13" y2="7" xlink:href="#linear-gradient"/><linearGradient id="linear-gradient-4" x1="51" y1="7" x2="55" y2="7" xlink:href="#linear-gradient"/><linearGradient id="linear-gradient-5" x1="5" y1="35" x2="59" y2="35" gradientUnits="userSpaceOnUse"><stop offset="0" stop-color="#23c8de"/><stop offset="1" stop-color="#117bc9"/></linearGradient><linearGradient id="linear-gradient-6" x1="10" y1="35" x2="45" y2="35" xlink:href="#linear-gradient"/><linearGradient id="linear-gradient-7" x1="33" y1="35" x2="37" y2="35" gradientUnits="userSpaceOnUse"><stop offset="0" stop-color="#efad7b"/><stop offset="1" stop-color="#ed7a5f"/></linearGradient><linearGradient id="linear-gradient-8" y1="30.5" y2="30.5" xlink:href="#linear-gradient-7"/><linearGradient id="linear-gradient-9" y1="39.5" y2="39.5" xlink:href="#linear-gradient-7"/><linearGradient id="linear-gradient-10" x1="20" y1="40" x2="22" y2="40" xlink:href="#linear-gradient-7"/><linearGradient id="linear-gradient-11" x1="18" x2="24" xlink:href="#linear-gradient-7"/><linearGradient id="linear-gradient-12" x1="24" x2="30" xlink:href="#linear-gradient-7"/><linearGradient id="linear-gradient-13" x1="11" y1="57" x2="53" y2="57" gradientUnits="userSpaceOnUse"><stop offset="0" stop-color="#243384"/><stop offset="1" stop-color="#0f274b"/></linearGradient><linearGradient id="linear-gradient-14" x1="48" y1="41" x2="56" y2="41" xlink:href="#linear-gradient-13"/><linearGradient id="linear-gradient-15" x1="48" y1="45" x2="56" y2="45" xlink:href="#linear-gradient-13"/><linearGradient id="linear-gradient-16" x1="48" y1="49" x2="56" y2="49" xlink:href="#linear-gradient-13"/><linearGradient id="linear-gradient-17" x1="49" y1="23" x2="55" y2="23" xlink:href="#linear-gradient-7"/><linearGradient id="linear-gradient-18" x1="49" y1="33" x2="55" y2="33" xlink:href="#linear-gradient-7"/></defs><title>tv ads</title><g id="tv_ads" data-name="tv ads"><path class="cls-1" d="M25,16a1,1,0,0,1-.5-.13l-12.26-7a1,1,0,0,1,1-1.74l12.26,7A1,1,0,0,1,25,16Z"/><path class="cls-2" d="M25,16a1,1,0,0,1-.27-2L50.81,6.59A1,1,0,0,1,52,7.27a1,1,0,0,1-.69,1.24L25.27,16A.84.84,0,0,1,25,16Z"/><circle class="cls-3" cx="11" cy="7" r="2"/><circle class="cls-4" cx="53" cy="7" r="2"/><rect class="cls-5" x="5" y="15" width="54" height="40" rx="3" ry="3"/><rect class="cls-6" x="10" y="20" width="35" height="30" rx="3" ry="3"/><path class="cls-7" d="M36,36H34a1,1,0,0,1,0-2h2a1,1,0,0,1,0,2Z"/><path class="cls-8" d="M34,32a1,1,0,0,1-.89-.55,1,1,0,0,1,.44-1.34l2-1a1,1,0,1,1,.9,1.78l-2,1A.93.93,0,0,1,34,32Z"/><path class="cls-9" d="M36,41a.93.93,0,0,1-.45-.11l-2-1a1,1,0,1,1,.9-1.78l2,1a1,1,0,0,1,.44,1.34A1,1,0,0,1,36,41Z"/><path class="cls-10" d="M21,43a1,1,0,0,1-1-1V38a1,1,0,0,1,2,0v4A1,1,0,0,1,21,43Z"/><path class="cls-11" d="M21,32h3a0,0,0,0,1,0,0v6a0,0,0,0,1,0,0H21a3,3,0,0,1-3-3v0A3,3,0,0,1,21,32Z"/><polygon class="cls-12" points="24 32 30 29 30 41 24 38 24 32"/><rect class="cls-13" x="11" y="55" width="42" height="4"/><path class="cls-14" d="M55,42H49a1,1,0,0,1,0-2h6a1,1,0,0,1,0,2Z"/><path class="cls-15" d="M55,46H49a1,1,0,0,1,0-2h6a1,1,0,0,1,0,2Z"/><path class="cls-16" d="M55,50H49a1,1,0,0,1,0-2h6a1,1,0,0,1,0,2Z"/><rect class="cls-17" x="49" y="20" width="6" height="6" rx="3" ry="3"/><rect class="cls-18" x="49" y="30" width="6" height="6" rx="3" ry="3"/></g></svg>