<svg xmlns="http://www.w3.org/2000/svg" viewBox="0 0 64 64"><title>Artboard-25</title><g id="Clipboard"><path d="M45,1a1,1,0,0,0-1-1H20a1,1,0,0,0-1,1V6H45Z" style="fill:#27272b"/><polygon points="29.449 32.289 31.086 34.789 32.186 34.388 30.549 31.888 29.449 32.289" style="fill:#27272b"/><path d="M26.292,30.627a2.132,2.132,0,0,0,1.49.122L26.29,26.5a2.3,2.3,0,0,0-1.158,2.832A2.237,2.237,0,0,0,26.292,30.627Z" style="fill:#27272b"/><polygon points="30.608 29.737 30.611 29.737 33.845 28.558 33.424 27.355 32.34 24.268 28.162 25.792 29.667 30.081 30.608 29.737" style="fill:#27272b"/><polygon points="44 57.586 48.586 53 44 53 44 57.586" style="fill:#27272b"/><path d="M54,3H47V7a1,1,0,0,1-1,1H40v8a1,1,0,0,1-1,1H25a1,1,0,0,1-1-1V13H14V59H42V52a1,1,0,0,1,1-1h7V13H43a1,1,0,0,1,0-2h8a1,1,0,0,1,1,1V52c0,.02-.01.04-.01.06a1.089,1.089,0,0,1-.05.26.355.355,0,0,1-.04.09,1.173,1.173,0,0,1-.19.3l-8,8a1.155,1.155,0,0,1-.33.21A1,1,0,0,1,43,61H13a1,1,0,0,1-1-1V12a1,1,0,0,1,1-1H24V8H18a1,1,0,0,1-1-1V3H10A1,1,0,0,0,9,4V63a1,1,0,0,0,1,1H54a1,1,0,0,0,1-1V4A1,1,0,0,0,54,3ZM41.03,23.52a1,1,0,0,1-.6,1.28L37.4,25.9a.816.816,0,0,1-.34.06.994.994,0,0,1-.34-1.93l3.03-1.11A1,1,0,0,1,41.03,23.52Zm-5.51-1.56,2.49-2.64a.994.994,0,1,1,1.45,1.36l-2.48,2.65a1,1,0,0,1-1.42.05A1.008,1.008,0,0,1,35.52,21.96Zm-9.73,2.57,5.89-2.15-.22-.61a1,1,0,1,1,1.89-.66l1.63,4.63,1.08,3.09.54,1.54a1.011,1.011,0,0,1-.61,1.28,1.257,1.257,0,0,1-.33.05,1,1,0,0,1-.95-.67l-.2-.59-2.03.74,2.07,3.17a1,1,0,0,1-.49,1.48l-3.03,1.11a1.073,1.073,0,0,1-.35.06.984.984,0,0,1-.83-.45l-2.44-3.73c-.07,0-.13.02-.2.02a4.2,4.2,0,0,1-3.96-2.85A4.294,4.294,0,0,1,25.79,24.53ZM39,57H17a1,1,0,0,1,0-2H39a1,1,0,0,1,0,2Zm0-4H17a1,1,0,0,1,0-2H39a1,1,0,0,1,0,2Zm8-4H17a1,1,0,0,1,0-2H47a1,1,0,0,1,0,2Zm0-4H17a1,1,0,0,1,0-2H47a1,1,0,0,1,0,2Zm0-6a1,1,0,0,1,0,2H17a1,1,0,0,1,0-2ZM42.44,27.84a1.009,1.009,0,0,1-.99.88.57.57,0,0,1-.13-.01l-3.57-.44A1,1,0,1,1,38,26.29l3.57.44A1.007,1.007,0,0,1,42.44,27.84Z" style="fill:#27272b"/><path d="M29,11h9V8H26v7H38V13H29a1,1,0,0,1,0-2Z" style="fill:#27272b"/></g></svg>