<svg xmlns="http://www.w3.org/2000/svg" viewBox="0 0 64 64"><title>Artboard-10</title><g id="Email"><circle cx="28" cy="45" r="1" style="fill:#27272b"/><path d="M32,38A11,11,0,1,0,43,49,11.012,11.012,0,0,0,32,38Zm-7,7a3,3,0,1,1,3,3A3,3,0,0,1,25,45Zm2.707,9.707a1,1,0,0,1-1.414-1.414l10-10a1,1,0,0,1,1.414,1.414ZM36,56a3,3,0,1,1,3-3A3,3,0,0,1,36,56Z" style="fill:#27272b"/><circle cx="36" cy="53" r="1" style="fill:#27272b"/><path d="M59,4H5A5,5,0,0,0,0,9V43a5,5,0,0,0,5,5H19.05a12.993,12.993,0,0,1,25.91,0H59a5,5,0,0,0,5-5V9A5,5,0,0,0,59,4Zm.589,39.7a1,1,0,0,1-1.414.024L38.814,24.989l-6.2,4.8a1,1,0,0,1-1.224,0l-6.2-4.8L5.825,43.719a1,1,0,0,1-1.39-1.438l19.153-18.53L5.558,9.791A1,1,0,0,1,6.782,8.209L32,27.736,57.218,8.209a1,1,0,1,1,1.224,1.582l-18.03,13.96,19.153,18.53A1,1,0,0,1,59.589,43.7Z" style="fill:#27272b"/></g></svg>