<svg xmlns="http://www.w3.org/2000/svg" viewBox="0 0 64 64"><title>Artboard-11</title><g id="Newspaper"><polygon points="52 0.58 52 10 61.42 10 52 0.58" style="fill:#27272b"/><path d="M40.41,18l1.13,1.13a1,1,0,1,1-1.41,1.41l-1.76-1.76a.5.5,0,0,1-.08-.07c-.02-.02-.04-.05-.06-.07L31,11.41,21,21.42V22H53.58L45,13.41Z" style="fill:#27272b"/><path d="M51,12a1,1,0,0,1-1-1V0H17a1,1,0,0,0-1,1V50H59a4.941,4.941,0,0,1,3,1V12ZM20,30h7a1,1,0,0,1,0,2H20a1,1,0,0,1,0-2Zm-1-3a1,1,0,0,1,1-1H41a1,1,0,0,1,0,2H20A1,1,0,0,1,19,27ZM50,48H20a1,1,0,0,1,0-2H50a1,1,0,0,1,0,2ZM19,43a1,1,0,0,1,1-1H35a1,1,0,0,1,0,2H20A1,1,0,0,1,19,43Zm39-3H20a1,1,0,0,1,0-2H58a1,1,0,0,1,0,2Zm0-4H20a1,1,0,0,1,0-2H58a1,1,0,0,1,0,2Zm1-13a1,1,0,0,1-1,1H20a1,1,0,0,1-1-1V4a1,1,0,0,1,1-1H47a1,1,0,0,1,0,2H21V18.58l9.29-9.29a1.008,1.008,0,0,1,1.42,0L39,16.58l5.29-5.29a1.008,1.008,0,0,1,1.42,0L56.42,22H57V15a1,1,0,0,1,2,0ZM42,10a3,3,0,1,1-3-3A3.009,3.009,0,0,1,42,10Z" style="fill:#27272b"/><circle cx="39" cy="10" r="1" style="fill:#27272b"/><rect x="13" y="52" width="40" height="5" style="fill:#27272b"/><rect x="13" y="59" width="40" height="5" style="fill:#27272b"/><path d="M59,52H55V64h4a3,3,0,0,0,3-3V55A3,3,0,0,0,59,52Z" style="fill:#27272b"/><path d="M2,58a1,1,0,0,0,.514.874L11,63.588V52.412L2.514,57.126A1,1,0,0,0,2,58Z" style="fill:#27272b"/></g></svg>