<svg xmlns="http://www.w3.org/2000/svg" viewBox="0 0 64 64"><title>Artboard-5</title><g id="Medal"><circle cx="37" cy="30" r="2" style="fill:#27272b"/><circle cx="27" cy="20" r="2" style="fill:#27272b"/><path d="M56,25A24,24,0,1,0,32,49,24.028,24.028,0,0,0,56,25ZM32,45A20,20,0,1,1,52,25,20.023,20.023,0,0,1,32,45Z" style="fill:#27272b"/><path d="M32,7A18,18,0,1,0,50,25,18.021,18.021,0,0,0,32,7Zm-5,9a4,4,0,1,1-4,4A4,4,0,0,1,27,16ZM25.707,32.707a1,1,0,0,1-1.414-1.414l14-14a1,1,0,0,1,1.414,1.414ZM37,34a4,4,0,1,1,4-4A4,4,0,0,1,37,34Z" style="fill:#27272b"/><path d="M11.51,40.98,3.13,55.5a1,1,0,0,0,1.14,1.46l5.9-1.631L15.9,45.386A25.972,25.972,0,0,1,11.51,40.98Z" style="fill:#27272b"/><path d="M11.9,56.335,13.42,62.25a.994.994,0,0,0,.83.74.66.66,0,0,0,.14.01,1.016,1.016,0,0,0,.87-.5l7.59-13.17a25.7,25.7,0,0,1-5.324-2.757Z" style="fill:#27272b"/><path d="M41.15,49.33,48.74,62.5a1.016,1.016,0,0,0,.87.5.708.708,0,0,0,.14-.01.994.994,0,0,0,.83-.74L52.1,56.334l-5.629-9.761A25.759,25.759,0,0,1,41.15,49.33Z" style="fill:#27272b"/><path d="M60.87,55.5,52.49,40.98A26.04,26.04,0,0,1,48.1,45.386l5.734,9.944,5.9,1.63a1,1,0,0,0,1.14-1.46Z" style="fill:#27272b"/></g></svg>