<svg xmlns="http://www.w3.org/2000/svg" viewBox="0 0 64 64"><title>Artboard-26</title><g id="Hand"><path d="M33.9,25.191l-7.64,7.65a4,4,0,0,1-5.63,0,3.971,3.971,0,0,1,0-5.63l8.83-8.83H27.09l-1.8-1.8h-.01L9.43,32.431v.01L23.1,46.111c7.97,7.97,10.9,10.9,11.92,11.931a2.005,2.005,0,0,0,1.45.61,2.06,2.06,0,0,0,1.46-3.51L26.07,43.271a1,1,0,0,1,0-1.41,1.008,1.008,0,0,1,1.42,0L39.35,53.722a2.028,2.028,0,0,0,2.9,0,2.052,2.052,0,0,0,0-2.9L30.39,38.951a1,1,0,1,1,1.41-1.41L43.66,49.412a2.058,2.058,0,0,0,2.91-2.91L34.71,34.641a1.008,1.008,0,0,1,0-1.42,1,1,0,0,1,1.41,0L47.98,45.092a2.054,2.054,0,0,0,2.9-2.91C48.44,39.762,47.52,38.821,33.9,25.191Z" style="fill:#27272b"/><path d="M34.7,18.381H32.28L22.04,28.621a2.01,2.01,0,0,0-.58,1.4,1.98,1.98,0,0,0,3.38,1.4l9.05-9.04a2.99,2.99,0,0,1,3.1-.73,3.131,3.131,0,0,0,3.2-.76,1.008,1.008,0,0,1,1.42,0,1,1,0,0,1,0,1.41,5.1,5.1,0,0,1-5.26,1.24,1.024,1.024,0,0,0-1.04.24l13.06,13.05,6.2-6.2L38.66,14.721Z" style="fill:#27272b"/><path d="M26.175,12.858a1,1,0,0,0,0-1.413L23.98,9.251a1.008,1.008,0,0,0-1.42,0L2.1,29.711a1.008,1.008,0,0,0,0,1.42l2.194,2.194a1,1,0,0,0,1.413,0l2.313-2.3,15.85-15.85Z" style="fill:#27272b"/><path d="M18.56,7.441a1,1,0,0,0-1.41,0L.29,24.3a1,1,0,0,0,0,1.41L1.78,27.2,20.05,8.931Z" style="fill:#27272b"/><path d="M41.44,7.441a1.008,1.008,0,0,0-1.42,0l-2.2,2.2a1,1,0,0,0,0,1.413l2.3,2.3,15.85,15.86,2.312,2.3a1,1,0,0,0,1.414,0l2.194-2.2a.967.967,0,0,0,.29-.7.99.99,0,0,0-.29-.71Z" style="fill:#27272b"/><path d="M63.71,22.491,46.85,5.641a1,1,0,0,0-1.41,0l-1.49,1.49L62.22,25.4l1.49-1.49A1.052,1.052,0,0,0,64,23.2,1.033,1.033,0,0,0,63.71,22.491Z" style="fill:#27272b"/><path d="M18.14,43.981l-1.381,1.381a2.02,2.02,0,0,0,0,2.855l.049.048a2.019,2.019,0,0,0,2.858,0l1.386-1.386Z" style="fill:#27272b"/><path d="M13.83,39.661l-1.389,1.382a2.02,2.02,0,0,0,0,2.864l.043.043a2.021,2.021,0,0,0,2.856,0l1.387-1.38Z" style="fill:#27272b"/><path d="M22.47,48.3l-1.387,1.38a2.021,2.021,0,0,0,0,2.856l.047.046a2.019,2.019,0,0,0,2.859,0L25.37,51.2Z" style="fill:#27272b"/><path d="M26.78,52.621,25.4,54a2.02,2.02,0,0,0,0,2.857l.043.043a2.02,2.02,0,0,0,2.857,0l1.377-1.377Z" style="fill:#27272b"/></g></svg>