<svg xmlns="http://www.w3.org/2000/svg" viewBox="0 0 64 64"><title>Artboard-31</title><g id="Smartphone-2" data-name="Smartphone"><path d="M24,10h4V39h8V10h4a.987.987,0,0,0,.92-.62,1,1,0,0,0-.21-1.09l-8-8a1.008,1.008,0,0,0-1.42,0l-8,8a1,1,0,0,0-.21,1.09A.987.987,0,0,0,24,10Z" style="fill:#27272b"/><path d="M63.707,17.293l-8-8A1,1,0,0,0,54,10v4H47a7.008,7.008,0,0,0-7,7V33a1,1,0,0,0,1,1h6a1,1,0,0,0,1-1V22h6v4a1,1,0,0,0,1.707.707l8-8A1,1,0,0,0,63.707,17.293Z" style="fill:#27272b"/><path d="M9.383,26.924A1,1,0,0,0,10,26V22h6V33a1,1,0,0,0,1,1h6a1,1,0,0,0,1-1V21a7.008,7.008,0,0,0-7-7H10V10a1,1,0,0,0-1.707-.707l-8,8a1,1,0,0,0,0,1.414l8,8A1,1,0,0,0,9.383,26.924Z" style="fill:#27272b"/><path d="M24,55H40V45H24Zm1.715-2.747,2.923-2.6-2.392-1.862a1,1,0,0,1,1.228-1.578L32,49.733l4.526-3.522a1,1,0,1,1,1.228,1.578L35.363,49.65l2.931,2.6a1,1,0,0,1-1.328,1.5L33.757,50.9l-1.143.889a1,1,0,0,1-1.228,0L30.243,50.9l-3.2,2.847a1,1,0,1,1-1.33-1.494Z" style="fill:#27272b"/><path d="M51,46.127V41H13V59H51V53.873a4,4,0,0,1,0-7.746ZM16,51a1,1,0,0,1-2,0V49a1,1,0,0,1,2,0Zm26,4a2,2,0,0,1-2,2H24a2,2,0,0,1-2-2V45a2,2,0,0,1,2-2H40a2,2,0,0,1,2,2Z" style="fill:#27272b"/><path d="M52,36H38v3H52a1,1,0,0,1,1,1v7a1,1,0,0,1-1,1,2,2,0,0,0,0,4,1,1,0,0,1,1,1v7a1,1,0,0,1-1,1H12a1,1,0,0,1-1-1V40a1,1,0,0,1,1-1H26V36H12a4,4,0,0,0-4,4V60a4,4,0,0,0,4,4H52a4,4,0,0,0,4-4V40A4,4,0,0,0,52,36Zm0,15a1,1,0,1,1,1-1A1,1,0,0,1,52,51Z" style="fill:#27272b"/></g></svg>