<svg xmlns="http://www.w3.org/2000/svg" viewBox="0 0 64 64"><title>Artboard-36</title><g id="Podium"><path d="M25.432,15.377l-1.217,7.462a1,1,0,0,0,1.471,1.036L32,20.385l6.314,3.49a1,1,0,0,0,1.471-1.036l-1.217-7.462L43.716,10.1a1,1,0,0,0-.565-1.687L36.078,7.334,32.905.575a1,1,0,0,0-1.81,0L27.922,7.334,20.849,8.415a1,1,0,0,0-.565,1.687Z" style="fill:#27272b"/><polygon points="29 24.32 29 30 35 30 35 24.33 32 22.67 29 24.32" style="fill:#27272b"/><path d="M60,62H56V48a1,1,0,0,0-1-1H43a1,1,0,0,0-1,1V62H39V33a1,1,0,0,0-1-1H26a1,1,0,0,0-1,1V62H22V40a1,1,0,0,0-1-1H9a1,1,0,0,0-1,1V62H4a1,1,0,0,0,0,2H60a1,1,0,0,0,0-2Z" style="fill:#27272b"/></g></svg>