<svg xmlns="http://www.w3.org/2000/svg" viewBox="0 0 64 64"><title>Artboard-7</title><g id="Discount"><circle cx="28" cy="28" r="1" style="fill:#27272b"/><circle cx="36" cy="36" r="1" style="fill:#27272b"/><circle cx="56" cy="6" r="3" style="fill:#27272b"/><circle cx="32" cy="6" r="3" style="fill:#27272b"/><circle cx="8" cy="6" r="3" style="fill:#27272b"/><path d="M57,48.069V47a2,2,0,0,0-2-2H33V43.949a11.99,11.99,0,0,0,0-23.9V19H55a2,2,0,0,0,2-2V15.93a8,8,0,1,0-2,0V17H33V15.93a8,8,0,1,0-2,0V17H9V15.93a8,8,0,1,0-2,0V17a2,2,0,0,0,2,2H31v1.051a11.99,11.99,0,0,0,0,23.9V45H9a2,2,0,0,0-2,2v1.069a8,8,0,1,0,2,0V47H31v1.069a8,8,0,1,0,2,0V47H55v1.069a8,8,0,1,0,2,0ZM50,8A6,6,0,0,1,62,8a5.934,5.934,0,0,1-1.21,3.6,7.97,7.97,0,0,0-9.58,0A5.934,5.934,0,0,1,50,8ZM26,8A6,6,0,0,1,38,8a5.934,5.934,0,0,1-1.21,3.6,7.97,7.97,0,0,0-9.58,0A5.934,5.934,0,0,1,26,8ZM2,8A6,6,0,0,1,14,8a5.934,5.934,0,0,1-1.21,3.6,7.97,7.97,0,0,0-9.58,0A5.934,5.934,0,0,1,2,8ZM39,36a3,3,0,1,1-3-3A3,3,0,0,1,39,36ZM25,28a3,3,0,1,1,3,3A3,3,0,0,1,25,28Zm2,10a1,1,0,0,1-.707-1.707l10-10a1,1,0,0,1,1.414,1.414l-10,10A1,1,0,0,1,27,38ZM14,56a5.934,5.934,0,0,1-1.21,3.6,7.97,7.97,0,0,0-9.58,0A5.934,5.934,0,0,1,2,56a6,6,0,0,1,12,0Zm24,0a5.934,5.934,0,0,1-1.21,3.6,7.97,7.97,0,0,0-9.58,0A5.934,5.934,0,0,1,26,56a6,6,0,0,1,12,0Zm22.79,3.6a7.97,7.97,0,0,0-9.58,0A5.934,5.934,0,0,1,50,56a6,6,0,0,1,12,0A5.934,5.934,0,0,1,60.79,59.6Z" style="fill:#27272b"/><circle cx="56" cy="54" r="3" style="fill:#27272b"/><circle cx="32" cy="54" r="3" style="fill:#27272b"/><circle cx="8" cy="54" r="3" style="fill:#27272b"/></g></svg>