<svg xmlns="http://www.w3.org/2000/svg" viewBox="0 0 64 64"><title>Artboard-28</title><g id="Brochure"><polygon points="38 24 44.58 24 38 17.42 38 24" style="fill:#27272b"/><circle cx="43" cy="12" r="1" style="fill:#27272b"/><path d="M38,14.58l4.5,4.5,4.79-4.79a1.008,1.008,0,0,1,1.42,0L55,20.58V8H34.85l2.77,2.22A1,1,0,0,1,38,11ZM43,9a3,3,0,1,1-3,3A3.009,3.009,0,0,1,43,9Z" style="fill:#27272b"/><polygon points="55 24 55 23.42 48 16.41 43.92 20.5 47.42 24 55 24" style="fill:#27272b"/><path d="M59,2H27.34c.37.31,4.63,3.7,5.01,4H56a1,1,0,0,1,1,1V25a1,1,0,0,1-1,1H38V54H59a1,1,0,0,0,1-1V3A1,1,0,0,0,59,2ZM56,50H51a1,1,0,0,1,0-2h5a1,1,0,0,1,0,2Zm0-4H51a1,1,0,0,1,0-2h5a1,1,0,0,1,0,2Zm0-4H47a1,1,0,0,1,0-2h9a1,1,0,0,1,0,2Zm0-4H47a1,1,0,0,1,0-2h9a1,1,0,0,1,0,2Zm0-4H47a1,1,0,0,1,0-2h9a1,1,0,0,1,0,2Zm0-4H42a1,1,0,0,1,0-2H56a1,1,0,0,1,0,2Z" style="fill:#27272b"/><path d="M26,3.47V10h8.15C32.929,9.023,27.184,4.43,26,3.47Z" style="fill:#27272b"/><path d="M20.838,26.246l-2.017-4.594L14.89,23.287l2.017,4.593Z" style="fill:#27272b"/><polygon points="16.789 30.096 16.789 30.097 16.788 30.097 16.743 30.116 18.822 32.784 20.209 32.207 18.13 29.539 16.789 30.096" style="fill:#27272b"/><path d="M14.862,28.707c.015,0,.028-.012.043-.016a1.18,1.18,0,0,0,.152-.051l-2.014-4.585-.014.006C10.112,25.273,11.871,29.644,14.862,28.707Z" style="fill:#27272b"/><path d="M4,13V61a1,1,0,0,0,1,1H36V12H5A1,1,0,0,0,4,13ZM32,59H30a1,1,0,0,1,0-2h2a1,1,0,0,1,0,2Zm0-4H30a1,1,0,0,1,0-2h2a1,1,0,0,1,0,2Zm0-4H30a1,1,0,0,1,0-2h2a1,1,0,0,1,0,2ZM30.472,25.7a1,1,0,0,1-1,.942l-.059,0L25.408,26.4a1,1,0,0,1,.116-2l4.008.234A1,1,0,0,1,30.472,25.7Zm-.54-5.948a1,1,0,0,1-.54,1.308l-4.953,2.059a1,1,0,0,1-.768-1.847l4.954-2.06A1,1,0,0,1,29.932,19.749Zm-8.041-1.427,2.6-2.979A1,1,0,0,1,26,16.657l-2.6,2.98a1,1,0,0,1-1.507-1.315Zm-9.63,3.892,5.756-2.394-.295-.672a1,1,0,1,1,1.831-.8c4.138,9.424-2.045-4.656,4.232,9.638a1,1,0,0,1-.514,1.319,1.016,1.016,0,0,1-.4.084,1,1,0,0,1-.916-.6l-.311-.708-1.6.664,2.548,3.27a1,1,0,0,1-.405,1.537l-3.3,1.374A.987.987,0,0,1,18.5,35a1,1,0,0,1-.789-.386l-2.992-3.839C9.5,31.491,7.463,24.208,12.261,22.214ZM7,38a1,1,0,0,1,1-1H32a1,1,0,0,1,1,1v4a1,1,0,0,1-1,1H8a1,1,0,0,1-1-1Zm1,7H32a1,1,0,0,1,0,2H8a1,1,0,0,1,0-2Zm0,4H27a1,1,0,0,1,0,2H8a1,1,0,0,1,0-2Zm0,4H27a1,1,0,0,1,0,2H8a1,1,0,0,1,0-2Zm0,4H27a1,1,0,0,1,0,2H8a1,1,0,0,1,0-2Z" style="fill:#27272b"/><rect x="9" y="39" width="22" height="2" style="fill:#27272b"/></g></svg>