<svg xmlns="http://www.w3.org/2000/svg" viewBox="0 0 64 64"><title>Artboard-13</title><g id="Funnel"><circle cx="32" cy="5" r="5" style="fill:#27272b"/><path d="M39.54,15.18A4.978,4.978,0,0,0,34.61,11H29.39a4.978,4.978,0,0,0-4.93,4.18l-.14.82H39.68Z" style="fill:#27272b"/><circle cx="49" cy="5" r="5" style="fill:#27272b"/><path d="M56.54,15.18A4.978,4.978,0,0,0,51.61,11H46.39a4.978,4.978,0,0,0-4.93,4.18l-.14.82H56.68Z" style="fill:#27272b"/><circle cx="15" cy="5" r="5" style="fill:#27272b"/><path d="M22.54,15.18A4.978,4.978,0,0,0,17.61,11H12.39a4.978,4.978,0,0,0-4.93,4.18L7.32,16H22.68Z" style="fill:#27272b"/><rect x="5" y="18" width="54" height="6" rx="1" ry="1" style="fill:#27272b"/><path d="M55,46a9.01,9.01,0,0,0-8.941,8H33V45.678l4.37-1.748A1,1,0,0,0,38,43V36.51L52.56,26H11.44L26,36.51V47a1,1,0,0,0,.44.83A1.023,1.023,0,0,0,27,48a.937.937,0,0,0,.37-.07L31,46.478V54H17.941a9,9,0,1,0,0,2H46.059A9,9,0,1,0,55,46ZM12,53a1,1,0,0,1-2,0v-.146A.855.855,0,0,0,9.146,52H8.854a.854.854,0,0,0-.381,1.619l1.949.974A2.844,2.844,0,0,1,10,59.855V60a1,1,0,0,1-2,0v-.145a2.849,2.849,0,0,1-2-2.709V57a1,1,0,0,1,2,0v.146A.855.855,0,0,0,8.854,58h.292a.854.854,0,0,0,.381-1.619l-1.949-.974A2.844,2.844,0,0,1,8,50.145V50a1,1,0,0,1,2,0v.145a2.849,2.849,0,0,1,2,2.709Zm46,0a1,1,0,0,1-2,0v-.146A.855.855,0,0,0,55.146,52h-.292a.854.854,0,0,0-.381,1.618l1.949.975A2.844,2.844,0,0,1,56,59.855V60a1,1,0,0,1-2,0v-.145a2.849,2.849,0,0,1-2-2.709V57a1,1,0,0,1,2,0v.146a.855.855,0,0,0,.854.854h.292a.854.854,0,0,0,.381-1.618l-1.949-.975A2.844,2.844,0,0,1,54,50.145V50a1,1,0,0,1,2,0v.145a2.849,2.849,0,0,1,2,2.709Z" style="fill:#27272b"/></g></svg>