<svg xmlns="http://www.w3.org/2000/svg" viewBox="0 0 64 64"><title>Artboard-1</title><g id="Smartphone_Browser" data-name="Smartphone Browser"><path d="M27.438,36.562a14.706,14.706,0,0,1-3.795-1.239,9.04,9.04,0,0,0,5.034,5.034A14.706,14.706,0,0,1,27.438,36.562Z" style="fill:#27272b"/><path d="M32,37c-.822,0-1.651-.047-2.467-.129C30.153,39.475,31.2,41,32,41s1.847-1.525,2.467-4.129C33.651,36.953,32.822,37,32,37Z" style="fill:#27272b"/><path d="M27.438,27.438a14.706,14.706,0,0,1,1.239-3.795,9.04,9.04,0,0,0-5.034,5.034A14.706,14.706,0,0,1,27.438,27.438Z" style="fill:#27272b"/><path d="M27,32c0-.822.047-1.651.129-2.467C24.525,30.153,23,31.2,23,32s1.525,1.847,4.129,2.467C27.047,33.651,27,32.822,27,32Z" style="fill:#27272b"/><path d="M29.168,29.168a23.954,23.954,0,0,0,0,5.664,23.954,23.954,0,0,0,5.664,0,23.954,23.954,0,0,0,0-5.664,23.954,23.954,0,0,0-5.664,0Z" style="fill:#27272b"/><path d="M29.533,27.129C30.349,27.047,31.178,27,32,27s1.651.047,2.467.129C33.847,24.525,32.805,23,32,23S30.153,24.525,29.533,27.129Z" style="fill:#27272b"/><path d="M37,32c0,.822-.047,1.651-.129,2.467C39.475,33.847,41,32.805,41,32s-1.525-1.847-4.129-2.467C36.953,30.349,37,31.178,37,32Z" style="fill:#27272b"/><path d="M36.562,36.562a14.706,14.706,0,0,1-1.239,3.8,9.04,9.04,0,0,0,5.034-5.034A14.706,14.706,0,0,1,36.562,36.562Z" style="fill:#27272b"/><path d="M32,8a4.009,4.009,0,0,1-3.874-3H18V59H46V5H35.874A4.009,4.009,0,0,1,32,8Zm1,49H31a1,1,0,0,1,0-2h2a1,1,0,0,1,0,2ZM43,32A11,11,0,1,1,32,21,11.013,11.013,0,0,1,43,32Z" style="fill:#27272b"/><path d="M47,0H17a4,4,0,0,0-4,4V60a4,4,0,0,0,4,4H47a4,4,0,0,0,4-4V4A4,4,0,0,0,47,0ZM32,3a1,1,0,1,1-1,1A1,1,0,0,1,32,3ZM48,60a1,1,0,0,1-1,1H17a1,1,0,0,1-1-1V4a1,1,0,0,1,1-1H29a1,1,0,0,1,1,1,2,2,0,0,0,4,0,1,1,0,0,1,1-1H47a1,1,0,0,1,1,1Z" style="fill:#27272b"/><path d="M36.562,27.438a14.706,14.706,0,0,1,3.8,1.239,9.04,9.04,0,0,0-5.034-5.034A14.706,14.706,0,0,1,36.562,27.438Z" style="fill:#27272b"/></g></svg>