<svg xmlns="http://www.w3.org/2000/svg" viewBox="0 0 64 64"><title>Artboard-24</title><g id="Presentation"><path d="M58,12H47.574L35.83,5.089A3.928,3.928,0,0,0,36,4a4,4,0,0,0-8,0,3.928,3.928,0,0,0,.17,1.089L16.426,12H6a1,1,0,0,0-1,1v3a1,1,0,0,0,1,1H58a1,1,0,0,0,1-1V13A1,1,0,0,0,58,12ZM29.169,6.822a3.991,3.991,0,0,0,5.662,0L43.63,12H20.37Z" style="fill:#27272b"/><polygon points="20.719 37 19.719 33 17.781 33 18.781 37 20.719 37" style="fill:#27272b"/><path d="M42,37a5.008,5.008,0,0,0,4.9-4H42a1,1,0,0,1-1-1V27.1A5,5,0,0,0,42,37Z" style="fill:#27272b"/><path d="M17,31V25a3,3,0,0,0,0,6Z" style="fill:#27272b"/><path d="M24,31V25H19v6Z" style="fill:#27272b"/><path d="M8,49a1,1,0,0,0,1,1H31v6.142a4,4,0,1,0,2,0V50H55a1,1,0,0,0,1-1V19H8ZM44,23a1,1,0,0,1,1-1,7.008,7.008,0,0,1,7,7,1,1,0,0,1-1,1H45a1,1,0,0,1-1-1Zm-2,2a1,1,0,0,1,1,1v5h5a1,1,0,0,1,1,1,7,7,0,1,1-7-7Zm-14.45-.89,4-2a1,1,0,1,1,.9,1.78l-4,2a1,1,0,0,1-.9-1.78ZM28,27h4a1,1,0,0,1,0,2H28a1,1,0,0,1,0-2Zm4.89,6.45a.989.989,0,0,1-1.34.44l-4-2a1,1,0,0,1,.9-1.78l4,2A.993.993,0,0,1,32.89,33.45ZM17,23h7V22a1,1,0,0,1,2,0V34a1,1,0,0,1-2,0V33H21.78l1.19,4.76a1.022,1.022,0,0,1-.18.86A1,1,0,0,1,22,39H18a1,1,0,0,1-.97-.76L15.67,32.8A4.989,4.989,0,0,1,17,23ZM13,41H51a1,1,0,0,1,0,2H13a1,1,0,0,1,0-2Zm0,4H51a1,1,0,0,1,0,2H13a1,1,0,0,1,0-2Z" style="fill:#27272b"/><path d="M46,24.1V28h3.9A5.013,5.013,0,0,0,46,24.1Z" style="fill:#27272b"/></g></svg>