<svg xmlns="http://www.w3.org/2000/svg" viewBox="0 0 64 64"><title>Artboard-23</title><g id="Like"><circle cx="8" cy="31" r="1" style="fill:#27272b"/><path d="M12,24H4a1,1,0,0,0-1,1V59a1,1,0,0,0,1,1h8a1,1,0,0,0,1-1V25A1,1,0,0,0,12,24ZM8,34a3,3,0,1,1,3-3A3,3,0,0,1,8,34Z" style="fill:#27272b"/><path d="M48,36H58a4,4,0,0,0,0-8H37.38A38.5,38.5,0,0,0,45.76,7.59a4.886,4.886,0,0,0,.03-.54,5.1,5.1,0,0,0-1.3-3.4A5,5,0,0,0,35.8,6.48c-.88,7.42-4.6,13.94-11.05,19.37A9.056,9.056,0,0,1,18.91,28H15V57h3.8a5.613,5.613,0,0,1,4.46,2.18A7.788,7.788,0,0,0,29.44,62H49a4.946,4.946,0,0,0,2.62-.88A2.722,2.722,0,0,0,53,59c0-1.66-2.34-3-4-3H42a1,1,0,0,1,0-2H52.5A3.517,3.517,0,0,0,56,50.5,3.5,3.5,0,0,0,52.5,47H45a1,1,0,0,1,0-2H55.5A3.517,3.517,0,0,0,59,41.5,3.5,3.5,0,0,0,55.5,38H48a1,1,0,0,1,0-2Z" style="fill:#27272b"/></g></svg>