<svg xmlns="http://www.w3.org/2000/svg" viewBox="0 0 64 64"><title>Artboard-14</title><g id="Magnet_User" data-name="Magnet User"><path d="M50,1A12.975,12.975,0,0,0,39.614,21.785a13.708,13.708,0,0,1,20.04-.829c.261.264.5.541.738.822A12.976,12.976,0,0,0,50,1Zm0,14a5,5,0,1,1,5-5A5.006,5.006,0,0,1,50,15Z" style="fill:#27272b"/><circle cx="50" cy="10" r="3" style="fill:#27272b"/><path d="M50,19a11.524,11.524,0,0,0-9.055,4.309,12.953,12.953,0,0,0,18.111,0,10.94,10.94,0,0,0-.824-.946A11.461,11.461,0,0,0,50,19Z" style="fill:#27272b"/><path d="M47.293,36.293l-4,4a1,1,0,1,0,1.414,1.414l4-4a1,1,0,0,0-1.414-1.414Z" style="fill:#27272b"/><path d="M47.793,29.793l-7.5,7.5a1,1,0,1,0,1.414,1.414l7.5-7.5a1,1,0,0,0-1.414-1.414Z" style="fill:#27272b"/><path d="M38.707,35.707l4-4a1,1,0,0,0-1.414-1.414l-4,4a1,1,0,1,0,1.414,1.414Z" style="fill:#27272b"/><path d="M23,21a1,1,0,0,0,.707-.293l4-4a1,1,0,0,0-1.414-1.414l-4,4A1,1,0,0,0,23,21Z" style="fill:#27272b"/><path d="M25.293,23.707a1,1,0,0,0,1.414,0l7.5-7.5a1,1,0,0,0-1.414-1.414l-7.5,7.5A1,1,0,0,0,25.293,23.707Z" style="fill:#27272b"/><path d="M32.293,21.293l-4,4a1,1,0,1,0,1.414,1.414l4-4a1,1,0,0,0-1.414-1.414Z" style="fill:#27272b"/><path d="M35.707,37.293a1.029,1.029,0,0,0-1.414,0L31,40.586,38.414,48l3.293-3.293a1,1,0,0,0,0-1.414Z" style="fill:#27272b"/><path d="M20.643,50.944a5.364,5.364,0,0,1-7.586-7.586L22,34.414,14.586,27,5.643,35.944A15.849,15.849,0,0,0,28.057,58.358L37,49.414,29.586,42Z" style="fill:#27272b"/><path d="M26.707,29.707a1,1,0,0,0,0-1.414l-6-6a1.029,1.029,0,0,0-1.414,0L16,25.586,23.414,33Z" style="fill:#27272b"/></g></svg>