<svg xmlns="http://www.w3.org/2000/svg" viewBox="0 0 64 64"><title>Artboard-38</title><g id="Laptop-2" data-name="Laptop"><path d="M13,49H51a1,1,0,0,0,1-1V47H12v1A1,1,0,0,0,13,49Z" style="fill:#27272b"/><path d="M62,47H54v1a3.009,3.009,0,0,1-3,3H13a3.009,3.009,0,0,1-3-3V47H2a2.006,2.006,0,0,0-2,2v1a5,5,0,0,0,5,5H59a5,5,0,0,0,5-5V49A2.006,2.006,0,0,0,62,47Z" style="fill:#27272b"/><path d="M32,17a4.008,4.008,0,0,1-3.874-3H12V40H52V14H35.873A4.005,4.005,0,0,1,32,17Zm3.272,14.3a1,1,0,0,1-1.318-.514l-.311-.709-1.6.665,2.549,3.27a1,1,0,0,1-.406,1.538l-3.3,1.373a1,1,0,0,1-1.172-.31l-2.992-3.839a4.618,4.618,0,0,1-.617.06,4.5,4.5,0,0,1-4.133-2.659l-.08-.182a4.358,4.358,0,0,1,2.369-5.78l.9-.374h0l4.853-2.018-.295-.672a1,1,0,1,1,1.831-.8l4.233,9.638A1,1,0,0,1,35.272,31.3Zm7.2-3.6a1,1,0,0,1-1,.942l-.06,0L37.407,28.4a1,1,0,0,1,.117-2l4.008.234A1,1,0,0,1,42.472,27.7Zm-.541-5.948a1,1,0,0,1-.539,1.307l-4.953,2.059a1,1,0,0,1-.767-1.845l4.952-2.06A1,1,0,0,1,41.931,21.749Zm-4.033-4.5a1,1,0,0,1,.1,1.411l-2.6,2.98a1,1,0,1,1-1.507-1.315l2.6-2.979A1,1,0,0,1,37.9,17.246Z" style="fill:#27272b"/><polygon points="28.789 32.096 28.789 32.097 28.788 32.097 28.743 32.116 30.823 34.784 32.209 34.207 30.13 31.539 28.789 32.096" style="fill:#27272b"/><path d="M25.029,26.061a2.359,2.359,0,0,0-1.3,3.129l.08.183a2.51,2.51,0,0,0,3.059,1.334c.014,0,.027-.012.042-.016a1.18,1.18,0,0,0,.152-.051l-2.014-4.585Z" style="fill:#27272b"/><path d="M30.821,23.652,26.89,25.287l2.017,4.593,3.931-1.634C32.4,27.249,31.284,24.707,30.821,23.652Z" style="fill:#27272b"/><path d="M58,14a5,5,0,0,0-5-5H11a5,5,0,0,0-5,5V45H58ZM32,12a1,1,0,1,1-1,1A1,1,0,0,1,32,12ZM54,41a1,1,0,0,1-1,1H11a1,1,0,0,1-1-1V13a1,1,0,0,1,1-1H29a1,1,0,0,1,1,1,2,2,0,0,0,4,0,1,1,0,0,1,1-1H53a1,1,0,0,1,1,1Z" style="fill:#27272b"/></g></svg>