<svg xmlns="http://www.w3.org/2000/svg" viewBox="0 0 64 64"><title>Artboard-35</title><g id="Trophy"><rect x="12" width="40" height="7" rx="1" ry="1" style="fill:#27272b"/><path d="M36,56H28a7.009,7.009,0,0,0-7,7,1,1,0,0,0,1,1H42a1,1,0,0,0,1-1A7.009,7.009,0,0,0,36,56Z" style="fill:#27272b"/><path d="M36,54a8.262,8.262,0,0,1,1,.06V43.29a17.961,17.961,0,0,1-10,0V54.06A8.262,8.262,0,0,1,28,54Z" style="fill:#27272b"/><circle cx="36" cy="27" r="1" style="fill:#27272b"/><circle cx="28" cy="19" r="1" style="fill:#27272b"/><path d="M48,9H16V26a16,16,0,0,0,32,0ZM25,19a3,3,0,1,1,3,3A3.009,3.009,0,0,1,25,19Zm2.71,9.71a1.014,1.014,0,0,1-1.42,0,1.008,1.008,0,0,1,0-1.42l10-10a1,1,0,0,1,1.42,1.42ZM36,30a3,3,0,1,1,3-3A3.009,3.009,0,0,1,36,30Z" style="fill:#27272b"/><path d="M53,11H50v6h2V28.83a1,1,0,0,1-.77.98l-1.74.41a17.761,17.761,0,0,1-3.4,6.96l6.51-1.54A6.958,6.958,0,0,0,58,28.83V16A5,5,0,0,0,53,11Z" style="fill:#27272b"/><path d="M12.76,29.81a1,1,0,0,1-.76-.98V17h2V11H11a5,5,0,0,0-5,5V28.83a6.958,6.958,0,0,0,5.4,6.81l6.51,1.54a17.761,17.761,0,0,1-3.4-6.96Z" style="fill:#27272b"/></g></svg>