<svg xmlns="http://www.w3.org/2000/svg" viewBox="0 0 64 64"><title>Artboard-20</title><g id="Target"><circle cx="27" cy="27" r="4" style="fill:#27272b"/><circle cx="37" cy="37" r="4" style="fill:#27272b"/><path d="M39.707,24.293a1,1,0,0,0-1.414,0l-14,14a1,1,0,1,0,1.414,1.414l14-14A1,1,0,0,0,39.707,24.293Z" style="fill:#27272b"/><path d="M63,29H57.82A26.144,26.144,0,0,0,35,6.18V1a1,1,0,0,0-1-1H30a1,1,0,0,0-1,1V6.18A26.144,26.144,0,0,0,6.18,29H1a1,1,0,0,0-1,1v4a1,1,0,0,0,1,1H6.18A26.144,26.144,0,0,0,29,57.82V63a1,1,0,0,0,1,1h4a1,1,0,0,0,1-1V57.82A26.144,26.144,0,0,0,57.82,35H63a1,1,0,0,0,1-1V30A1,1,0,0,0,63,29ZM47,35h4.77A19.964,19.964,0,0,1,35,51.77V47a1,1,0,0,0-1-1H30a1,1,0,0,0-1,1v4.77A19.964,19.964,0,0,1,12.23,35H17a1,1,0,0,0,1-1V30a1,1,0,0,0-1-1H12.23A19.964,19.964,0,0,1,29,12.23V17a1,1,0,0,0,1,1h4a1,1,0,0,0,1-1V12.23A19.964,19.964,0,0,1,51.77,29H47a1,1,0,0,0-1,1v4A1,1,0,0,0,47,35Z" style="fill:#27272b"/></g></svg>