<svg xmlns="http://www.w3.org/2000/svg" viewBox="0 0 64 64"><title>Artboard-18</title><g id="Gift_hand" data-name="Gift hand"><path d="M62.15,43.18a4.407,4.407,0,0,0-4.02-.61L41.99,47.95a6.54,6.54,0,0,1-11.14,4.14l-7.97-7.97a1,1,0,0,1,1.41-1.41l7.98,7.97a4.551,4.551,0,0,0,6.41,0,4.45,4.45,0,0,0,1.17-2.02,4.273,4.273,0,0,0,.16-1.19,4.468,4.468,0,0,0-1.33-3.2L27.25,32.83A9.606,9.606,0,0,0,20.41,30H14V52h2.37a5.05,5.05,0,0,1,3.68,1.61l5.62,6.09a10.209,10.209,0,0,0,11.89,2.33L61.43,50.84A4.483,4.483,0,0,0,64,46.8,4.41,4.41,0,0,0,62.15,43.18Z" style="fill:#27272b"/><circle cx="6" cy="33.999" r="1" style="fill:#27272b"/><path d="M11,27H1a1,1,0,0,0-1,1V54a1,1,0,0,0,1,1H11a1,1,0,0,0,1-1V28A1,1,0,0,0,11,27ZM6,37a3,3,0,1,1,3-3A3,3,0,0,1,6,37Z" style="fill:#27272b"/><path d="M16,19H28V11h2v8H46V11h2v8H60a1,1,0,0,0,1-1V10a1,1,0,0,0-1-1H52.037A5.291,5.291,0,0,0,53,5.955c0-2.868-1.594-4.712-4.263-4.933C45.125.721,40.158,3.47,38,7.191,35.84,3.468,30.867.717,27.262,1.022,24.593,1.243,23,3.087,23,5.955A5.291,5.291,0,0,0,23.963,9H16a1,1,0,0,0-1,1v8A1,1,0,0,0,16,19ZM48.572,3.016C50.206,3.151,51,4.112,51,5.955A2.865,2.865,0,0,1,48.369,9H39.324C40.722,5.6,45.459,2.747,48.572,3.016ZM25,5.955c0-1.843.794-2.8,2.427-2.939.132-.012.266-.017.4-.017,3.1,0,7.508,2.745,8.845,6H27.631A2.864,2.864,0,0,1,25,5.955Z" style="fill:#27272b"/><path d="M18,28h2.41a11.555,11.555,0,0,1,8.25,3.42L31,33.76V21H18Z" style="fill:#27272b"/><path d="M40.09,42.85a6.45,6.45,0,0,1,1.73,3.05L43,45.51V21H33V35.76Z" style="fill:#27272b"/><path d="M45,44.84l12.5-4.17c.16-.05.33-.1.5-.15V21H45Z" style="fill:#27272b"/></g></svg>