<svg xmlns="http://www.w3.org/2000/svg" viewBox="0 0 64 64"><title>Artboard-33</title><g id="Search"><path d="M20,7A12.976,12.976,0,0,0,8.433,25.9,23.609,23.609,0,0,1,20,23a23.609,23.609,0,0,1,11.567,2.9A12.976,12.976,0,0,0,20,7Zm0,14a6,6,0,1,1,6-6A6.006,6.006,0,0,1,20,21Z" style="fill:#27272b"/><circle cx="20" cy="15" r="4" style="fill:#27272b"/><path d="M9.481,27.607a12.955,12.955,0,0,0,21.038,0A21.612,21.612,0,0,0,20,25,21.612,21.612,0,0,0,9.481,27.607Z" style="fill:#27272b"/><path d="M39,20A19,19,0,1,0,20,39,19.021,19.021,0,0,0,39,20ZM20,35A15,15,0,1,1,35,20,15.051,15.051,0,0,1,20,35Z" style="fill:#27272b"/><path d="M43.71,32.29l-4.3-4.3A21.029,21.029,0,0,1,27.99,39.41l4.3,4.3a1.014,1.014,0,0,0,1.42,0l10-10A1.008,1.008,0,0,0,43.71,32.29Z" style="fill:#27272b"/><path d="M61.46,54.05,43.83,36.41l-7.42,7.42L54.05,61.46a5.24,5.24,0,0,0,7.41-7.41Z" style="fill:#27272b"/></g></svg>