<svg xmlns="http://www.w3.org/2000/svg" viewBox="0 0 64 64"><title>Artboard-8</title><g id="Chain"><path d="M59.06,4.94a13.423,13.423,0,0,0-19,0l-6.12,6.12c-4.26,4.26-5.72,11.34-3.3,16.65l2.93-2.93a9.432,9.432,0,0,1,2.19-9.89l7.13-7.13A9.44,9.44,0,0,1,56.24,21.11l-7.13,7.13a9.486,9.486,0,0,1-9.9,2.2l-3.02,3.02a13.434,13.434,0,0,0,15.75-2.4l7.12-7.12A13.429,13.429,0,0,0,59.06,4.94Z" style="fill:#27272b"/><path d="M33.46,36.19l-3.02,3.02a9.486,9.486,0,0,1-2.2,9.9l-7.13,7.13A9.44,9.44,0,0,1,7.76,42.89l7.13-7.13a9.432,9.432,0,0,1,9.89-2.19l2.93-2.93c-5.31-2.42-12.39-.96-16.65,3.3L4.94,40.06a13.435,13.435,0,0,0,19,19l7.12-7.12a13.434,13.434,0,0,0,2.4-15.75Z" style="fill:#27272b"/><rect x="16.444" y="30" width="31.113" height="4" rx="2" ry="2" transform="translate(-13.255 32) rotate(-45)" style="fill:#27272b"/></g></svg>