<svg xmlns="http://www.w3.org/2000/svg" viewBox="0 0 64 64"><title>Artboard-15</title><g id="Pie_Diagram" data-name="Pie Diagram"><circle cx="24" cy="30" r="4" style="fill:#27272b"/><circle cx="34" cy="40" r="4" style="fill:#27272b"/><path d="M35.293,27.293l-14,14a1,1,0,1,0,1.414,1.414l14-14a1,1,0,0,0-1.414-1.414Z" style="fill:#27272b"/><path d="M35,1a1,1,0,0,0-1,1v8a1,1,0,0,0,1,1A18.021,18.021,0,0,1,53,29a1,1,0,0,0,1,1h8a1,1,0,0,0,1-1A28.032,28.032,0,0,0,35,1Z" style="fill:#27272b"/><path d="M11.051,36H1.025A28.027,28.027,0,0,0,28,62.975V52.949A17.994,17.994,0,0,1,11.051,36Z" style="fill:#27272b"/><path d="M29,17a1,1,0,0,0,1-1V8a1,1,0,0,0-1-1A28.03,28.03,0,0,0,1.025,34H11.051A18.007,18.007,0,0,1,29,17Z" style="fill:#27272b"/><path d="M56,34H48a1,1,0,0,0-1,1A18.006,18.006,0,0,1,30,52.949V62.975A28.03,28.03,0,0,0,57,35,1,1,0,0,0,56,34Z" style="fill:#27272b"/></g></svg>