<svg xmlns="http://www.w3.org/2000/svg" viewBox="0 0 64 64"><title>Artboard-2</title><g id="Collaboration"><path d="M54,33c0,.48-.02.96-.048,1.44a1,1,0,0,0,.939,1.058c.02,0,.04,0,.06,0a1,1,0,0,0,1-.94c.031-.52.052-1.04.052-1.56a24,24,0,0,0-7.494-17.4,1,1,0,1,0-1.372,1.455A22,22,0,0,1,54,33Z" style="fill:#27272b"/><path d="M9.049,35.5c.02,0,.04,0,.06,0a1,1,0,0,0,.939-1.058C10.02,33.96,10,33.48,10,33a22,22,0,0,1,6.866-15.942A1,1,0,1,0,15.494,15.6,24,24,0,0,0,8,33c0,.52.021,1.04.052,1.56A1,1,0,0,0,9.049,35.5Z" style="fill:#27272b"/><path d="M35.857,54.665a22.5,22.5,0,0,1-7.714,0,1,1,0,0,0-.346,1.97,24.381,24.381,0,0,0,8.406,0,1,1,0,1,0-.346-1.97Z" style="fill:#27272b"/><path d="M32,27A13,13,0,1,0,19,14,13.013,13.013,0,0,0,32,27ZM32,3A11.007,11.007,0,0,1,43,14a10.888,10.888,0,0,1-1.89,6.16A14.177,14.177,0,0,0,32,17a14.177,14.177,0,0,0-9.11,3.16A10.888,10.888,0,0,1,21,14,11.007,11.007,0,0,1,32,3Z" style="fill:#27272b"/><circle cx="32" cy="10" r="5" style="fill:#27272b"/><path d="M51,37A13,13,0,1,0,64,50,13.012,13.012,0,0,0,51,37Zm9.11,19.16a14.712,14.712,0,0,0-18.22,0A10.888,10.888,0,0,1,40,50a11,11,0,0,1,22,0A10.888,10.888,0,0,1,60.11,56.16Z" style="fill:#27272b"/><circle cx="51" cy="46" r="5" style="fill:#27272b"/><path d="M13,37A13,13,0,1,0,26,50,13.012,13.012,0,0,0,13,37Zm9.11,19.16A14.177,14.177,0,0,0,13,53a14.177,14.177,0,0,0-9.11,3.16A10.888,10.888,0,0,1,2,50a11,11,0,0,1,22,0A10.888,10.888,0,0,1,22.11,56.16Z" style="fill:#27272b"/><circle cx="13" cy="46" r="5" style="fill:#27272b"/></g></svg>