<svg xmlns="http://www.w3.org/2000/svg" viewBox="0 0 64 64"><title>Artboard-34</title><g id="Head"><circle cx="43" cy="26" r="1" style="fill:#27272b"/><path d="M39,10A12,12,0,1,0,51,22,12.013,12.013,0,0,0,39,10Zm-7,8a3,3,0,1,1,3,3A3,3,0,0,1,32,18Zm2.707,9.707a1,1,0,0,1-1.414-1.414l10-10a1,1,0,0,1,1.414,1.414ZM43,29a3,3,0,1,1,3-3A3,3,0,0,1,43,29Z" style="fill:#27272b"/><path d="M52.847,7.153A20.865,20.865,0,0,0,38,1H35A24.086,24.086,0,0,0,17.513,8.564,23.773,23.773,0,0,0,11.05,26.47v1.6l-5.9,9.4A1,1,0,0,0,6,39h5.05v7.68A5.327,5.327,0,0,0,16.37,52a30.188,30.188,0,0,0,8.4-1.22,29.6,29.6,0,0,0,7.65-3.56.988.988,0,0,1,1.38.28,1,1,0,0,1-.29,1.39,31.016,31.016,0,0,1-8.17,3.8,29.234,29.234,0,0,1-4.34.96V62a1,1,0,0,0,1,1,.991.991,0,0,0,.371-.071l30-12A1,1,0,0,0,53,50V39.35a31.715,31.715,0,0,1-6.67,4.34,1.049,1.049,0,0,1-.45.1,1,1,0,0,1-.44-1.89A28,28,0,0,0,53,36.62V36.6A20.055,20.055,0,0,0,59,22,20.865,20.865,0,0,0,52.847,7.153ZM39,36A14,14,0,1,1,53,22,14.015,14.015,0,0,1,39,36Z" style="fill:#27272b"/><circle cx="35" cy="18" r="1" style="fill:#27272b"/></g></svg>