<svg xmlns="http://www.w3.org/2000/svg" viewBox="0 0 64 64"><title>Artboard-32</title><g id="Smartphone"><rect x="22" y="41" width="6" height="2" style="fill:#27272b"/><rect x="22" y="49" width="6" height="2" style="fill:#27272b"/><rect x="22" y="33" width="20" height="2" style="fill:#27272b"/><polygon points="28.789 24.097 28.788 24.097 28.743 24.116 30.822 26.784 32.209 26.207 30.13 23.539 28.789 24.096 28.789 24.097" style="fill:#27272b"/><polygon points="26.89 17.287 28.907 21.88 30.066 21.398 30.068 21.398 32.838 20.246 31.629 17.492 30.821 15.652 26.89 17.287" style="fill:#27272b"/><path d="M23.8,21.373a2.509,2.509,0,0,0,3.059,1.333c.015,0,.027-.011.042-.015a1.18,1.18,0,0,0,.152-.051l-2.014-4.585-.014.006A2.422,2.422,0,0,0,23.694,19.4a2.3,2.3,0,0,0,.03,1.793Z" style="fill:#27272b"/><path d="M47,0H17a4,4,0,0,0-4,4V60a4,4,0,0,0,4,4H47a4,4,0,0,0,4-4V4A4,4,0,0,0,47,0ZM32,3a1,1,0,1,1-1,1A1,1,0,0,1,32,3ZM48,60a1,1,0,0,1-1,1H17a1,1,0,0,1-1-1V4a1,1,0,0,1,1-1H29a1,1,0,0,1,1,1,2,2,0,0,0,4,0,1,1,0,0,1,1-1H47a1,1,0,0,1,1,1Z" style="fill:#27272b"/><path d="M32,8a4.008,4.008,0,0,1-3.874-3H18V59H46V5H35.874A4.008,4.008,0,0,1,32,8ZM21.837,18.653a4.413,4.413,0,0,1,2.424-2.439l.9-.374h0l4.853-2.018-.295-.672a1,1,0,1,1,1.831-.8c4.138,9.424-2.045-4.656,4.232,9.638a1,1,0,0,1-.514,1.319,1.016,1.016,0,0,1-.4.084,1,1,0,0,1-.916-.6l-.311-.708-1.6.664,2.548,3.27a1,1,0,0,1-.405,1.537l-3.3,1.374A.987.987,0,0,1,30.5,29a1,1,0,0,1-.789-.386l-2.992-3.839a4.618,4.618,0,0,1-.617.06,4.5,4.5,0,0,1-4.133-2.659l-.08-.182A4.286,4.286,0,0,1,21.837,18.653ZM20,40a1,1,0,0,1,1-1h8a1,1,0,0,1,1,1v4a1,1,0,0,1-1,1H21a1,1,0,0,1-1-1Zm9,13H21a1,1,0,0,1-1-1V48a1,1,0,0,1,1-1h8a1,1,0,0,1,1,1v4A1,1,0,0,1,29,53Zm4,4H31a1,1,0,0,1,0-2h2a1,1,0,0,1,0,2Zm5-4H33a1,1,0,0,1,0-2h5a1,1,0,0,1,0,2Zm5-4H33a1,1,0,0,1,0-2H43a1,1,0,0,1,0,2ZM32,44a1,1,0,0,1,1-1h5a1,1,0,0,1,0,2H33A1,1,0,0,1,32,44Zm11-3H33a1,1,0,0,1,0-2H43a1,1,0,0,1,0,2Zm1-9v4a1,1,0,0,1-1,1H21a1,1,0,0,1-1-1V32a1,1,0,0,1,1-1H43A1,1,0,0,1,44,32ZM42.472,19.7a1,1,0,0,1-1,.942l-.059,0L37.408,20.4a1,1,0,1,1,.116-2l4.008.234A1,1,0,0,1,42.472,19.7Zm-.54-5.948a1,1,0,0,1-.54,1.308l-4.953,2.059a1,1,0,0,1-.768-1.847l4.954-2.06A1,1,0,0,1,41.932,13.749ZM37.9,9.246a1,1,0,0,1,.1,1.411l-2.6,2.98a1,1,0,0,1-1.507-1.315l2.6-2.979A1,1,0,0,1,37.9,9.246Z" style="fill:#27272b"/></g></svg>