<svg xmlns="http://www.w3.org/2000/svg" viewBox="0 0 64 64"><title>Artboard-4</title><g id="Megaphone"><path d="M34.87,39.8l-4.31,3.51c1.98,1.66,4.7,3.56,6.8,3.56a2.537,2.537,0,0,0,1.67-.56c1.99-1.62.61-5.77-1.73-9.81A7.97,7.97,0,0,1,34.87,39.8Z" style="fill:#27272b"/><path d="M24.42,26.96a8.184,8.184,0,0,1,3.73-1.73c-3.48-3.11-7.26-5.3-9.25-3.67-2.08,1.7-.36,5.96,1.23,8.91Z" style="fill:#27272b"/><circle cx="45" cy="11" r="1" style="fill:#27272b"/><circle cx="53" cy="19" r="1" style="fill:#27272b"/><path d="M49,1A14.015,14.015,0,0,0,35,15a13.837,13.837,0,0,0,1.316,5.9L36,26.948a1,1,0,0,0,.292.759.983.983,0,0,0,.759.292l6.05-.315A13.842,13.842,0,0,0,49,29,14,14,0,0,0,49,1ZM42,11a3,3,0,1,1,3,3A3,3,0,0,1,42,11Zm2.707,9.707a1,1,0,0,1-1.414-1.414l10-10a1,1,0,0,1,1.414,1.414ZM53,22a3,3,0,1,1,3-3A3,3,0,0,1,53,22Z" style="fill:#27272b"/><path d="M21.8,31.69l-.66.54.47.75a49.07,49.07,0,0,0,3.18,4.37,49.157,49.157,0,0,0,3.62,4c.17.17.39.38.64.62l.69-.56,3.87-3.16a6.283,6.283,0,0,0-3.33-11.12.915.915,0,0,0-.16-.01,6.158,6.158,0,0,0-4.43,1.39Z" style="fill:#27272b"/><path d="M3,55.15a8.834,8.834,0,0,0,6,3.24c.31.03.62.05.92.05a8.78,8.78,0,0,0,4.7-1.36L3.46,43.36A8.939,8.939,0,0,0,3,55.15Z" style="fill:#27272b"/><path d="M26.89,42.65a.812.812,0,0,1-.09-.1,45.621,45.621,0,0,1-3.56-3.94A49.992,49.992,0,0,1,20,34.16a.607.607,0,0,1-.07-.1c-1.68-2.6-3.84-6.57-3.96-9.87-4.08,4.12-6.71,9.04-8.54,15.83L4.96,42.04,16.21,55.87l2.48-2.02c6.99-.42,12.33-2.01,17.16-5.18-3.27-.81-6.83-3.92-8.84-5.9Z" style="fill:#27272b"/><path d="M33.91,56.66l-4.85-2.58a41.077,41.077,0,0,1-9.6,1.72l-2.07,1.69,10.13,5.39a1,1,0,0,0,.47.12.978.978,0,0,0,.63-.23l5.45-4.45a1.008,1.008,0,0,0-.16-1.66Z" style="fill:#27272b"/></g></svg>