<svg xmlns="http://www.w3.org/2000/svg" viewBox="0 0 64 64"><title>Artboard-12</title><g id="Play_monitor" data-name="Play monitor"><polygon points="31 35.77 31 38.23 33.06 37 31 35.77" style="fill:#27272b"/><path d="M47,26H35v3.59a8,8,0,1,1-6,0V26H17a5,5,0,0,0-5,5V48H52V31A5,5,0,0,0,47,26Z" style="fill:#27272b"/><path d="M12,51a5,5,0,0,0,5,5h7.523l-1.2,3H21a2,2,0,0,0-2,2v2a1,1,0,0,0,1,1H44a1,1,0,0,0,1-1V61a2,2,0,0,0-2-2H40.677l-1.2-3H47a5,5,0,0,0,5-5V50H12Zm18,1h4a1,1,0,0,1,0,2H30a1,1,0,0,1,0-2Zm-3.323,4H37.323l1.2,3H25.477Z" style="fill:#27272b"/><circle cx="54" cy="7" r="4" style="fill:#27272b"/><path d="M54,0a10,10,0,0,0-1,19.95V21a1,1,0,0,1-1,1H33V19.949a10,10,0,1,0-2,0V22H12a1,1,0,0,1-1-1V19.95a10,10,0,1,0-2,0V21a3,3,0,0,0,3,3H31v7.09a6.006,6.006,0,1,0,2,0V24H52a3,3,0,0,0,3-3V19.95A10,10,0,0,0,54,0ZM3.44,14.56A7.9,7.9,0,0,1,2,10a8,8,0,0,1,16,0,7.9,7.9,0,0,1-1.44,4.56A9.013,9.013,0,0,0,10,12,9.013,9.013,0,0,0,3.44,14.56ZM35,15a2,2,0,1,1,2-2A2,2,0,0,1,35,15ZM29,5a2,2,0,1,1-2,2A2,2,0,0,1,29,5Zm7,32a.99.99,0,0,1-.49.86l-5,3A1,1,0,0,1,29,40V34a1.03,1.03,0,0,1,.51-.87c.531-.309.885-.059,1.35.22l4.65,2.79A.99.99,0,0,1,36,37ZM28.707,14.707a1,1,0,0,1-1.414-1.414l8-8a1,1,0,1,1,1.414,1.414ZM60.56,14.56a9.685,9.685,0,0,0-13.12,0A7.9,7.9,0,0,1,46,10a8,8,0,0,1,16,0A7.9,7.9,0,0,1,60.56,14.56Z" style="fill:#27272b"/><circle cx="10" cy="7" r="4" style="fill:#27272b"/></g></svg>