<svg xmlns="http://www.w3.org/2000/svg" viewBox="0 0 64 64"><title>Artboard-9</title><g id="Browser"><path d="M32,16a8,8,0,1,0-8-8A8.022,8.022,0,0,0,32,16ZM32,2a6,6,0,0,1,6,6,5.941,5.941,0,0,1-1.21,3.61,7.93,7.93,0,0,0-9.58,0A5.941,5.941,0,0,1,26,8,6,6,0,0,1,32,2Z" style="fill:#27272b"/><circle cx="32" cy="6" r="3" style="fill:#27272b"/><path d="M42.459,10.4a23.854,23.854,0,0,1,11.22,11.131,1,1,0,0,0,1.8-.867A25.866,25.866,0,0,0,43.32,8.6a1,1,0,0,0-.861,1.806Z" style="fill:#27272b"/><path d="M21.545,53.6A23.99,23.99,0,0,1,10.4,42.456a1,1,0,1,0-1.8.869A26,26,0,0,0,20.676,55.4a1,1,0,0,0,.869-1.8Z" style="fill:#27272b"/><path d="M54.9,41.991a1,1,0,0,0-1.336.461A24.171,24.171,0,0,1,42.453,53.59a1,1,0,0,0,.873,1.8A26.181,26.181,0,0,0,55.359,43.328,1,1,0,0,0,54.9,41.991Z" style="fill:#27272b"/><path d="M9.047,22a1,1,0,0,0,1.335-.467,24.018,24.018,0,0,1,11.152-11.2,1,1,0,0,0-.869-1.8A26.038,26.038,0,0,0,8.579,20.667,1,1,0,0,0,9.047,22Z" style="fill:#27272b"/><path d="M33,18.177v6.805a23.792,23.792,0,0,0,4.822-.644,12.5,12.5,0,0,0-2.782-4.881A4.9,4.9,0,0,0,33,18.177Z" style="fill:#27272b"/><path d="M31,20V18.177a4.895,4.895,0,0,0-2.04,1.28,12.5,12.5,0,0,0-2.784,4.885,23.751,23.751,0,0,0,4.824.64Z" style="fill:#27272b"/><path d="M31,26.982a25.861,25.861,0,0,1-5.37-.722A25.412,25.412,0,0,0,25.036,31H31Z" style="fill:#27272b"/><path d="M18.051,31h4.968a27.084,27.084,0,0,1,.7-5.322,10.522,10.522,0,0,1-3.152-1.733A13.9,13.9,0,0,0,18.051,31Z" style="fill:#27272b"/><path d="M45.949,33H40.981a27.19,27.19,0,0,1-.7,5.309,10.375,10.375,0,0,1,3.151,1.743A13.9,13.9,0,0,0,45.949,33Z" style="fill:#27272b"/><path d="M31,33H25.036a25.349,25.349,0,0,0,.595,4.742A25.884,25.884,0,0,1,31,37.018Z" style="fill:#27272b"/><path d="M20.567,40.053a10.532,10.532,0,0,1,3.154-1.73,27.1,27.1,0,0,1-.7-5.323H18.051A13.9,13.9,0,0,0,20.567,40.053Z" style="fill:#27272b"/><path d="M33,31h5.964a25.36,25.36,0,0,0-.595-4.743A25.91,25.91,0,0,1,33,26.982Z" style="fill:#27272b"/><path d="M26.657,19.065A14.045,14.045,0,0,0,21.833,22.4a8.248,8.248,0,0,0,2.434,1.353A16,16,0,0,1,26.657,19.065Z" style="fill:#27272b"/><path d="M24.269,40.248a8.223,8.223,0,0,0-2.434,1.35,14.052,14.052,0,0,0,4.823,3.338A16.037,16.037,0,0,1,24.269,40.248Z" style="fill:#27272b"/><path d="M31,45.823v-6.8a23.756,23.756,0,0,0-4.822.643,12.488,12.488,0,0,0,2.782,4.882A4.9,4.9,0,0,0,31,45.823Z" style="fill:#27272b"/><path d="M42.167,22.405a14.045,14.045,0,0,0-4.825-3.341,16.018,16.018,0,0,1,2.389,4.687A8.39,8.39,0,0,0,42.167,22.405Z" style="fill:#27272b"/><path d="M39.733,40.243a16.014,16.014,0,0,1-2.39,4.692A14.039,14.039,0,0,0,42.164,41.6,8.221,8.221,0,0,0,39.733,40.243Z" style="fill:#27272b"/><path d="M33,44v1.822a4.894,4.894,0,0,0,2.04-1.279,12.5,12.5,0,0,0,2.785-4.889A23.675,23.675,0,0,0,33,39.017Z" style="fill:#27272b"/><path d="M33,37.017a26.07,26.07,0,0,1,5.372.712A25.39,25.39,0,0,0,38.964,33H33Z" style="fill:#27272b"/><path d="M43.434,23.949a10.633,10.633,0,0,1-3.155,1.727,27.17,27.17,0,0,1,.7,5.324h4.968A13.9,13.9,0,0,0,43.434,23.949Z" style="fill:#27272b"/><path d="M56,24a8,8,0,1,0,8,8A8.011,8.011,0,0,0,56,24Zm4.79,11.61a7.93,7.93,0,0,0-9.58,0A5.941,5.941,0,0,1,50,32a6,6,0,0,1,12,0A5.941,5.941,0,0,1,60.79,35.61Z" style="fill:#27272b"/><circle cx="56" cy="30" r="3" style="fill:#27272b"/><path d="M32,48a8,8,0,1,0,8,8A8.011,8.011,0,0,0,32,48Zm4.79,11.61a7.93,7.93,0,0,0-9.58,0A5.941,5.941,0,0,1,26,56a6,6,0,0,1,12,0A5.941,5.941,0,0,1,36.79,59.61Z" style="fill:#27272b"/><circle cx="32" cy="54" r="3" style="fill:#27272b"/><path d="M16,32a8,8,0,1,0-8,8A8.011,8.011,0,0,0,16,32ZM8,34a7.834,7.834,0,0,0-4.79,1.61A5.941,5.941,0,0,1,2,32a6,6,0,0,1,12,0,5.941,5.941,0,0,1-1.21,3.61A7.834,7.834,0,0,0,8,34Z" style="fill:#27272b"/><circle cx="8" cy="30" r="3" style="fill:#27272b"/></g></svg>