<svg xmlns="http://www.w3.org/2000/svg" viewBox="0 0 64 64"><title>Artboard-6</title><g id="User"><circle cx="32" cy="27" r="6" style="fill:#27272b"/><path d="M58,26a6.006,6.006,0,0,0-5.91,5H46.949a14.915,14.915,0,0,0-3.674-8.861l5.252-5.252a6.012,6.012,0,1,0-1.414-1.414l-5.252,5.252A14.915,14.915,0,0,0,33,17.051V11.91a6,6,0,1,0-2,0v5.141a14.915,14.915,0,0,0-8.861,3.674l-5.252-5.252a6.012,6.012,0,1,0-1.414,1.414l5.252,5.252A14.915,14.915,0,0,0,17.051,31H11.91a6,6,0,1,0,0,2h5.125a14.957,14.957,0,0,0,2.145,6.79,15.96,15.96,0,0,0,1.16,1.63c.123.152.263.287.392.434l-5.259,5.259a6.012,6.012,0,1,0,1.414,1.414l5.259-5.259A14.912,14.912,0,0,0,31,46.942V52.09a6,6,0,1,0,2,0V46.942a14.912,14.912,0,0,0,8.854-3.674l5.259,5.259a6.012,6.012,0,1,0,1.414-1.414l-5.259-5.259c.129-.147.269-.282.392-.434a15.96,15.96,0,0,0,1.16-1.63A14.957,14.957,0,0,0,46.965,33H52.09A6,6,0,1,0,58,26ZM43.24,38.52a19.706,19.706,0,0,0-22.48,0,13,13,0,1,1,22.48,0Z" style="fill:#27272b"/></g></svg>