<svg xmlns="http://www.w3.org/2000/svg" viewBox="0 0 64 64"><title>Artboard-40</title><g id="Laptop"><path d="M53,62H50.251l3.288-14.783A1,1,0,0,0,52.563,46H11.437a1,1,0,0,0-.976,1.217L13.749,62H11a1,1,0,0,0,0,2H53a1,1,0,0,0,0-2ZM32,51a4,4,0,1,1-4,4A4,4,0,0,1,32,51Z" style="fill:#27272b"/><circle cx="32" cy="55" r="2" style="fill:#27272b"/><polygon points="28.1 35.68 30.48 33.89 27.72 31.13 24.57 32.1 28.1 35.68" style="fill:#27272b"/><polygon points="35.9 35.68 39.43 32.1 36.28 31.13 33.52 33.89 35.9 35.68" style="fill:#27272b"/><path d="M35,29.58V26.49a9.25,9.25,0,0,1-6,0v3.09l3,3Z" style="fill:#27272b"/><circle cx="33" cy="20" r="1" style="fill:#27272b"/><path d="M35.68,18.66A9.794,9.794,0,0,0,39,16.28V13.05c-4.01,2.25-11.17,2.16-14,2.01V18a7,7,0,0,0,13.91,1.06,12.021,12.021,0,0,1-3.01,1.68,3,3,0,1,1-.22-2.08Z" style="fill:#27272b"/><path d="M20.71,40.88l.29-.29V39a1,1,0,0,1,2,0v2a1.033,1.033,0,0,1-.29.71l-.59.58A3.874,3.874,0,0,0,21.14,44H31V36l-2.4,1.8a1.029,1.029,0,0,1-.6.2.976.976,0,0,1-.71-.3l-4.87-4.93c-3.421,1.049-3.6,1.1-3.6,1.1A3.981,3.981,0,0,0,16,37.69V44h3.09A5.788,5.788,0,0,1,20.71,40.88Z" style="fill:#27272b"/><path d="M41.58,32.77,36.71,37.7a.992.992,0,0,1-1.31.1L33,36v8h9.86a3.874,3.874,0,0,0-.98-1.71l-.59-.58A1.033,1.033,0,0,1,41,41V39a1,1,0,0,1,2,0v1.59l.29.29A5.788,5.788,0,0,1,44.91,44H48V37.69a3.978,3.978,0,0,0-2.83-3.82C44.481,33.66,45.117,33.855,41.58,32.77Z" style="fill:#27272b"/><path d="M27,29.26V25.48A9.01,9.01,0,0,1,23,18V14a1.007,1.007,0,0,1,.32-.73,1.021,1.021,0,0,1,.76-.27c3.36.27,12.62.31,15.16-2.65A1,1,0,0,1,41,11v7a9.01,9.01,0,0,1-4,7.48v3.78c.138.042,8.865,2.719,9,2.77V14a14,14,0,0,0-28,0V32.04a2.25,2.25,0,0,1,.24-.08Z" style="fill:#27272b"/></g></svg>