<svg xmlns="http://www.w3.org/2000/svg" viewBox="0 0 64 64"><title>Artboard-27</title><g id="Web"><circle cx="7" cy="12" r="1" style="fill:#27272b"/><circle cx="21" cy="12" r="1" style="fill:#27272b"/><path d="M39,13H57a1,1,0,0,0,0-2H39a1,1,0,0,0,0,2Z" style="fill:#27272b"/><path d="M64,18V9a3,3,0,0,0-3-3H3A3,3,0,0,0,0,9v9ZM39,9H57a3,3,0,0,1,0,6H39a3,3,0,0,1,0-6ZM21,9a3,3,0,1,1-3,3A3,3,0,0,1,21,9ZM14,9a3,3,0,1,1-3,3A3,3,0,0,1,14,9ZM7,9a3,3,0,1,1-3,3A3,3,0,0,1,7,9Z" style="fill:#27272b"/><circle cx="14" cy="12" r="1" style="fill:#27272b"/><polygon points="30 42.195 35.113 39 30 35.805 30 42.195" style="fill:#27272b"/><path d="M32,29A10,10,0,1,0,42,39,10.011,10.011,0,0,0,32,29Zm5.53,10.848-8,5A1,1,0,0,1,28,44V34a1,1,0,0,1,1.53-.848l8,5a1,1,0,0,1,0,1.7Z" style="fill:#27272b"/><path d="M0,20V55a3,3,0,0,0,3,3H61a3,3,0,0,0,3-3V20ZM32,51A12,12,0,1,1,44,39,12.013,12.013,0,0,1,32,51Z" style="fill:#27272b"/></g></svg>