<svg xmlns="http://www.w3.org/2000/svg" viewBox="0 0 64 64"><title>Artboard-22</title><g id="Search-2" data-name="Search"><rect x="9" y="54" width="37" height="4" style="fill:#27272b"/><rect x="9" y="60" width="37" height="4" style="fill:#27272b"/><path d="M53.555,58.168,48,54.465v9.07l5.555-3.7a1,1,0,0,0,0-1.664Z" style="fill:#27272b"/><path d="M0,57v4a3,3,0,0,0,3,3H7V54H3A3,3,0,0,0,0,57Z" style="fill:#27272b"/><path d="M15,37.708a12.3,12.3,0,0,0,2,1.4V33H15Z" style="fill:#27272b"/><path d="M23,40.949c.332.024.662.051,1,.051s.668-.027,1-.051V28H23Z" style="fill:#27272b"/><path d="M48,30V24H43.75A19.916,19.916,0,0,1,44,27a19.916,19.916,0,0,1-.25,3Z" style="fill:#27272b"/><path d="M48,32H43.342a20,20,0,1,1,0-10H48V6a6,6,0,0,1,6-6H6A6,6,0,0,0,0,6V53a4.941,4.941,0,0,1,3-1H47a2.852,2.852,0,0,1,1,.18Z" style="fill:#27272b"/><path d="M31,39.106a12.3,12.3,0,0,0,2-1.4V24H31Z" style="fill:#27272b"/><path d="M24,9A18,18,0,1,0,42,27,18.021,18.021,0,0,0,24,9Zm0,34A16,16,0,1,1,40,27,16.052,16.052,0,0,1,24,43Z" style="fill:#27272b"/><path d="M24,13A13.979,13.979,0,0,0,13,35.632V32a1,1,0,0,1,1-1h4a1,1,0,0,1,1,1v8.061a13.885,13.885,0,0,0,2,.607V27a1,1,0,0,1,1-1h4a1,1,0,0,1,1,1V40.668a13.885,13.885,0,0,0,2-.607V23a1,1,0,0,1,1-1h4a1,1,0,0,1,1,1V35.632A13.979,13.979,0,0,0,24,13Z" style="fill:#27272b"/><path d="M63,20H50V34H63a1,1,0,0,0,1-1V21A1,1,0,0,0,63,20Z" style="fill:#27272b"/><path d="M50,6v8h8V6a4,4,0,0,0-8,0Z" style="fill:#27272b"/></g></svg>