<svg xmlns="http://www.w3.org/2000/svg" viewBox="0 0 64 64"><title>Artboard-17</title><g id="Eye_Discount" data-name="Eye Discount"><circle cx="36" cy="36" r="1" style="fill:#27272b"/><circle cx="28" cy="28" r="1" style="fill:#27272b"/><path d="M32,20A12,12,0,1,0,44,32,12.013,12.013,0,0,0,32,20Zm-7,8a3,3,0,1,1,3,3A3,3,0,0,1,25,28Zm2.707,9.707a1,1,0,0,1-1.414-1.414l10-10a1,1,0,0,1,1.414,1.414ZM36,39a3,3,0,1,1,3-3A3,3,0,0,1,36,39Z" style="fill:#27272b"/><path d="M63.866,31.5a36.694,36.694,0,0,0-63.732,0,1,1,0,0,0,0,1,36.694,36.694,0,0,0,63.732,0A1,1,0,0,0,63.866,31.5ZM32,46A14,14,0,1,1,46,32,14.015,14.015,0,0,1,32,46Z" style="fill:#27272b"/></g></svg>