<svg xmlns="http://www.w3.org/2000/svg" viewBox="0 0 64 64"><title>Artboard-39</title><g id="Result_stat" data-name="Result stat"><path d="M62,61H58V14a1,1,0,0,0-1-1H49a1,1,0,0,0-1,1V61H44V24a1,1,0,0,0-1-1H35a1,1,0,0,0-1,1V61H30V37a1,1,0,0,0-1-1H21a1,1,0,0,0-1,1V61H16V30a1,1,0,0,0-1-1H7a1,1,0,0,0-1,1V61H2a1,1,0,0,0,0,2H62a1,1,0,0,0,0-2Z" style="fill:#27272b"/><path d="M11,25a3.975,3.975,0,0,0,3-1.382l7.091,3.546A4,4,0,1,0,28.5,26.107l8.351-7.743a3.98,3.98,0,0,0,5.872-4.793l7.72-5.519A3.962,3.962,0,0,0,53,9a4.036,4.036,0,1,0-3.725-2.571l-7.72,5.519A3.962,3.962,0,0,0,39,11a4,4,0,0,0-4,4,3.955,3.955,0,0,0,.5,1.893l-8.351,7.743A3.945,3.945,0,0,0,22,25.382l-7.091-3.546A4,4,0,1,0,11,25Z" style="fill:#27272b"/></g></svg>