<svg xmlns="http://www.w3.org/2000/svg" viewBox="0 0 64 64"><title>Artboard-37</title><g id="Moutain"><path d="M45,13V12a1,1,0,0,0-1-1v3A1,1,0,0,0,45,13Z" style="fill:#27272b"/><path d="M42,6a1,1,0,0,0-1,1V8a1,1,0,0,0,1,1Z" style="fill:#27272b"/><path d="M16.021,41.156,13.91,36.58a1,1,0,0,0-1.82,0L9.973,41.166a5.869,5.869,0,0,0,6.048-.01Z" style="fill:#27272b"/><path d="M18.62,46.79l-1.756-3.806a7.863,7.863,0,0,1-7.73,0L.09,62.58a1,1,0,0,0,.07.96A.985.985,0,0,0,1,64h9.18a2.949,2.949,0,0,1,.2-2.46Z" style="fill:#27272b"/><path d="M54.387,41.947,51.91,36.58a1,1,0,0,0-1.82,0l-2.475,5.365a5.966,5.966,0,0,0,6.772,0Z" style="fill:#27272b"/><path d="M55.235,43.784a8.009,8.009,0,0,1-8.472.008l-1.383,3,8.24,14.75a2.949,2.949,0,0,1,.2,2.46H63a.985.985,0,0,0,.84-.46,1,1,0,0,0,.07-.96Z" style="fill:#27272b"/><path d="M32,39a8.942,8.942,0,0,0,5.622-1.99L33,28.739V20H54a1,1,0,0,0,1-1V1a1,1,0,0,0-1-1H32a1,1,0,0,0-1,1V28.739l-4.623,8.272A8.909,8.909,0,0,0,32,39ZM39,8V7a3,3,0,0,1,3-3,1,1,0,0,1,2,0,3,3,0,0,1,3,3,1,1,0,0,1-2,0,1,1,0,0,0-1-1V9a3,3,0,0,1,3,3v1a3,3,0,0,1-3,3,1,1,0,0,1-2,0,3,3,0,0,1-3-3,1,1,0,0,1,2,0,1,1,0,0,0,1,1V11A3,3,0,0,1,39,8Z" style="fill:#27272b"/><path d="M38.613,38.784a10.968,10.968,0,0,1-13.225,0L12.127,62.512A1,1,0,0,0,13,64H51a1,1,0,0,0,.873-1.488Z" style="fill:#27272b"/><path d="M63,8H57V18.99a2.988,2.988,0,0,1-1.57,2.65L45.09,28H63a1,1,0,0,0,1-1V9A1,1,0,0,0,63,8Z" style="fill:#27272b"/><path d="M40.51,27.87a.981.981,0,0,0,1.01-.02L51.03,22H40v5A1,1,0,0,0,40.51,27.87Z" style="fill:#27272b"/></g></svg>