<svg xmlns="http://www.w3.org/2000/svg" viewBox="0 0 64 64"><title>Artboard-21</title><g id="Rating"><path d="M30.987,17.267l-.141.862.67-.37a1,1,0,0,1,.968,0l.67.37-.141-.862a1,1,0,0,1,.271-.86l.641-.656-.84-.129a1,1,0,0,1-.754-.563l-.331-.7-.331.705a1,1,0,0,1-.754.563l-.84.129.641.656A1,1,0,0,1,30.987,17.267Z" style="fill:#27272b"/><path d="M41.987,17.267l-.141.862.67-.37a1,1,0,0,1,.968,0l.67.37-.141-.862a1,1,0,0,1,.271-.86l.641-.656-.84-.129a1,1,0,0,1-.754-.563l-.331-.7-.331.705a1,1,0,0,1-.754.563l-.84.129.641.656A1,1,0,0,1,41.987,17.267Z" style="fill:#27272b"/><path d="M19.987,17.267l-.141.862.67-.37a1,1,0,0,1,.968,0l.67.37-.141-.862a1,1,0,0,1,.271-.86l.641-.656-.84-.129a1,1,0,0,1-.754-.563l-.331-.7-.331.705a1,1,0,0,1-.754.563l-.84.129.641.656A1,1,0,0,1,19.987,17.267Z" style="fill:#27272b"/><path d="M8.987,17.267l-.141.862.67-.37a1,1,0,0,1,.968,0l.67.37-.141-.862a1,1,0,0,1,.271-.86l.641-.656-.84-.129a1,1,0,0,1-.754-.563l-.331-.7-.331.705a1,1,0,0,1-.754.563l-.84.129.641.656A1,1,0,0,1,8.987,17.267Z" style="fill:#27272b"/><path d="M31,28H2v1a3.009,3.009,0,0,0,3,3H31Z" style="fill:#27272b"/><path d="M40,32H59a3.009,3.009,0,0,0,3-3V28H40Z" style="fill:#27272b"/><path d="M59,0H5A3,3,0,0,0,2,3V4H62V3A3,3,0,0,0,59,0Z" style="fill:#27272b"/><path d="M2,26H31.26a4.5,4.5,0,0,1,8.48,0H62V6H2ZM49.05,14.74a.986.986,0,0,1,.8-.67l2.24-.34,1-2.15a1,1,0,0,1,1.82,0l1,2.15,2.24.34a1,1,0,0,1,.57,1.68l-1.65,1.69.39,2.4A.995.995,0,0,1,56.47,21a1.034,1.034,0,0,1-.48-.12L54,19.78l-1.99,1.1a1,1,0,0,1-1.47-1.04l.39-2.4-1.65-1.69A.989.989,0,0,1,49.05,14.74Zm-11,0a.986.986,0,0,1,.8-.67l2.24-.34,1-2.15a1,1,0,0,1,1.82,0l1,2.15,2.24.34a1,1,0,0,1,.57,1.68l-1.65,1.69.39,2.4A.995.995,0,0,1,45.47,21a1.034,1.034,0,0,1-.48-.12L43,19.78l-1.99,1.1a1,1,0,0,1-1.47-1.04l.39-2.4-1.65-1.69A.989.989,0,0,1,38.05,14.74Zm-11,0a.986.986,0,0,1,.8-.67l2.24-.34,1-2.15a1,1,0,0,1,1.82,0l1,2.15,2.24.34a1,1,0,0,1,.57,1.68l-1.65,1.69.39,2.4A.995.995,0,0,1,34.47,21a1.034,1.034,0,0,1-.48-.12L32,19.78l-1.99,1.1a1,1,0,0,1-1.47-1.04l.39-2.4-1.65-1.69A.989.989,0,0,1,27.05,14.74Zm-11,0a.986.986,0,0,1,.8-.67l2.24-.34,1-2.15a1,1,0,0,1,1.82,0l1,2.15,2.24.34a1,1,0,0,1,.57,1.68l-1.65,1.69.39,2.4A.995.995,0,0,1,23.47,21a1.034,1.034,0,0,1-.48-.12L21,19.78l-1.99,1.1a1,1,0,0,1-1.47-1.04l.39-2.4-1.65-1.69A.989.989,0,0,1,16.05,14.74Zm-11,0a.986.986,0,0,1,.8-.67l2.24-.34,1-2.15a1,1,0,0,1,1.82,0l1,2.15,2.24.34a1,1,0,0,1,.57,1.68l-1.65,1.69.39,2.4A.995.995,0,0,1,12.47,21a1.034,1.034,0,0,1-.48-.12L10,19.78l-1.99,1.1a1,1,0,0,1-1.47-1.04l.39-2.4L5.28,15.75A.989.989,0,0,1,5.05,14.74Z" style="fill:#27272b"/><path d="M52.987,17.267l-.141.862.67-.37a1,1,0,0,1,.968,0l.67.37-.141-.862a1,1,0,0,1,.271-.86l.641-.656-.84-.129a1,1,0,0,1-.754-.563l-.331-.7-.331.705a1,1,0,0,1-.754.563l-.84.129.641.656A1,1,0,0,1,52.987,17.267Z" style="fill:#27272b"/><path d="M56.5,40A2.5,2.5,0,0,0,54,42.5V48a1,1,0,0,1-2,0V39.5a2.5,2.5,0,0,0-5,0V45a1,1,0,0,1-2,0V37.5a2.5,2.5,0,0,0-5,0V45a1,1,0,0,1-2,0V27.5a2.5,2.5,0,0,0-5,0V47a1,1,0,0,1-2,0V34.69A6.984,6.984,0,0,0,27,41V53.34a14.559,14.559,0,0,0,4.29,10.37A1.033,1.033,0,0,0,32,64H54a1.033,1.033,0,0,0,.71-.29A14.559,14.559,0,0,0,59,53.34V42.5A2.5,2.5,0,0,0,56.5,40Z" style="fill:#27272b"/></g></svg>