<svg xmlns="http://www.w3.org/2000/svg" viewBox="0 0 64 64"><title>Artboard-3</title><g id="Tag"><path d="M34.12,10.48a18.485,18.485,0,0,1-1.99-6.89l-3.93.97a.975.975,0,0,0-.59.42L4.03,40.72a6.16,6.16,0,0,0,1.75,8.55L18.83,57.9a6.2,6.2,0,0,0,8.56-1.76L31,50.68V15a3.011,3.011,0,0,1,.81-2.05C33.267,11.389,33.311,11.353,34.12,10.48Z" style="fill:#27272b"/><circle cx="51.001" cy="54" r="1" style="fill:#27272b"/><circle cx="43.001" cy="46" r="1" style="fill:#27272b"/><path d="M60.73,14.32l-13-14a.984.984,0,0,0-.83-.3,1.037,1.037,0,0,0-.67.34L38.005,9.234A12.728,12.728,0,0,1,37.07,7.3L42.93.98,36.068,2.643C36.028,2.115,36,1.573,36,1a1,1,0,0,0-2,0c0,.74.04,1.436.1,2.11h0l0,.034a16.023,16.023,0,0,0,2.514,7.586l-.018.02a13.786,13.786,0,0,0,5.43,4.75c0-.011,0-.02.006-.031a16.161,16.161,0,0,0,1.982.836l0,.025a3.017,3.017,0,1,0,.454-1.931,13.25,13.25,0,0,1-1.843-.8,4.982,4.982,0,1,1-.3,4.192,16.311,16.311,0,0,1-7.12-5.54c-.128.139-1.678,1.789-1.94,2.07A1,1,0,0,0,33,15V57.82A6.184,6.184,0,0,0,39.18,64H54.82A6.184,6.184,0,0,0,61,57.82V15A1,1,0,0,0,60.73,14.32ZM40,46a3,3,0,1,1,3,3A3.009,3.009,0,0,1,40,46Zm2,10a1.042,1.042,0,0,1-.71-.29,1.008,1.008,0,0,1,0-1.42l10-10a1,1,0,0,1,1.42,1.42l-10,10A1.024,1.024,0,0,1,42,56Zm9,1a3,3,0,1,1,3-3A3.009,3.009,0,0,1,51,57Z" style="fill:#27272b"/></g></svg>