<svg xmlns="http://www.w3.org/2000/svg" viewBox="0 0 64 64"><title>Artboard-30</title><g id="Spam_Email" data-name="Spam Email"><path d="M24,10h4V39h8V10h4a1,1,0,0,0,.707-1.707l-8-8a1,1,0,0,0-1.414,0l-8,8A1,1,0,0,0,24,10Z" style="fill:#27272b"/><path d="M63.707,17.293l-8-8A1,1,0,0,0,54,10v4H47a7.009,7.009,0,0,0-7,7V31a1,1,0,0,0,1,1h6a1,1,0,0,0,1-1V22h6v4a1,1,0,0,0,1.707.707l8-8A1,1,0,0,0,63.707,17.293Z" style="fill:#27272b"/><path d="M9.383,26.924A1,1,0,0,0,10,26V22h6v9a1,1,0,0,0,1,1h6a1,1,0,0,0,1-1V21a7.009,7.009,0,0,0-7-7H10V10a1,1,0,0,0-1.707-.707l-8,8a1,1,0,0,0,0,1.414l8,8A1,1,0,0,0,9.383,26.924Z" style="fill:#27272b"/><path d="M53,34H38v5a2,2,0,0,1-2,2H28a2,2,0,0,1-2-2V34H11a3.009,3.009,0,0,0-3,3V61a3.009,3.009,0,0,0,3,3H53a3.009,3.009,0,0,0,3-3V37A3.009,3.009,0,0,0,53,34ZM50.51,58.21A1,1,0,0,1,49.89,60a1.031,1.031,0,0,1-.62-.21L37.11,50.27l-4.49,3.52a1.02,1.02,0,0,1-1.24,0l-4.49-3.52L14.73,59.79a1.031,1.031,0,0,1-.62.21,1,1,0,0,1-.62-1.79L25.27,49,13.49,39.79a1,1,0,0,1,1.24-1.58L32,51.73,49.27,38.21a1,1,0,1,1,1.24,1.58L38.73,49Z" style="fill:#27272b"/></g></svg>