<svg xmlns="http://www.w3.org/2000/svg" viewBox="0 0 64 64"><title>Artboard-16</title><g id="Billboard"><path d="M29,2h2V4h2V2h2a1,1,0,0,0,0-2H29a1,1,0,0,0,0,2Z" style="fill:#27272b"/><path d="M43,2h2V4h2V2h2a1,1,0,0,0,0-2H43a1,1,0,0,0,0,2Z" style="fill:#27272b"/><path d="M15,2h2V4h2V2h2a1,1,0,0,0,0-2H15a1,1,0,0,0,0,2Z" style="fill:#27272b"/><path d="M16.707,16.293,22,21.586l3.293-3.293a1,1,0,0,1,1.414,0L32,23.586V11H10V21.586l5.293-5.293A1,1,0,0,1,16.707,16.293ZM22,12a3,3,0,1,1-3,3A3,3,0,0,1,22,12Z" style="fill:#27272b"/><circle cx="22" cy="15" r="1" style="fill:#27272b"/><polygon points="23.414 23 25.414 25 30.586 25 26 20.414 23.414 23" style="fill:#27272b"/><polygon points="16 18.414 10 24.414 10 25 22.586 25 16 18.414" style="fill:#27272b"/><path d="M58,6H6A1,1,0,0,0,5,7V33a1,1,0,0,0,1,1H58a1,1,0,0,0,1-1V7A1,1,0,0,0,58,6ZM8,10A1,1,0,0,1,9,9H33a1,1,0,0,1,1,1V26a1,1,0,0,1-1,1H9a1,1,0,0,1-1-1ZM55,31H9a1,1,0,0,1,0-2H55a1,1,0,0,1,0,2Zm0-4H37a1,1,0,0,1,0-2H55a1,1,0,0,1,0,2ZM36,22a1,1,0,0,1,1-1H47a1,1,0,0,1,0,2H37A1,1,0,0,1,36,22Zm19-3H37a1,1,0,0,1,0-2H55a1,1,0,0,1,0,2ZM36,14a1,1,0,0,1,1-1h6a1,1,0,0,1,0,2H37A1,1,0,0,1,36,14Zm19-3H37a1,1,0,0,1,0-2H55a1,1,0,0,1,0,2Z" style="fill:#27272b"/><path d="M58,39H53V36H11v3H6a1,1,0,0,0,0,2H58a1,1,0,0,0,0-2Z" style="fill:#27272b"/><rect x="28" y="43" width="8" height="12" style="fill:#27272b"/><path d="M53,62H42V61a4,4,0,0,0-4-4H26a4,4,0,0,0-4,4v1H11a1,1,0,0,0,0,2H53a1,1,0,0,0,0-2Z" style="fill:#27272b"/></g></svg>