<svg xmlns="http://www.w3.org/2000/svg" viewBox="0 0 64 64"><title>Artboard-29</title><g id="Setting"><path d="M32,1A30.805,30.805,0,0,0,10.3,9.872,29.618,29.618,0,0,0,8,12.4V8A1,1,0,0,0,6,8v7a1,1,0,0,0,1,1h7a1,1,0,0,0,0-2H9.279A27.676,27.676,0,0,1,11.7,11.3,28.99,28.99,0,0,1,61,32a28.616,28.616,0,0,1-2.86,12.564,1,1,0,0,0,1.8.872A30.6,30.6,0,0,0,63,32,31.034,31.034,0,0,0,32,1Z" style="fill:#27272b"/><path d="M57,48H50a1,1,0,0,0,0,2h4.721A27.676,27.676,0,0,1,52.3,52.7,28.99,28.99,0,0,1,3,32,28.616,28.616,0,0,1,5.86,19.436a1,1,0,0,0-1.8-.872A30.6,30.6,0,0,0,1,32,30.99,30.99,0,0,0,53.7,54.128,29.618,29.618,0,0,0,56,51.6V56a1,1,0,0,0,2,0V49A1,1,0,0,0,57,48Z" style="fill:#27272b"/><circle cx="28" cy="28" r="1" style="fill:#27272b"/><circle cx="36" cy="36" r="1" style="fill:#27272b"/><path d="M32,21A11,11,0,1,0,43,32,11.013,11.013,0,0,0,32,21Zm-7,7a3,3,0,1,1,3,3A3,3,0,0,1,25,28Zm2.707,9.707a1,1,0,0,1-1.414-1.414l10-10a1,1,0,0,1,1.414,1.414ZM36,39a3,3,0,1,1,3-3A3,3,0,0,1,36,39Z" style="fill:#27272b"/><path d="M50.675,26.668l-1.859-.429-.851-2.057,1.01-1.617a2.984,2.984,0,0,0-.422-3.711l-3.407-3.407a2.983,2.983,0,0,0-3.711-.422l-1.617,1.01-2.057-.851-.429-1.859A2.985,2.985,0,0,0,34.409,11H29.591a2.985,2.985,0,0,0-2.923,2.325l-.429,1.859-2.057.851-1.617-1.01a2.984,2.984,0,0,0-3.711.422l-3.407,3.407a2.984,2.984,0,0,0-.422,3.711l1.01,1.617-.851,2.057-1.859.429A2.985,2.985,0,0,0,11,29.591v4.818a2.985,2.985,0,0,0,2.325,2.923l1.859.429.851,2.057-1.01,1.617a2.984,2.984,0,0,0,.422,3.711l3.407,3.407a2.984,2.984,0,0,0,3.711.422l1.617-1.01,2.057.851.429,1.859A2.985,2.985,0,0,0,29.591,53h4.818a2.985,2.985,0,0,0,2.923-2.325l.429-1.859,2.057-.851,1.617,1.01a2.982,2.982,0,0,0,3.711-.422l3.407-3.407a2.984,2.984,0,0,0,.422-3.711l-1.01-1.617.851-2.057,1.859-.429A2.985,2.985,0,0,0,53,34.409V29.591A2.985,2.985,0,0,0,50.675,26.668ZM32,45A13,13,0,1,1,45,32,13.015,13.015,0,0,1,32,45Z" style="fill:#27272b"/></g></svg>