<svg xmlns="http://www.w3.org/2000/svg" viewBox="0 0 64 64"><title>Artboard-19</title><g id="Rocket"><path d="M53,56.07A6.632,6.632,0,0,0,52,56a9.094,9.094,0,0,0-1.8.19,1,1,0,0,1-1.19-.76,1.01,1.01,0,0,1,.77-1.19A10.408,10.408,0,0,1,52,54q.36,0,.72.03a7,7,0,0,0-6.19-5c.08.24.14.48.2.72a10.233,10.233,0,0,1,.25,1.81,1,1,0,0,1-.96,1.04c-.01,0-.03.01-.04.01a1,1,0,0,1-1-.96,7.84,7.84,0,0,0-.5-2.48A7.938,7.938,0,0,0,37,44a8.258,8.258,0,0,0-1,.07V50a1,1,0,0,1-2,0V43H30v7a1,1,0,0,1-2,0V44.07A8.258,8.258,0,0,0,27,44a7.938,7.938,0,0,0-7.48,5.17,7.84,7.84,0,0,0-.5,2.48,1,1,0,0,1-1,.96c-.01,0-.03-.01-.04-.01a1,1,0,0,1-.96-1.04,10.233,10.233,0,0,1,.25-1.81c.06-.24.12-.48.2-.72a7,7,0,0,0-6.19,5Q11.64,54,12,54a10.408,10.408,0,0,1,2.22.24,1.01,1.01,0,0,1,.77,1.19,1,1,0,0,1-1.19.76A9.094,9.094,0,0,0,12,56a6.632,6.632,0,0,0-1,.07v-.01a8.019,8.019,0,0,0-6.91,6.8A1,1,0,0,0,5.08,64H58.92a1,1,0,0,0,.99-1.14A8.041,8.041,0,0,0,53,56.07ZM30,58a1,1,0,0,1-2,0V53a1,1,0,0,1,2,0Zm3-2a1,1,0,0,1-2,0V53a1,1,0,0,1,2,0Zm3,2a1,1,0,0,1-2,0V53a1,1,0,0,1,2,0Z" style="fill:#27272b"/><path d="M27,41H37a1,1,0,0,0,1-1V38H26v2A1,1,0,0,0,27,41Z" style="fill:#27272b"/><path d="M53,49.42a1,1,0,0,0,1-1V38.938a1,1,0,0,0-2,0V48.42A1,1,0,0,0,53,49.42Z" style="fill:#27272b"/><path d="M57,54.42a1,1,0,0,0,1-1V44.938a1,1,0,0,0-2,0V53.42A1,1,0,0,0,57,54.42Z" style="fill:#27272b"/><path d="M7,54.42a1,1,0,0,0,1-1V44.938a1,1,0,0,0-2,0V53.42A1,1,0,0,0,7,54.42Z" style="fill:#27272b"/><path d="M11,49.42a1,1,0,0,0,1-1V38.938a1,1,0,0,0-2,0V48.42A1,1,0,0,0,11,49.42Z" style="fill:#27272b"/><path d="M42,17.82A21.2,21.2,0,0,0,40.085,9H23.915A21.2,21.2,0,0,0,22,17.82V29H42ZM29,14a2,2,0,1,1-2,2A2,2,0,0,1,29,14Zm6,10a2,2,0,1,1,2-2A2,2,0,0,1,35,24Zm1.707-8.293-8,8a1,1,0,0,1-1.414-1.414l8-8a1,1,0,0,1,1.414,1.414Z" style="fill:#27272b"/><path d="M23,36H41a1,1,0,0,0,1-1V31H22v4A1,1,0,0,0,23,36Z" style="fill:#27272b"/><path d="M32.55.17a.963.963,0,0,0-1.1,0A21.154,21.154,0,0,0,24.969,7H39.031A21.154,21.154,0,0,0,32.55.17Z" style="fill:#27272b"/><path d="M48,44a1,1,0,0,0,2,0V28.31a8.933,8.933,0,0,0-2.63-6.36L44,18.58V33.42l4,4Z" style="fill:#27272b"/><path d="M15,45a1,1,0,0,0,1-1V37.42l4-4V18.58l-3.37,3.37A8.933,8.933,0,0,0,14,28.31V44A1,1,0,0,0,15,45Z" style="fill:#27272b"/></g></svg>