<svg xmlns="http://www.w3.org/2000/svg" xmlns:xlink="http://www.w3.org/1999/xlink" viewBox="0 0 64 64"><defs><style>.cls-1{fill:url(#linear-gradient);}.cls-2{fill:url(#linear-gradient-2);}.cls-3{fill:url(#linear-gradient-3);}.cls-4{fill:url(#linear-gradient-4);}.cls-5{fill:url(#linear-gradient-5);}.cls-6{fill:url(#linear-gradient-6);}.cls-7{fill:url(#linear-gradient-7);}.cls-8{fill:url(#linear-gradient-8);}.cls-9{fill:url(#linear-gradient-9);}</style><linearGradient id="linear-gradient" x1="10" y1="28" x2="23" y2="28" gradientUnits="userSpaceOnUse"><stop offset="0" stop-color="#efad7b"/><stop offset="1" stop-color="#ed7a5f"/></linearGradient><linearGradient id="linear-gradient-2" x1="23" y1="28.01" x2="47" y2="28.01" gradientUnits="userSpaceOnUse"><stop offset="0" stop-color="#e2f0f3"/><stop offset="1" stop-color="#a5b7c3"/></linearGradient><linearGradient id="linear-gradient-3" x1="53" y1="28" x2="59" y2="28" xlink:href="#linear-gradient-2"/><linearGradient id="linear-gradient-4" x1="5" y1="28" x2="10" y2="28" gradientUnits="userSpaceOnUse"><stop offset="0" stop-color="#23c8de"/><stop offset="1" stop-color="#117bc9"/></linearGradient><linearGradient id="linear-gradient-5" x1="15" y1="48.5" x2="30" y2="48.5" gradientUnits="userSpaceOnUse"><stop offset="0" stop-color="#243384"/><stop offset="1" stop-color="#0f274b"/></linearGradient><linearGradient id="linear-gradient-6" x1="23" y1="41" x2="28" y2="41" xlink:href="#linear-gradient-4"/><linearGradient id="linear-gradient-7" x1="14" y1="23" x2="20" y2="23" xlink:href="#linear-gradient-5"/><linearGradient id="linear-gradient-8" x1="14" y1="28" x2="20" y2="28" xlink:href="#linear-gradient-5"/><linearGradient id="linear-gradient-9" x1="47" x2="53" xlink:href="#linear-gradient-4"/></defs><title>advertising</title><g id="advertising"><path class="cls-1" d="M23,38H14a4,4,0,0,1-4-4V22a4,4,0,0,1,4-4h9Z"/><path class="cls-2" d="M47,9V47a36.64,36.64,0,0,0-24-9V18a36.45,36.45,0,0,0,14.66-3.07A36.46,36.46,0,0,0,47,9Z"/><path class="cls-3" d="M59,25.39v5.22a2,2,0,0,1-1.3,1.88L53,34.25V21.75l4.7,1.76A2,2,0,0,1,59,25.39Z"/><path class="cls-4" d="M7,23h3a0,0,0,0,1,0,0V33a0,0,0,0,1,0,0H7a2,2,0,0,1-2-2V25A2,2,0,0,1,7,23Z"/><path class="cls-5" d="M30,58v1H19L15,38h8l1.13,6L26,54A4,4,0,0,1,30,58Z"/><path class="cls-6" d="M28,38.35v1.78A3.87,3.87,0,0,1,24.13,44h0L23,38A36.21,36.21,0,0,1,28,38.35Z"/><path class="cls-7" d="M19,24H15a1,1,0,0,1,0-2h4a1,1,0,0,1,0,2Z"/><path class="cls-8" d="M19,29H15a1,1,0,0,1,0-2h4a1,1,0,0,1,0,2Z"/><path class="cls-9" d="M53,7V49a3,3,0,0,1-6,0V7a3,3,0,0,1,6,0Z"/></g></svg>