<svg xmlns="http://www.w3.org/2000/svg" xmlns:xlink="http://www.w3.org/1999/xlink" viewBox="0 0 64 64"><defs><style>.cls-1{fill:url(#linear-gradient);}.cls-2{fill:url(#linear-gradient-2);}.cls-3{fill:url(#linear-gradient-3);}.cls-4{fill:url(#linear-gradient-4);}.cls-5{fill:url(#linear-gradient-5);}.cls-6{fill:url(#linear-gradient-6);}.cls-7{fill:url(#linear-gradient-7);}.cls-8{fill:url(#linear-gradient-8);}.cls-9{fill:url(#linear-gradient-9);}.cls-10{fill:url(#linear-gradient-10);}.cls-11{fill:url(#linear-gradient-11);}</style><linearGradient id="linear-gradient" x1="26" y1="38" x2="38" y2="38" gradientUnits="userSpaceOnUse"><stop offset="0" stop-color="#23c8de"/><stop offset="1" stop-color="#117bc9"/></linearGradient><linearGradient id="linear-gradient-2" x1="13" y1="42" x2="23" y2="42" xlink:href="#linear-gradient"/><linearGradient id="linear-gradient-3" x1="20" y1="52" x2="44" y2="52" xlink:href="#linear-gradient"/><linearGradient id="linear-gradient-4" x1="9" y1="53.5" x2="22.92" y2="53.5" xlink:href="#linear-gradient"/><linearGradient id="linear-gradient-5" x1="41" y1="42" x2="51" y2="42" xlink:href="#linear-gradient"/><linearGradient id="linear-gradient-6" x1="41.08" y1="53.5" x2="55" y2="53.5" xlink:href="#linear-gradient"/><linearGradient id="linear-gradient-7" x1="4" y1="59" x2="60" y2="59" gradientUnits="userSpaceOnUse"><stop offset="0" stop-color="#243384"/><stop offset="1" stop-color="#0f274b"/></linearGradient><linearGradient id="linear-gradient-8" x1="5" y1="17" x2="59" y2="17" gradientUnits="userSpaceOnUse"><stop offset="0" stop-color="#e2f0f3"/><stop offset="1" stop-color="#a5b7c3"/></linearGradient><linearGradient id="linear-gradient-9" x1="13.93" y1="13.54" x2="21.93" y2="13.54" gradientUnits="userSpaceOnUse"><stop offset="0" stop-color="#efad7b"/><stop offset="1" stop-color="#ed7a5f"/></linearGradient><linearGradient id="linear-gradient-10" x1="27.86" y1="14.48" x2="36.14" y2="14.48" xlink:href="#linear-gradient-9"/><linearGradient id="linear-gradient-11" x1="41.93" y1="14.54" x2="49.93" y2="14.54" xlink:href="#linear-gradient-9"/></defs><title>consumer discuss</title><g id="consumer_discuss" data-name="consumer discuss"><rect class="cls-1" x="26" y="31" width="12" height="14" rx="6" ry="6"/><rect class="cls-2" x="13" y="36" width="10" height="12" rx="5" ry="5"/><path class="cls-3" d="M44,59H20l1.11-5.2A11.13,11.13,0,0,1,39,47.48a11.18,11.18,0,0,1,2.08,2.21,11.06,11.06,0,0,1,1.81,4.11Z"/><path class="cls-4" d="M22.92,49.69a11.06,11.06,0,0,0-1.81,4.11L20,59H9l.84-4.09A8.44,8.44,0,0,1,18,48,8,8,0,0,1,22.92,49.69Z"/><rect class="cls-5" x="41" y="36" width="10" height="12" rx="5" ry="5"/><path class="cls-6" d="M55,59H44l-1.11-5.2a11.06,11.06,0,0,0-1.81-4.11A8,8,0,0,1,46,48a8.13,8.13,0,0,1,5.25,1.94,8.8,8.8,0,0,1,2.91,5Z"/><path class="cls-7" d="M59,60H5a1,1,0,0,1,0-2H59a1,1,0,0,1,0,2Z"/><path class="cls-8" d="M53,5H11a6,6,0,0,0-6,6v6a6,6,0,0,0,6,6h4l3,6,3-6h9l2,4,2-4h9l3,6,3-6h4a6,6,0,0,0,6-6V11A6,6,0,0,0,53,5Z"/><polygon class="cls-9" points="17.93 9.73 19.25 12.12 21.93 12.64 20.07 14.64 20.4 17.34 17.93 16.19 15.46 17.34 15.79 14.64 13.93 12.64 16.6 12.12 17.93 9.73"/><path class="cls-10" d="M35.56,14.44a2,2,0,0,0-2.86-2.86l-.7.71-.72-.71a2,2,0,1,0-2.83,2.82L32,18Z"/><polygon class="cls-11" points="45.93 10.73 47.25 13.12 49.93 13.64 48.07 15.64 48.4 18.34 45.93 17.19 43.45 18.34 43.78 15.64 41.93 13.64 44.6 13.12 45.93 10.73"/></g></svg>