<svg xmlns="http://www.w3.org/2000/svg" xmlns:xlink="http://www.w3.org/1999/xlink" viewBox="0 0 64 64"><defs><style>.cls-1{fill:url(#linear-gradient);}.cls-2{fill:url(#linear-gradient-2);}.cls-3{fill:url(#linear-gradient-3);}.cls-4{fill:url(#linear-gradient-4);}.cls-5{fill:url(#linear-gradient-5);}.cls-6{fill:url(#linear-gradient-6);}.cls-7{fill:url(#linear-gradient-7);}.cls-8{fill:url(#linear-gradient-8);}.cls-9{fill:url(#linear-gradient-9);}.cls-10{fill:url(#linear-gradient-10);}.cls-11{fill:url(#linear-gradient-11);}.cls-12{fill:url(#linear-gradient-12);}.cls-13{fill:url(#linear-gradient-13);}.cls-14{fill:url(#linear-gradient-14);}.cls-15{fill:url(#linear-gradient-15);}.cls-16{fill:url(#linear-gradient-16);}.cls-17{fill:url(#linear-gradient-17);}.cls-18{fill:url(#linear-gradient-18);}.cls-19{fill:url(#linear-gradient-19);}</style><linearGradient id="linear-gradient" x1="5" y1="8" x2="59" y2="8" gradientUnits="userSpaceOnUse"><stop offset="0" stop-color="#243384"/><stop offset="1" stop-color="#0f274b"/></linearGradient><linearGradient id="linear-gradient-2" x1="8" y1="30" x2="56" y2="30" gradientUnits="userSpaceOnUse"><stop offset="0" stop-color="#e2f0f3"/><stop offset="1" stop-color="#a5b7c3"/></linearGradient><linearGradient id="linear-gradient-3" x1="31" y1="52" x2="33" y2="52" xlink:href="#linear-gradient-2"/><linearGradient id="linear-gradient-4" x1="5" y1="49" x2="59" y2="49" gradientUnits="userSpaceOnUse"><stop offset="0" stop-color="#23c8de"/><stop offset="1" stop-color="#117bc9"/></linearGradient><linearGradient id="linear-gradient-5" x1="19" y1="23" x2="25" y2="23" gradientUnits="userSpaceOnUse"><stop offset="0" stop-color="#efad7b"/><stop offset="1" stop-color="#ed7a5f"/></linearGradient><linearGradient id="linear-gradient-6" x1="28" x2="32" xlink:href="#linear-gradient-5"/><linearGradient id="linear-gradient-7" x1="28" y1="18.5" x2="32" y2="18.5" xlink:href="#linear-gradient-5"/><linearGradient id="linear-gradient-8" x1="28" y1="27.5" x2="32" y2="27.5" xlink:href="#linear-gradient-5"/><linearGradient id="linear-gradient-9" x1="15" y1="28" x2="17" y2="28" xlink:href="#linear-gradient-5"/><linearGradient id="linear-gradient-10" x1="36" y1="37" x2="47.95" y2="37" xlink:href="#linear-gradient-4"/><linearGradient id="linear-gradient-11" x1="43" y1="35.98" x2="50" y2="35.98" xlink:href="#linear-gradient-5"/><linearGradient id="linear-gradient-12" x1="12" y1="35" x2="27" y2="35" xlink:href="#linear-gradient-4"/><linearGradient id="linear-gradient-13" x1="12" y1="39" x2="27" y2="39" xlink:href="#linear-gradient-4"/><linearGradient id="linear-gradient-14" x1="12" y1="43" x2="22" y2="43" xlink:href="#linear-gradient-4"/><linearGradient id="linear-gradient-15" x1="36" y1="18" x2="51" y2="18" xlink:href="#linear-gradient-4"/><linearGradient id="linear-gradient-16" x1="36" y1="22" x2="51" y2="22" xlink:href="#linear-gradient-4"/><linearGradient id="linear-gradient-17" x1="36" y1="26" x2="46" y2="26" xlink:href="#linear-gradient-4"/><linearGradient id="linear-gradient-18" x1="29" y1="57" x2="35" y2="57" xlink:href="#linear-gradient"/><linearGradient id="linear-gradient-19" x1="13" x2="19" xlink:href="#linear-gradient-5"/></defs><title>presentation</title><g id="presentation"><rect class="cls-1" x="5" y="5" width="54" height="6" rx="3" ry="3"/><rect class="cls-2" x="8" y="11" width="48" height="38"/><path class="cls-3" d="M32,56a1,1,0,0,1-1-1V49a1,1,0,0,1,2,0v6A1,1,0,0,1,32,56Z"/><path class="cls-4" d="M58,50H6a1,1,0,0,1,0-2H58a1,1,0,0,1,0,2Z"/><polygon class="cls-5" points="19 20 25 17 25 29 19 26 19 20"/><path class="cls-6" d="M31,24H29a1,1,0,0,1,0-2h2a1,1,0,0,1,0,2Z"/><path class="cls-7" d="M29,20a1,1,0,0,1-.89-.55,1,1,0,0,1,.44-1.34l2-1a1,1,0,1,1,.9,1.78l-2,1A.93.93,0,0,1,29,20Z"/><path class="cls-8" d="M31,29a.93.93,0,0,1-.45-.11l-2-1a1,1,0,0,1,.9-1.78l2,1a1,1,0,0,1,.44,1.34A1,1,0,0,1,31,29Z"/><path class="cls-9" d="M16,31a1,1,0,0,1-1-1V26a1,1,0,0,1,2,0v4A1,1,0,0,1,16,31Z"/><path class="cls-10" d="M48,42a7,7,0,1,1-5-12v7Z"/><path class="cls-11" d="M50,37a7,7,0,0,1-2,5l-5-5V30A7,7,0,0,1,50,37Z"/><path class="cls-12" d="M26,36H13a1,1,0,0,1,0-2H26a1,1,0,0,1,0,2Z"/><path class="cls-13" d="M26,40H13a1,1,0,0,1,0-2H26a1,1,0,0,1,0,2Z"/><path class="cls-14" d="M21,44H13a1,1,0,0,1,0-2h8a1,1,0,0,1,0,2Z"/><path class="cls-15" d="M50,19H37a1,1,0,0,1,0-2H50a1,1,0,0,1,0,2Z"/><path class="cls-16" d="M50,23H37a1,1,0,0,1,0-2H50a1,1,0,0,1,0,2Z"/><path class="cls-17" d="M45,27H37a1,1,0,0,1,0-2h8a1,1,0,0,1,0,2Z"/><path class="cls-18" d="M32,60a3,3,0,1,1,3-3A3,3,0,0,1,32,60Zm0-4a1,1,0,1,0,1,1A1,1,0,0,0,32,56Z"/><path class="cls-19" d="M16,20h3a0,0,0,0,1,0,0v6a0,0,0,0,1,0,0H16a3,3,0,0,1-3-3v0A3,3,0,0,1,16,20Z"/></g></svg>