<svg xmlns="http://www.w3.org/2000/svg" xmlns:xlink="http://www.w3.org/1999/xlink" viewBox="0 0 64 64"><defs><style>.cls-1{fill:url(#linear-gradient);}.cls-2{fill:url(#linear-gradient-2);}.cls-3{fill:url(#linear-gradient-3);}.cls-4{fill:url(#linear-gradient-4);}.cls-5{fill:url(#linear-gradient-5);}.cls-6{fill:url(#linear-gradient-6);}.cls-7{fill:url(#linear-gradient-7);}.cls-8{fill:url(#linear-gradient-8);}.cls-9{fill:url(#linear-gradient-9);}.cls-10{fill:url(#linear-gradient-10);}.cls-11{fill:url(#linear-gradient-11);}.cls-12{fill:url(#linear-gradient-12);}.cls-13{fill:url(#linear-gradient-13);}.cls-14{fill:url(#linear-gradient-14);}.cls-15{fill:url(#linear-gradient-15);}</style><linearGradient id="linear-gradient" x1="5" y1="30.5" x2="59" y2="30.5" gradientUnits="userSpaceOnUse"><stop offset="0" stop-color="#23c8de"/><stop offset="1" stop-color="#117bc9"/></linearGradient><linearGradient id="linear-gradient-2" x1="17" y1="10" x2="47" y2="10" gradientUnits="userSpaceOnUse"><stop offset="0" stop-color="#e2f0f3"/><stop offset="1" stop-color="#a5b7c3"/></linearGradient><linearGradient id="linear-gradient-3" y1="48.5" y2="48.5" xlink:href="#linear-gradient-2"/><linearGradient id="linear-gradient-4" x1="12" y1="44.5" x2="17" y2="44.5" gradientUnits="userSpaceOnUse"><stop offset="0" stop-color="#243384"/><stop offset="1" stop-color="#0f274b"/></linearGradient><linearGradient id="linear-gradient-5" x1="47" x2="52" xlink:href="#linear-gradient-4"/><linearGradient id="linear-gradient-6" x1="41" y1="8" y2="8" xlink:href="#linear-gradient-2"/><linearGradient id="linear-gradient-7" x1="10" y1="21.5" x2="16" y2="21.5" gradientUnits="userSpaceOnUse"><stop offset="0" stop-color="#efad7b"/><stop offset="1" stop-color="#ed7a5f"/></linearGradient><linearGradient id="linear-gradient-8" x1="51" y1="21" x2="55" y2="21" xlink:href="#linear-gradient-7"/><linearGradient id="linear-gradient-9" x1="44" y1="21" x2="48" y2="21" xlink:href="#linear-gradient-7"/><linearGradient id="linear-gradient-10" x1="29" y1="47" x2="35" y2="47" xlink:href="#linear-gradient-7"/><linearGradient id="linear-gradient-11" x1="38" y1="47" x2="42" y2="47" xlink:href="#linear-gradient-7"/><linearGradient id="linear-gradient-12" x1="38" y1="42.5" x2="42" y2="42.5" xlink:href="#linear-gradient-7"/><linearGradient id="linear-gradient-13" x1="38" y1="51.5" x2="42" y2="51.5" xlink:href="#linear-gradient-7"/><linearGradient id="linear-gradient-14" x1="25" y1="52" x2="27" y2="52" xlink:href="#linear-gradient-7"/><linearGradient id="linear-gradient-15" x1="23" y1="47" x2="29" y2="47" xlink:href="#linear-gradient-7"/></defs><title>print</title><g id="print"><path class="cls-1" d="M59,19V42a4,4,0,0,1-4,4H52V38H12v8H9a4,4,0,0,1-4-4V19a4,4,0,0,1,4-4H55A4,4,0,0,1,59,19Z"/><polygon class="cls-2" points="47 11 47 15 17 15 17 5 41 5 47 11"/><rect class="cls-3" x="17" y="38" width="30" height="21"/><path class="cls-4" d="M17,38V51H15a3,3,0,0,1-3-3V38Z"/><path class="cls-5" d="M52,38V48a3,3,0,0,1-3,3H47V38Z"/><polygon class="cls-6" points="47 11 41 11 41 5 47 11"/><rect class="cls-7" x="10" y="20" width="6" height="3" rx="1.5" ry="1.5"/><path class="cls-8" d="M53,23a2,2,0,1,1,2-2A2,2,0,0,1,53,23Zm0-2Z"/><path class="cls-9" d="M46,23a2,2,0,1,1,2-2A2,2,0,0,1,46,23Zm0-2Z"/><polygon class="cls-10" points="29 44 35 41 35 53 29 50 29 44"/><path class="cls-11" d="M41,48H39a1,1,0,0,1,0-2h2a1,1,0,0,1,0,2Z"/><path class="cls-12" d="M39,44a1,1,0,0,1-.89-.55,1,1,0,0,1,.44-1.34l2-1a1,1,0,1,1,.9,1.78l-2,1A.93.93,0,0,1,39,44Z"/><path class="cls-13" d="M41,53a.93.93,0,0,1-.45-.11l-2-1a1,1,0,1,1,.9-1.78l2,1a1,1,0,0,1,.44,1.34A1,1,0,0,1,41,53Z"/><path class="cls-14" d="M26,55a1,1,0,0,1-1-1V50a1,1,0,0,1,2,0v4A1,1,0,0,1,26,55Z"/><path class="cls-15" d="M26,44h3a0,0,0,0,1,0,0v6a0,0,0,0,1,0,0H26a3,3,0,0,1-3-3v0a3,3,0,0,1,3-3Z"/></g></svg>