<svg xmlns="http://www.w3.org/2000/svg" xmlns:xlink="http://www.w3.org/1999/xlink" viewBox="0 0 64 64"><defs><style>.cls-1{fill:url(#linear-gradient);}.cls-2{fill:url(#linear-gradient-2);}.cls-3{fill:url(#linear-gradient-3);}.cls-4{fill:url(#linear-gradient-4);}.cls-5{fill:url(#linear-gradient-5);}.cls-6{fill:url(#linear-gradient-6);}.cls-7{fill:url(#linear-gradient-7);}.cls-8{fill:url(#linear-gradient-8);}</style><linearGradient id="linear-gradient" x1="2" y1="19" x2="62" y2="19" gradientUnits="userSpaceOnUse"><stop offset="0" stop-color="#e2f0f3"/><stop offset="1" stop-color="#a5b7c3"/></linearGradient><linearGradient id="linear-gradient-2" x1="28" y1="19" x2="36" y2="19" gradientUnits="userSpaceOnUse"><stop offset="0" stop-color="#efad7b"/><stop offset="1" stop-color="#ed7a5f"/></linearGradient><linearGradient id="linear-gradient-3" x1="17" x2="25" xlink:href="#linear-gradient-2"/><linearGradient id="linear-gradient-4" x1="6" x2="14" xlink:href="#linear-gradient-2"/><linearGradient id="linear-gradient-5" x1="39" x2="47" xlink:href="#linear-gradient-2"/><linearGradient id="linear-gradient-6" x1="50" x2="58" xlink:href="#linear-gradient-2"/><linearGradient id="linear-gradient-7" x1="34" y1="40" x2="59" y2="40" gradientUnits="userSpaceOnUse"><stop offset="0" stop-color="#23c8de"/><stop offset="1" stop-color="#117bc9"/></linearGradient><linearGradient id="linear-gradient-8" x1="35.98" y1="40.98" x2="39.52" y2="37.45" xlink:href="#linear-gradient-7"/></defs><title>rating</title><g id="rating"><path class="cls-1" d="M62,15v8a6,6,0,0,1-6,6H44V27.5a2.5,2.5,0,0,0-5,0V29H8a6,6,0,0,1-6-6V15A6,6,0,0,1,8,9H56A6,6,0,0,1,62,15Z"/><polygon class="cls-2" points="32 15.2 33.31 17.59 36 18.1 34.13 20.09 34.47 22.8 32 21.64 29.53 22.8 29.87 20.09 28 18.1 30.69 17.59 32 15.2"/><polygon class="cls-3" points="21 15.2 22.31 17.59 25 18.1 23.13 20.09 23.47 22.8 21 21.64 18.53 22.8 18.87 20.09 17 18.1 19.69 17.59 21 15.2"/><polygon class="cls-4" points="10 15.2 11.31 17.59 14 18.1 12.13 20.09 12.47 22.8 10 21.64 7.53 22.8 7.87 20.09 6 18.1 8.69 17.59 10 15.2"/><polygon class="cls-5" points="43 15.2 44.31 17.59 47 18.1 45.13 20.09 45.47 22.8 43 21.64 40.53 22.8 40.87 20.09 39 18.1 41.69 17.59 43 15.2"/><polygon class="cls-6" points="54 15.2 55.31 17.59 58 18.1 56.13 20.09 56.47 22.8 54 21.64 51.53 22.8 51.87 20.09 50 18.1 52.69 17.59 54 15.2"/><path class="cls-7" d="M59,38.5V43A12,12,0,0,1,47,55H46A12,12,0,0,1,34,43V40a5,5,0,0,1,3-4.59A5.11,5.11,0,0,1,39,35V27.5a2.5,2.5,0,0,1,5,0v9a2.5,2.5,0,0,1,5,0v1a2.5,2.5,0,0,1,5,0v1a2.5,2.5,0,0,1,5,0Z"/><path class="cls-8" d="M39,35v8H34V40a5,5,0,0,1,3-4.59A5.11,5.11,0,0,1,39,35Z"/></g></svg>