<svg xmlns="http://www.w3.org/2000/svg" xmlns:xlink="http://www.w3.org/1999/xlink" viewBox="0 0 64 64"><defs><style>.cls-1{fill:url(#linear-gradient);}.cls-2{fill:url(#linear-gradient-2);}.cls-3{fill:url(#linear-gradient-3);}.cls-4{fill:url(#linear-gradient-4);}.cls-5{fill:url(#linear-gradient-5);}.cls-6{fill:url(#linear-gradient-6);}.cls-7{fill:url(#linear-gradient-7);}.cls-8{fill:url(#linear-gradient-8);}.cls-9{fill:url(#linear-gradient-9);}.cls-10{fill:url(#linear-gradient-10);}.cls-11{fill:url(#linear-gradient-11);}.cls-12{fill:url(#linear-gradient-12);}</style><linearGradient id="linear-gradient" x1="11" y1="42" x2="17" y2="42" gradientUnits="userSpaceOnUse"><stop offset="0" stop-color="#efad7b"/><stop offset="1" stop-color="#ed7a5f"/></linearGradient><linearGradient id="linear-gradient-2" x1="47" x2="53" gradientTransform="translate(100 84) rotate(180)" xlink:href="#linear-gradient"/><linearGradient id="linear-gradient-3" x1="35" y1="53" x2="57" y2="53" gradientUnits="userSpaceOnUse"><stop offset="0" stop-color="#e2f0f3"/><stop offset="1" stop-color="#a5b7c3"/></linearGradient><linearGradient id="linear-gradient-4" x1="53.8" y1="30" x2="56" y2="30" xlink:href="#linear-gradient-3"/><linearGradient id="linear-gradient-5" x1="8" y1="30" x2="10.2" y2="30" xlink:href="#linear-gradient-3"/><linearGradient id="linear-gradient-6" x1="8.2" y1="15" x2="55.8" y2="15" gradientUnits="userSpaceOnUse"><stop offset="0" stop-color="#23c8de"/><stop offset="1" stop-color="#117bc9"/></linearGradient><linearGradient id="linear-gradient-7" x1="24" y1="26.5" x2="31" y2="26.5" gradientUnits="userSpaceOnUse"><stop offset="0" stop-color="#243384"/><stop offset="1" stop-color="#0f274b"/></linearGradient><linearGradient id="linear-gradient-8" x1="33" x2="40" xlink:href="#linear-gradient-7"/><linearGradient id="linear-gradient-9" x1="19" y1="28.5" x2="45" y2="28.5" xlink:href="#linear-gradient"/><linearGradient id="linear-gradient-10" x1="28" y1="57" x2="36" y2="57" xlink:href="#linear-gradient-7"/><linearGradient id="linear-gradient-11" x1="5" y1="42" x2="11" y2="42" xlink:href="#linear-gradient-7"/><linearGradient id="linear-gradient-12" x1="53" y1="42" x2="59" y2="42" gradientTransform="translate(112 84) rotate(-180)" xlink:href="#linear-gradient-7"/></defs><title>support</title><g id="support"><rect class="cls-1" x="11" y="32" width="6" height="20" rx="3" ry="3"/><rect class="cls-2" x="47" y="32" width="6" height="20" rx="3" ry="3" transform="translate(100 84) rotate(-180)"/><path class="cls-3" d="M50,58H36a1,1,0,0,1,0-2H50a5,5,0,0,0,5-5V49a1,1,0,0,1,2,0v2A7,7,0,0,1,50,58Z"/><path class="cls-4" d="M55,36a1,1,0,0,1-1-1V28a21.39,21.39,0,0,0-.19-2.87,1,1,0,1,1,2-.26A23.51,23.51,0,0,1,56,28v7A1,1,0,0,1,55,36Z"/><path class="cls-5" d="M9,36a1,1,0,0,1-1-1V28a23.51,23.51,0,0,1,.21-3.13,1,1,0,1,1,2,.26A21.39,21.39,0,0,0,10,28v7A1,1,0,0,1,9,36Z"/><path class="cls-6" d="M49,11A24,24,0,0,0,8.21,24.87,1,1,0,0,0,9.2,26h.29a7.53,7.53,0,0,0,6.88-4.67,17,17,0,0,1,31.19-.18A8,8,0,0,0,54.8,26a1,1,0,0,0,1-1.13A24.07,24.07,0,0,0,49,11Z"/><path class="cls-7" d="M30,32H25a1,1,0,0,1-1-1V30a1,1,0,0,1,.29-.71l4.38-4.38A1.12,1.12,0,0,0,27.88,23h-.76A1.12,1.12,0,0,0,26,24.12V25a1,1,0,0,1-2,0v-.88A3.12,3.12,0,0,1,27.12,21h.76A3.12,3.12,0,0,1,31,24.12a3.09,3.09,0,0,1-.91,2.21L26.41,30H30a1,1,0,0,1,0,2Z"/><path class="cls-8" d="M39,21a1,1,0,0,0-1,1v4H37a2,2,0,0,1-2-2V22a1,1,0,0,0-2,0v2a4,4,0,0,0,4,4h1v3a1,1,0,0,0,2,0V22A1,1,0,0,0,39,21Z"/><path class="cls-9" d="M32,14a13,13,0,0,0-.39,26l-1.32,1.31a1,1,0,0,0,0,1.42,1,1,0,0,0,1.42,0l3-3a1,1,0,0,0,0-1.42l-3-3a1,1,0,0,0-1.42,1.42L31.56,38A11,11,0,1,1,43,27a1,1,0,0,0,2,0A13,13,0,0,0,32,14Z"/><rect class="cls-10" x="28" y="55" width="8" height="4" rx="2" ry="2"/><path class="cls-11" d="M8,35h3a0,0,0,0,1,0,0V49a0,0,0,0,1,0,0H8a3,3,0,0,1-3-3V38A3,3,0,0,1,8,35Z"/><path class="cls-12" d="M56,35h3a0,0,0,0,1,0,0V49a0,0,0,0,1,0,0H56a3,3,0,0,1-3-3V38A3,3,0,0,1,56,35Z" transform="translate(112 84) rotate(180)"/></g></svg>