<svg xmlns="http://www.w3.org/2000/svg" xmlns:xlink="http://www.w3.org/1999/xlink" viewBox="0 0 64 64"><defs><style>.cls-1{fill:url(#linear-gradient);}.cls-2{fill:url(#linear-gradient-2);}.cls-3{fill:url(#linear-gradient-3);}.cls-4{fill:url(#linear-gradient-4);}.cls-5{fill:url(#linear-gradient-5);}.cls-6{fill:url(#linear-gradient-6);}.cls-7{fill:url(#linear-gradient-7);}.cls-8{fill:url(#linear-gradient-8);}.cls-9{fill:url(#linear-gradient-9);}.cls-10{fill:url(#linear-gradient-10);}.cls-11{fill:url(#linear-gradient-11);}.cls-12{fill:url(#linear-gradient-12);}.cls-13{fill:url(#linear-gradient-13);}</style><linearGradient id="linear-gradient" x1="5" y1="25" x2="60" y2="25" gradientUnits="userSpaceOnUse"><stop offset="0" stop-color="#e2f0f3"/><stop offset="1" stop-color="#a5b7c3"/></linearGradient><linearGradient id="linear-gradient-2" x1="5" y1="52" x2="60" y2="52" gradientUnits="userSpaceOnUse"><stop offset="0" stop-color="#23c8de"/><stop offset="1" stop-color="#117bc9"/></linearGradient><linearGradient id="linear-gradient-3" x1="49" y1="52" x2="56" y2="52" gradientUnits="userSpaceOnUse"><stop offset="0" stop-color="#243384"/><stop offset="1" stop-color="#0f274b"/></linearGradient><linearGradient id="linear-gradient-4" x1="19" x2="47" xlink:href="#linear-gradient-3"/><linearGradient id="linear-gradient-5" x1="13" y1="24" x2="21" y2="24" xlink:href="#linear-gradient-3"/><linearGradient id="linear-gradient-6" x1="21" y1="24" x2="37" y2="24" xlink:href="#linear-gradient-2"/><linearGradient id="linear-gradient-7" x1="18" y1="33.5" x2="22" y2="33.5" xlink:href="#linear-gradient-3"/><linearGradient id="linear-gradient-8" x1="37" y1="24" x2="40" y2="24" gradientUnits="userSpaceOnUse"><stop offset="0" stop-color="#efad7b"/><stop offset="1" stop-color="#ed7a5f"/></linearGradient><linearGradient id="linear-gradient-9" x1="43" x2="49" xlink:href="#linear-gradient-8"/><linearGradient id="linear-gradient-10" x1="42" y1="17" x2="48" y2="17" xlink:href="#linear-gradient-8"/><linearGradient id="linear-gradient-11" x1="42" y1="31" x2="48" y2="31" xlink:href="#linear-gradient-8"/><linearGradient id="linear-gradient-12" x1="10" y1="52" x2="15" y2="52" xlink:href="#linear-gradient-8"/><linearGradient id="linear-gradient-13" x1="46" y1="52" x2="50" y2="52" xlink:href="#linear-gradient-8"/></defs><title>video comercil</title><g id="video_comercil" data-name="video comercil"><path class="cls-1" d="M60,9V45H5V9A4,4,0,0,1,9,5H56A4,4,0,0,1,60,9Z"/><path class="cls-2" d="M60,45V55a4,4,0,0,1-4,4H9a4,4,0,0,1-4-4V45Z"/><path class="cls-3" d="M55,53H50a1,1,0,0,1,0-2h5a1,1,0,0,1,0,2Z"/><path class="cls-4" d="M46,53H20a1,1,0,0,1,0-2H46a1,1,0,0,1,0,2Z"/><path class="cls-5" d="M18,19h3a0,0,0,0,1,0,0V29a0,0,0,0,1,0,0H18a5,5,0,0,1-5-5v0A5,5,0,0,1,18,19Z"/><path class="cls-6" d="M37,34h0a26.85,26.85,0,0,0-15.6-5H21V19h.4A26.85,26.85,0,0,0,37,14h0Z"/><path class="cls-7" d="M18,29h4a0,0,0,0,1,0,0v7a2,2,0,0,1-2,2h0a2,2,0,0,1-2-2V29A0,0,0,0,1,18,29Z"/><path class="cls-8" d="M37,22h1a2,2,0,0,1,2,2v0a2,2,0,0,1-2,2H37a0,0,0,0,1,0,0V22A0,0,0,0,1,37,22Z"/><path class="cls-9" d="M48,25H44a1,1,0,0,1,0-2h4a1,1,0,0,1,0,2Z"/><path class="cls-10" d="M43,19a1,1,0,0,1-.89-.55,1,1,0,0,1,.44-1.34l4-2a1,1,0,1,1,.9,1.78l-4,2A.93.93,0,0,1,43,19Z"/><path class="cls-11" d="M47,33a.93.93,0,0,1-.45-.11l-4-2a1,1,0,1,1,.9-1.78l4,2a1,1,0,0,1,.44,1.34A1,1,0,0,1,47,33Z"/><polygon class="cls-12" points="15 52 10 55 10 49 15 52"/><circle class="cls-13" cx="48" cy="52" r="2"/></g></svg>