<svg xmlns="http://www.w3.org/2000/svg" xmlns:xlink="http://www.w3.org/1999/xlink" viewBox="0 0 64 64"><defs><style>.cls-1{fill:url(#linear-gradient);}.cls-2{fill:url(#linear-gradient-2);}.cls-3{fill:url(#linear-gradient-3);}.cls-4{fill:url(#linear-gradient-4);}.cls-5{fill:url(#linear-gradient-5);}.cls-6{fill:url(#linear-gradient-6);}.cls-7{fill:url(#linear-gradient-7);}.cls-8{fill:url(#linear-gradient-8);}.cls-9{fill:url(#linear-gradient-9);}</style><linearGradient id="linear-gradient" x1="3" y1="32" x2="61" y2="32" gradientUnits="userSpaceOnUse"><stop offset="0" stop-color="#243384"/><stop offset="1" stop-color="#0f274b"/></linearGradient><linearGradient id="linear-gradient-2" x1="11" y1="32" x2="53" y2="32" gradientUnits="userSpaceOnUse"><stop offset="0" stop-color="#23c8de"/><stop offset="1" stop-color="#117bc9"/></linearGradient><linearGradient id="linear-gradient-3" x1="15.49" y1="32" x2="48.51" y2="32" gradientUnits="userSpaceOnUse"><stop offset="0" stop-color="#e2f0f3"/><stop offset="1" stop-color="#a5b7c3"/></linearGradient><linearGradient id="linear-gradient-4" x1="31" y1="5" x2="33" y2="5" gradientUnits="userSpaceOnUse"><stop offset="0" stop-color="#efad7b"/><stop offset="1" stop-color="#ed7a5f"/></linearGradient><linearGradient id="linear-gradient-5" y1="59" y2="59" xlink:href="#linear-gradient-4"/><linearGradient id="linear-gradient-6" x1="1" y1="32" x2="9" y2="32" xlink:href="#linear-gradient-4"/><linearGradient id="linear-gradient-7" x1="55" y1="32" x2="63" y2="32" xlink:href="#linear-gradient-4"/><linearGradient id="linear-gradient-8" x1="25" y1="32" x2="39" y2="32" xlink:href="#linear-gradient-4"/><linearGradient id="linear-gradient-9" x1="29" x2="35" xlink:href="#linear-gradient"/></defs><title>vision</title><g id="vision"><path class="cls-1" d="M32,61A29,29,0,1,1,61,32,29,29,0,0,1,32,61ZM32,7A25,25,0,1,0,57,32,25,25,0,0,0,32,7Z"/><path class="cls-2" d="M32,53A21,21,0,1,1,53,32,21,21,0,0,1,32,53Zm0-40A19,19,0,1,0,51,32,19,19,0,0,0,32,13Z"/><ellipse class="cls-3" cx="32" cy="32" rx="16.51" ry="10"/><path class="cls-4" d="M32,9a1,1,0,0,1-1-1V2a1,1,0,0,1,2,0V8A1,1,0,0,1,32,9Z"/><path class="cls-5" d="M32,63a1,1,0,0,1-1-1V56a1,1,0,0,1,2,0v6A1,1,0,0,1,32,63Z"/><path class="cls-6" d="M8,33H2a1,1,0,0,1,0-2H8a1,1,0,0,1,0,2Z"/><path class="cls-7" d="M62,33H56a1,1,0,0,1,0-2h6a1,1,0,0,1,0,2Z"/><circle class="cls-8" cx="32" cy="32" r="7"/><circle class="cls-9" cx="32" cy="32" r="3"/></g></svg>