<?xml version="1.0" encoding="utf-8"?>
<!-- Generator: Adobe Illustrator 24.2.3, SVG Export Plug-In . SVG Version: 6.00 Build 0)  -->
<svg version="1.1" id="MARKETING_STRATEGY" xmlns="http://www.w3.org/2000/svg" xmlns:xlink="http://www.w3.org/1999/xlink" x="0px"
	 y="0px" viewBox="0 0 3563.94 2376.08" style="enable-background:new 0 0 3563.94 2376.08;" xml:space="preserve">
<style type="text/css">
	.st0{fill:#FFFFFF;}
	.st1{fill:#4F399B;}
	.st2{font-family:'Arial-BoldMT';}
	.st3{font-size:120px;}
	.st4{fill:#7070CC;}
	.st5{fill:#9A9AE8;}
	.st6{fill:#171755;}
	.st7{fill:#262668;}
	.st8{fill:#242460;}
	.st9{fill:#C14F02;}
	.st10{fill:#C4BEF3;}
	.st11{fill:#EF6100;}
	.st12{fill:#FC5D9D;}
	.st13{fill:#4D4D59;}
	.st14{opacity:0.38;fill:#FFFFFF;}
	.st15{fill:#FF9E26;}
	.st16{fill:#F3AA66;}
	.st17{fill:#FF7E27;}
	.st18{fill:#DD905B;}
	.st19{fill:#E55C00;}
	.st20{fill:#2F2F75;}
	.st21{fill:#F2B5A7;}
	.st22{fill:#333333;}
	.st23{fill:#232323;}
	.st24{fill:#191919;}
	.st25{fill:#FBAA78;}
	.st26{fill:#101047;}
	.st27{fill:#B5B2F7;}
	.st28{fill:none;stroke:#727B8E;stroke-miterlimit:10;}
	.st29{fill:#9B94FD;}
</style>
<g id="Backgrond">
	<rect id="bacground_1_" x="0" class="st0" width="3563.94" height="2376.08"/>
</g>
<g id="Font_1_">
	<text id="Font" transform="matrix(1 0 0 1 111.7258 184.5732)"><tspan x="0" y="0" class="st1 st2 st3">MARKETING </tspan><tspan x="0" y="144" class="st1 st2 st3">STRATEGY</tspan></text>
</g>
<g id="Chess_boy">
	<ellipse class="st4" cx="1943.4" cy="1728.55" rx="116.02" ry="59.86"/>
	<ellipse class="st5" cx="1943.4" cy="1686.43" rx="90.84" ry="52.29"/>
	<path class="st6" d="M2034.23,1686.81c-0.36,28.71-40.88,51.91-90.83,51.91c-50.1,0-90.73-23.35-90.84-52.18
		c0,2.73,0,16.23,0,24.89c0,28.88,40.67,52.29,90.84,52.29c50.17,0,90.84-23.41,90.84-52.29
		C2034.24,1702.37,2034.24,1690.46,2034.23,1686.81z"/>
	<path class="st7" d="M1943.4,1466.64l-25.22-0.2v26c0,0-45.59,183.45-42.02,196.05c0,20.23,30.1,36.64,67.23,36.64
		s67.63-16.09,67.23-36.64c0-23.6-42.02-196.05-42.02-196.05v-26L1943.4,1466.64z"/>
	<ellipse class="st4" cx="1943.4" cy="1448" rx="36.74" ry="21.15"/>
	<path class="st7" d="M1968.1,1400.97c0,0.99,0,40.44,0,42.9c0,7.85-11.06,14.22-24.7,14.22s-24.7-6.37-24.7-14.22
		c0-2.35,0-42.24,0-42.98L1968.1,1400.97z"/>
	<path class="st8" d="M1980.14,1448.15c-0.14,11.61-16.53,20.99-36.73,20.99c-20.26,0-36.69-9.44-36.74-21.1c0,1.1,0,6.56,0,10.06
		c0,11.68,16.45,21.15,36.74,21.15c20.29,0,36.74-9.47,36.74-21.15C1980.14,1454.44,1980.14,1449.63,1980.14,1448.15z"/>
	<ellipse class="st5" cx="1943.4" cy="1376.28" rx="36.74" ry="21.15"/>
	<path class="st8" d="M1980.14,1376.43c-0.14,11.61-16.53,20.99-36.73,20.99c-20.26,0-36.69-9.44-36.74-21.1c0,1.1,0,6.56,0,10.06
		c0,11.68,16.45,21.15,36.74,21.15c20.29,0,36.74-9.47,36.74-21.15C1980.14,1382.72,1980.14,1377.91,1980.14,1376.43z"/>
	
		<ellipse transform="matrix(0.7071 -0.7071 0.7071 0.7071 -391.1458 1771.9869)" class="st8" cx="1943.4" cy="1358.15" rx="22.31" ry="22.31"/>
	<g>
		<ellipse class="st4" cx="1769.24" cy="1634.13" rx="93.82" ry="48.41"/>
		<ellipse class="st4" cx="1769.24" cy="1599.85" rx="77.92" ry="44.86"/>
		<path class="st6" d="M1847.15,1600.17c-0.31,24.62-35.07,44.53-77.91,44.53c-42.98,0-77.83-20.03-77.92-44.76
			c0,2.34,0,13.92,0,21.35c0,24.77,34.89,44.86,77.92,44.86c43.03,0,77.92-20.08,77.92-44.86
			C1847.16,1613.52,1847.15,1603.3,1847.15,1600.17z"/>
		<ellipse class="st5" cx="1769.24" cy="1577.44" rx="61.96" ry="35.67"/>
		<path class="st7" d="M1831.2,1577.7c-0.24,19.58-27.89,35.41-61.96,35.41c-34.18,0-61.89-15.93-61.96-35.59
			c0,1.86,0,11.07,0,16.98c0,19.7,27.74,35.67,61.96,35.67c34.22,0,61.96-15.97,61.96-35.67
			C1831.2,1588.31,1831.2,1580.19,1831.2,1577.7z"/>
		<path class="st7" d="M1742.1,1598.89l55.45-31.99c0,0,23.23-23.8-14.68-63.86c0,0-23.61-30.04,3.58-36.48l17.99,4.29
			c0,0,0.23,21.1,15.25,15.38l9.21-19.28c1.22-2.55,1.45-5.47,0.65-8.19l-1.99-6.73l-23.94-40.55l-0.02-34.41
			c0,0-11.35,7.53-18.14,16.71c-3.22,4.34-7.59,13.41-7.59,13.41s-51.52,7.23-65.63,79.04c-5.51,28.02,1.29,63.34,17.91,86.56
			C1735.75,1580.63,1740.91,1589.95,1742.1,1598.89z"/>
		<path class="st4" d="M1712.23,1486.23c14.11-71.81,65.63-79.04,65.63-79.04s4.37-9.07,7.59-13.41
			c6.8-9.18,18.14-16.71,18.14-16.71l-9.56-5.51c0,0-11.35,7.53-18.14,16.71c-3.22,4.34-7.59,13.41-7.59,13.41
			s-51.52,7.23-65.63,79.04c-5.51,28.02-0.25,67.24,15.23,91.23c5.47,8.47,9.28,12.74,13.37,20.97l10.82,5.98
			c-1.19-8.94-6.35-18.27-11.96-26.1C1713.52,1549.57,1706.73,1514.25,1712.23,1486.23z"/>
	</g>
</g>
<g id="Ipad">
	<polygon class="st9" points="1576.67,978.11 1634,978.45 1634,976.49 1576.67,976.15 	"/>
	<path class="st6" d="M1710.91,953.87l-5.7-852.81l17.62-10.33c10.84-6.36,24.27-6.4,35.16-0.12L2852.2,722
		c22.65,13.07,36.6,37.23,36.59,62.77v821.39c0,13.41-7.14,25.8-18.74,32.52l-23.1,13.39l-1098.15-632.66
		C1725.36,1005.92,1710.91,980.93,1710.91,953.87z"/>
	<path class="st7" d="M1688.48,965.39V128.42c0-23.78,25.74-38.64,46.33-26.76l1094.96,631.86c22.65,13.07,36.6,37.23,36.6,63.38
		v821.23c0,30.71-33.23,49.92-59.84,34.6l-1080.15-621.79C1702.93,1017.44,1688.48,992.45,1688.48,965.39z"/>
	<path class="st10" d="M1712.13,952.22v-786.7c0-22.51,24.36-36.57,43.85-25.32l1056.34,612.58c21.44,12.37,34.64,35.24,34.64,59.98
		v771.8c0,29.07-31.45,47.25-56.64,32.75l-1042.33-603.05C1725.8,1001.47,1712.13,977.82,1712.13,952.22z"/>
	<polygon class="st11" points="1646.77,997.7 1716.46,957.38 1711.4,1003.32 1646.77,1039.58 	"/>
	<polygon class="st9" points="1714.84,958.31 1715.01,956.73 1645.32,997.06 1645.32,1038.93 1646.77,1039.58 1646.77,997.7 	"/>
	<path class="st0" d="M1788.98,427.29v489.81c0,17.69,9.43,34.05,24.74,42.91l354.87,205.46c14.86,8.6,33.46-2.12,33.46-19.29
		l-0.01-488.01c0-18.46-9.83-35.52-25.79-44.79l-353.79-205.37C1807.6,399.39,1788.98,410.11,1788.98,427.29z"/>
	<path class="st7" d="M2179.75,1171.69c-4.38,0-8.77-1.16-12.76-3.47l-354.87-205.46c-16.24-9.4-26.33-26.9-26.33-45.66V427.29
		c0-9.22,4.77-17.47,12.76-22.07c7.99-4.6,17.52-4.58,25.49,0.04l353.79,205.37c16.88,9.8,27.37,28.02,27.37,47.53l0.01,488.01
		c0,9.21-4.77,17.46-12.75,22.06C2188.49,1170.54,2184.12,1171.69,2179.75,1171.69z M1811.26,408.15c-3.27,0-6.55,0.86-9.54,2.58
		c-6,3.45-9.57,9.64-9.57,16.56v489.81c0,16.5,8.87,31.89,23.16,40.16l354.87,205.46c5.98,3.46,13.13,3.47,19.12,0.02
		c5.99-3.45,9.57-9.64,9.57-16.56l-0.01-488.01c0-17.26-9.28-33.37-24.21-42.04l-353.79-205.37
		C1817.86,409.02,1814.56,408.15,1811.26,408.15z"/>
	<path class="st11" d="M2004.95,733.36c8.17,10.13,15.71,23.12,21.56,37.97c9.44,24,12.33,47.46,9.11,64.21L2127,991.42
		c39.61-53.97,42.84-156.17,2.48-258.76c-29.52-75.03-75.97-134-124.52-165.17V733.36z"/>
	<path class="st4" d="M2019.41,858.93c-16.79,5.6-40.07-13.58-56.21-44.83l-100.5,45.9c53.76,119.89,150.69,192.67,222.81,164.29
		c8.35-3.29,16.02-7.79,22.99-13.38L2019.41,858.93z"/>
	<path class="st6" d="M1953.21,790.29c-12.35-37.34-8.7-71.55,9.3-78.63c5.05-1.99,10.72-1.62,16.64,0.69v-158.7
		c-27.95-12.01-55.73-14.24-80.57-4.47c-75,29.51-95.09,157.35-45.75,286.96L1953.21,790.29z"/>
	<polygon class="st12" points="1788.98,246.56 1788.98,300.41 2202.04,539.56 2202.03,486.34 	"/>
	<polygon class="st7" points="2370.92,586.74 2370.92,640.59 2783.99,879.74 2783.98,826.52 	"/>
	<polygon class="st0" points="2370.92,1054.98 2370.92,1108.83 2783.99,1347.98 2783.98,1294.76 	"/>
	<polygon class="st0" points="2372.66,1144.82 2372.66,1198.67 2785.73,1437.82 2785.72,1384.6 	"/>
	<polygon class="st0" points="2370.92,1232.74 2370.92,1286.59 2783.99,1525.74 2783.98,1472.52 	"/>
	<polygon class="st0" points="2366.34,721.29 2366.34,994.96 2779.41,1234.11 2779.39,961.07 	"/>
	<path class="st7" d="M2782.58,1239.62l-419.42-242.83V715.77l419.41,243.47L2782.58,1239.62z M2369.51,993.13l406.72,235.47
		l-0.02-265.7l-406.7-236.09V993.13z"/>
	<path class="st6" d="M2366.34,994.96c0,0,27.13-43.93,81.51-6.72c0,0,54.24,47.86,90.63,41.98c21.62-3.5,49.93-45.79,83-28.15
		c16.4,8.75,26.15,40.65,58.32,46.08c31.36,5.29,99.61-45.59,99.61-45.59v231.56L2366.34,994.96z"/>
	<path class="st6" d="M2429.63,984.4c0-9.72,0-19.44,0-29.16c0-10.59,0-21.19,0-31.78c0-10.91,0-21.82,0-32.73c0-10.67,0-21.33,0-32
		c0-9.9,0-19.81,0-29.71c0-1.13,0-2.25,0-3.38c0-2.25-3.49-2.25-3.49,0c0,9.72,0,19.44,0,29.16c0,10.59,0,21.19,0,31.78
		c0,10.91,0,21.82,0,32.73c0,10.67,0,21.33,0,32c0,9.9,0,19.81,0,29.71c0,1.13,0,2.25,0,3.38
		C2426.14,986.64,2429.63,986.65,2429.63,984.4L2429.63,984.4z"/>
	<path class="st6" d="M2509.57,1029.07c0-9.72,0-19.44,0-29.16c0-10.59,0-21.19,0-31.78c0-10.91,0-21.82,0-32.73
		c0-10.67,0-21.33,0-32c0-9.9,0-19.81,0-29.71c0-1.13,0-2.25,0-3.38c0-2.25-3.49-2.25-3.49,0c0,9.72,0,19.44,0,29.16
		c0,10.59,0,21.19,0,31.78c0,10.91,0,21.82,0,32.73c0,10.67,0,21.33,0,32c0,9.9,0,19.81,0,29.71c0,1.13,0,2.25,0,3.38
		C2506.08,1031.32,2509.57,1031.32,2509.57,1029.07L2509.57,1029.07z"/>
	
		<ellipse transform="matrix(0.8659 -0.5002 0.5002 0.8659 -126.524 1100.0427)" class="st4" cx="1988.38" cy="786" rx="12.54" ry="21.79"/>
	<path class="st6" d="M2592.69,1081.32c0-9.72,0-19.44,0-29.16c0-10.59,0-21.19,0-31.78c0-10.91,0-21.82,0-32.73
		c0-10.67,0-21.33,0-32c0-9.9,0-19.81,0-29.71c0-1.13,0-2.25,0-3.38c0-2.25-3.49-2.25-3.49,0c0,9.72,0,19.44,0,29.16
		c0,10.59,0,21.19,0,31.78c0,10.91,0,21.82,0,32.73c0,10.67,0,21.33,0,32c0,9.9,0,19.81,0,29.71c0,1.13,0,2.25,0,3.38
		C2589.2,1083.57,2592.69,1083.57,2592.69,1081.32L2592.69,1081.32z"/>
	<path class="st4" d="M1646.56,997.85c3.43-1.98,3.42-8.42-0.02-14.37c-3.44-5.96-9.01-9.18-12.44-7.2s-3.42,8.42,0.02,14.37
		C1637.56,996.61,1643.13,999.83,1646.56,997.85z"/>
	<path class="st13" d="M1646.59,997.83c3.38-2.01,3.36-8.41-0.07-14.34c-3.44-5.95-9-9.17-12.43-7.21
		c0.32-0.19,345.99-200.33,347.01-200.92c3.43-1.98,9,1.24,12.44,7.2c3.44,5.96,3.45,12.39,0.02,14.37
		C1992.5,797.55,1647.02,997.58,1646.59,997.83z"/>
	<polygon class="st11" points="1646.77,997.7 1716.46,957.38 1711.4,1003.32 1646.77,1039.58 	"/>
	<polygon class="st11" points="1576.67,976.18 1634,976.52 1704.84,935.7 1647.08,935.7 	"/>
	<path class="st4" d="M1646.56,997.85c3.43-1.98,3.42-8.42-0.02-14.37c-3.44-5.96-9.01-9.18-12.44-7.2s-3.42,8.42,0.02,14.37
		C1637.56,996.61,1643.13,999.83,1646.56,997.85z"/>
	<polygon class="st14" points="2683.31,677.95 2657.66,663.08 1887.98,1095.24 1913.72,1110.13 	"/>
	<path class="st14" d="M1747.99,1014.25l88.98,51.48l769.68-432.23l-104.35-60.52l-767.87,431.15
		C1738.49,1007.98,1743.02,1011.39,1747.99,1014.25z"/>
	<polygon class="st14" points="2734.32,707.53 1964.73,1139.64 1993.86,1156.5 2763.36,724.37 	"/>
</g>
<g id="Coin_1_">
	<ellipse class="st4" cx="2740.44" cy="1880.58" rx="112.89" ry="58.25"/>
	<ellipse class="st4" cx="2514.45" cy="1951.87" rx="120.47" ry="62.16"/>
	<g>
		<ellipse class="st15" cx="2740.44" cy="1830.43" rx="104.21" ry="59.99"/>
		<g>
			<path class="st16" d="M2636.24,1829.99C2636.24,1829.99,2636.24,1829.99,2636.24,1829.99c-0.01,0-0.01,0.12-0.01,0.31
				C2636.24,1830.19,2636.24,1830.09,2636.24,1829.99z"/>
			<path class="st16" d="M2844.64,1829.97c0-0.24,0-0.38,0-0.38s-0.01,0-0.01,0C2844.64,1829.72,2844.64,1829.84,2844.64,1829.97z"
				/>
			<path class="st11" d="M2844.64,1830.87c-0.41,32.93-46.9,59.56-104.2,59.56c-57.48,0-104.08-26.79-104.21-59.86
				c0,3.13,0,18.62,0,28.55c0,33.13,46.66,59.99,104.21,59.99c57.55,0,104.21-26.86,104.21-59.99
				C2844.65,1848.71,2844.65,1835.05,2844.64,1830.87z"/>
		</g>
		<ellipse class="st17" cx="2740.44" cy="1832.81" rx="77.13" ry="42.03"/>
		<path class="st11" d="M2781.44,1849.58l-9.57,5.51l-5.57-3.2c0,0-17.15,7.27-22.43,8.12l-16.02-9.33c0,0,30.65-6.13,33.78-12.63
			c3.13-6.5-13.14-3.45-17.43-2.47c-10.42,2.4-30.34,10.96-42.24-1.9c-8.76-9.47,1.37-19.37,1.37-19.37l-5.7-2.97l9.07-5l5.47,3.01
			c0,0,11.14-7.3,24.13-8.24l14.22,7.82c0,0-39.13,7.45-32.02,15.44c0,0,4.54,3.89,17.31-1.07c12.05-3.12,32.72-9.63,45.04,4.47
			c2.45,2.8,3.36,8.87,1.07,12.69c-1.55,2.58-1.85,3.61-5.81,5.82L2781.44,1849.58z"/>
		<path class="st11" d="M2740.44,1790.78c41.89,0,75.98,18.2,77.1,40.87c0.02-0.41,0.03-0.81,0.03-1.22
			c0-24.52-34.53-44.4-77.13-44.4c-42.6,0-77.13,19.88-77.13,44.4c0,0.41,0.01,0.81,0.03,1.22
			C2664.47,1808.97,2698.55,1790.78,2740.44,1790.78z"/>
		<g>
			<path class="st15" d="M2642.5,1879.59v-28.62c-2.45-3.87-4.22-7.93-5.25-12.13v28.62
				C2638.28,1871.66,2640.05,1875.72,2642.5,1879.59z"/>
		</g>
		<g>
			<path class="st15" d="M2653.02,1891.72v-28.63c-1.89-1.68-3.65-3.41-5.25-5.19v28.63
				C2649.37,1888.31,2651.13,1890.04,2653.02,1891.72z"/>
		</g>
		<path class="st15" d="M2663.53,1899.54v-28.63c-1.83-1.15-3.58-2.34-5.24-3.57v28.63
			C2659.96,1897.2,2661.71,1898.39,2663.53,1899.54z"/>
		<path class="st15" d="M2674.05,1905.3v-28.63c-1.8-0.86-3.55-1.75-5.25-2.68v28.63C2670.5,1903.55,2672.25,1904.44,2674.05,1905.3
			z"/>
		<path class="st15" d="M2684.57,1909.71v-28.63c-1.79-0.65-3.53-1.34-5.24-2.06v28.63
			C2681.03,1908.37,2682.78,1909.05,2684.57,1909.71z"/>
		<path class="st15" d="M2695.08,1913.09v-28.63c-1.78-0.5-3.53-1.02-5.25-1.57v28.63
			C2691.56,1912.06,2693.31,1912.59,2695.08,1913.09z"/>
		<path class="st15" d="M2705.6,1915.61v-28.63c-1.77-0.36-3.52-0.75-5.24-1.16v28.63
			C2702.08,1914.87,2703.83,1915.25,2705.6,1915.61z"/>
		<path class="st15" d="M2716.12,1917.41v-28.63c-1.77-0.24-3.51-0.51-5.24-0.81v28.63
			C2712.6,1916.89,2714.35,1917.16,2716.12,1917.41z"/>
		<path class="st15" d="M2726.63,1918.53v-28.63c-1.76-0.13-3.51-0.29-5.25-0.48v28.63
			C2723.12,1918.23,2724.87,1918.39,2726.63,1918.53z"/>
		<path class="st15" d="M2737.15,1919.02v-28.63c-1.76-0.03-3.51-0.09-5.25-0.17v28.63
			C2733.64,1918.93,2735.39,1918.99,2737.15,1919.02z"/>
		<path class="st15" d="M2747.67,1918.91v-28.63c-1.74,0.07-3.49,0.11-5.24,0.13v28.63
			C2744.18,1919.02,2745.93,1918.98,2747.67,1918.91z"/>
		<path class="st15" d="M2758.18,1918.18v-28.63c-1.73,0.17-3.48,0.32-5.24,0.44v28.63
			C2754.7,1918.5,2756.45,1918.36,2758.18,1918.18z"/>
		<path class="st15" d="M2768.7,1916.82v-28.63c-1.73,0.28-3.48,0.53-5.25,0.76v28.63
			C2765.22,1917.35,2766.97,1917.1,2768.7,1916.82z"/>
		<path class="st15" d="M2779.22,1914.76v-28.63c-1.73,0.4-3.47,0.77-5.25,1.12v28.63
			C2775.74,1915.53,2777.49,1915.16,2779.22,1914.76z"/>
		<path class="st15" d="M2789.73,1911.93v-28.63c-1.72,0.53-3.47,1.04-5.24,1.51v28.63
			C2786.26,1912.97,2788.01,1912.46,2789.73,1911.93z"/>
		<path class="st15" d="M2800.43,1908.12v-28.65c-1.71,0.69-3.46,1.35-5.25,1.99v28.65
			C2796.97,1909.48,2798.72,1908.82,2800.43,1908.12z"/>
		<path class="st15" d="M2810.77,1903.33v-28.63c-1.7,0.89-3.45,1.75-5.25,2.58v28.63
			C2807.32,1905.08,2809.07,1904.22,2810.77,1903.33z"/>
		<path class="st15" d="M2821.28,1896.91v-28.63c-1.67,1.18-3.42,2.33-5.24,3.44v28.63
			C2817.86,1899.24,2819.61,1898.1,2821.28,1896.91z"/>
		<g>
			<path class="st15" d="M2831.8,1887.94v-28.63c-1.61,1.69-3.36,3.33-5.25,4.91v28.63
				C2828.44,1891.27,2830.19,1889.63,2831.8,1887.94z"/>
		</g>
		<g>
			<path class="st15" d="M2842.32,1871.73v-28.62c-1.27,3.39-3.03,6.67-5.24,9.82v28.63
				C2839.29,1878.4,2841.05,1875.12,2842.32,1871.73z"/>
		</g>
	</g>
	<g>
		<ellipse class="st15" cx="2514.45" cy="1906.21" rx="104.21" ry="59.99"/>
		<g>
			<path class="st16" d="M2410.25,1905.77C2410.25,1905.77,2410.24,1905.77,2410.25,1905.77c-0.01,0-0.01,0.12-0.01,0.31
				C2410.24,1905.98,2410.24,1905.87,2410.25,1905.77z"/>
			<path class="st16" d="M2618.65,1905.75c0-0.24,0-0.38,0-0.38s-0.01,0-0.01,0C2618.64,1905.5,2618.65,1905.63,2618.65,1905.75z"/>
			<path class="st11" d="M2618.65,1906.65c-0.41,32.93-46.9,59.56-104.2,59.56c-57.48,0-104.08-26.79-104.21-59.86
				c0,3.13,0,18.62,0,28.55c0,33.13,46.66,59.99,104.21,59.99s104.21-26.86,104.21-59.99
				C2618.66,1924.5,2618.65,1910.83,2618.65,1906.65z"/>
		</g>
		<ellipse class="st17" cx="2514.45" cy="1908.59" rx="77.13" ry="42.03"/>
		<path class="st18" d="M2555.44,1925.36l-9.57,5.51l-5.57-3.2c0,0-17.15,7.27-22.43,8.12l-16.02-9.33c0,0,30.65-6.13,33.78-12.63
			c3.13-6.5-13.14-3.45-17.43-2.47c-10.42,2.4-30.34,10.96-42.24-1.9c-8.76-9.47,1.37-19.37,1.37-19.37l-5.7-2.97l9.08-5l5.47,3.01
			c0,0,11.14-7.3,24.13-8.24l14.22,7.82c0,0-39.13,7.45-32.02,15.44c0,0,4.54,3.89,17.31-1.07c12.05-3.12,32.72-9.63,45.04,4.47
			c2.45,2.8,3.36,8.87,1.07,12.69c-1.55,2.58-1.85,3.61-5.81,5.82L2555.44,1925.36z"/>
		<path class="st18" d="M2514.45,1866.56c41.89,0,75.98,18.2,77.1,40.87c0.02-0.41,0.03-0.81,0.03-1.22
			c0-24.52-34.53-44.4-77.13-44.4c-42.6,0-77.13,19.88-77.13,44.4c0,0.41,0.01,0.81,0.03,1.22
			C2438.47,1884.76,2472.56,1866.56,2514.45,1866.56z"/>
		<g>
			<path class="st15" d="M2416.5,1955.37v-28.62c-2.45-3.87-4.22-7.93-5.25-12.13v28.62
				C2412.28,1947.44,2414.05,1951.5,2416.5,1955.37z"/>
		</g>
		<g>
			<path class="st15" d="M2427.02,1967.5v-28.63c-1.89-1.68-3.65-3.41-5.25-5.19v28.63
				C2423.38,1964.09,2425.13,1965.82,2427.02,1967.5z"/>
		</g>
		<path class="st15" d="M2437.54,1975.32v-28.63c-1.83-1.15-3.58-2.34-5.25-3.57v28.63
			C2433.96,1972.98,2435.71,1974.17,2437.54,1975.32z"/>
		<path class="st15" d="M2448.05,1981.08v-28.63c-1.8-0.86-3.55-1.75-5.25-2.67v28.63
			C2444.5,1979.34,2446.25,1980.23,2448.05,1981.08z"/>
		<path class="st15" d="M2458.57,1985.49v-28.63c-1.79-0.65-3.53-1.34-5.25-2.06v28.63
			C2455.04,1984.15,2456.78,1984.84,2458.57,1985.49z"/>
		<path class="st15" d="M2469.09,1988.87v-28.63c-1.78-0.5-3.53-1.02-5.25-1.57v28.63
			C2465.56,1987.85,2467.31,1988.37,2469.09,1988.87z"/>
		<path class="st15" d="M2479.6,1991.4v-28.63c-1.77-0.36-3.52-0.75-5.24-1.16v28.63C2476.08,1990.65,2477.83,1991.04,2479.6,1991.4
			z"/>
		<path class="st15" d="M2490.12,1993.19v-28.63c-1.77-0.24-3.51-0.51-5.25-0.81v28.63
			C2486.61,1992.68,2488.35,1992.95,2490.12,1993.19z"/>
		<path class="st15" d="M2500.64,1994.31v-28.63c-1.76-0.13-3.51-0.29-5.25-0.48v28.63
			C2497.13,1994.02,2498.87,1994.18,2500.64,1994.31z"/>
		<path class="st15" d="M2511.15,1994.8v-28.63c-1.76-0.03-3.51-0.09-5.24-0.17v28.63
			C2507.65,1994.72,2509.39,1994.77,2511.15,1994.8z"/>
		<path class="st15" d="M2521.67,1994.69v-28.63c-1.74,0.07-3.49,0.11-5.25,0.13v28.63
			C2518.18,1994.8,2519.93,1994.76,2521.67,1994.69z"/>
		<path class="st15" d="M2532.19,1993.97v-28.63c-1.73,0.17-3.48,0.32-5.24,0.44v28.63
			C2528.7,1994.29,2530.45,1994.14,2532.19,1993.97z"/>
		<path class="st15" d="M2542.7,1992.6v-28.63c-1.73,0.28-3.48,0.53-5.25,0.76v28.63C2539.22,1993.14,2540.97,1992.88,2542.7,1992.6
			z"/>
		<path class="st15" d="M2553.22,1990.54v-28.63c-1.73,0.4-3.47,0.77-5.25,1.12v28.63
			C2549.75,1991.32,2551.49,1990.94,2553.22,1990.54z"/>
		<path class="st15" d="M2563.74,1987.71v-28.63c-1.72,0.53-3.47,1.04-5.24,1.51v28.63
			C2560.27,1988.75,2562.02,1988.25,2563.74,1987.71z"/>
		<path class="st15" d="M2574.43,1983.91v-28.65c-1.71,0.69-3.46,1.35-5.25,1.99v28.65
			C2570.97,1985.26,2572.72,1984.6,2574.43,1983.91z"/>
		<path class="st15" d="M2584.77,1979.11v-28.63c-1.7,0.89-3.45,1.75-5.25,2.58v28.63
			C2581.32,1980.87,2583.07,1980.01,2584.77,1979.11z"/>
		<path class="st15" d="M2595.29,1972.7v-28.63c-1.67,1.18-3.42,2.33-5.25,3.44v28.63
			C2591.86,1975.03,2593.61,1973.88,2595.29,1972.7z"/>
		<g>
			<path class="st15" d="M2605.8,1963.72v-28.63c-1.61,1.69-3.36,3.33-5.25,4.91v28.63
				C2602.44,1967.05,2604.19,1965.41,2605.8,1963.72z"/>
		</g>
		<g>
			<path class="st15" d="M2616.32,1947.51v-28.62c-1.27,3.39-3.03,6.67-5.25,9.82v28.63
				C2613.29,1954.18,2615.05,1950.9,2616.32,1947.51z"/>
		</g>
	</g>
	<g>
		<ellipse class="st15" cx="2527.6" cy="1853" rx="104.21" ry="59.99"/>
		<g>
			<path class="st16" d="M2423.4,1852.56C2423.4,1852.56,2423.4,1852.56,2423.4,1852.56c-0.01,0-0.01,0.12-0.01,0.31
				C2423.4,1852.76,2423.4,1852.66,2423.4,1852.56z"/>
			<path class="st16" d="M2631.8,1852.54c0-0.24,0-0.38,0-0.38s-0.01,0-0.01,0C2631.8,1852.29,2631.8,1852.41,2631.8,1852.54z"/>
			<path class="st11" d="M2631.8,1853.44c-0.41,32.93-46.9,59.56-104.2,59.56c-57.48,0-104.08-26.79-104.21-59.86
				c0,3.13,0,18.62,0,28.55c0,33.13,46.66,59.99,104.21,59.99c57.55,0,104.21-26.86,104.21-59.99
				C2631.81,1871.28,2631.81,1857.62,2631.8,1853.44z"/>
		</g>
		<ellipse class="st17" cx="2527.6" cy="1855.38" rx="77.13" ry="42.03"/>
		<path class="st18" d="M2568.6,1872.15l-9.57,5.51l-5.57-3.2c0,0-17.15,7.27-22.43,8.12l-16.02-9.33c0,0,30.65-6.13,33.78-12.63
			c3.13-6.5-13.14-3.45-17.43-2.47c-10.42,2.4-30.34,10.96-42.24-1.9c-8.76-9.47,1.37-19.37,1.37-19.37l-5.7-2.97l9.08-5l5.47,3.01
			c0,0,11.14-7.3,24.13-8.24l14.22,7.82c0,0-39.13,7.45-32.02,15.44c0,0,4.54,3.89,17.31-1.07c12.05-3.12,32.72-9.63,45.04,4.47
			c2.45,2.8,3.36,8.87,1.07,12.69c-1.55,2.58-1.85,3.61-5.81,5.82L2568.6,1872.15z"/>
		<path class="st19" d="M2527.6,1813.35c41.89,0,75.98,18.2,77.1,40.87c0.02-0.41,0.03-0.81,0.03-1.22
			c0-24.52-34.53-44.4-77.13-44.4c-42.6,0-77.13,19.88-77.13,44.4c0,0.41,0.01,0.81,0.03,1.22
			C2451.63,1831.54,2485.71,1813.35,2527.6,1813.35z"/>
		<g>
			<path class="st15" d="M2429.66,1902.16v-28.62c-2.45-3.87-4.22-7.93-5.25-12.13v28.62
				C2425.44,1894.23,2427.21,1898.29,2429.66,1902.16z"/>
		</g>
		<g>
			<path class="st15" d="M2440.18,1914.29v-28.63c-1.89-1.68-3.65-3.41-5.25-5.19v28.63
				C2436.53,1910.88,2438.28,1912.61,2440.18,1914.29z"/>
		</g>
		<path class="st15" d="M2450.69,1922.11v-28.63c-1.83-1.15-3.58-2.34-5.25-3.57v28.63
			C2447.12,1919.77,2448.87,1920.96,2450.69,1922.11z"/>
		<path class="st15" d="M2461.21,1927.87v-28.63c-1.8-0.86-3.55-1.75-5.25-2.68v28.63
			C2457.66,1926.12,2459.41,1927.01,2461.21,1927.87z"/>
		<path class="st15" d="M2471.73,1932.28v-28.63c-1.79-0.65-3.53-1.34-5.24-2.06v28.63
			C2468.19,1930.94,2469.94,1931.62,2471.73,1932.28z"/>
		<path class="st15" d="M2482.24,1935.66v-28.63c-1.78-0.5-3.53-1.02-5.25-1.57v28.63
			C2478.72,1934.63,2480.47,1935.16,2482.24,1935.66z"/>
		<path class="st15" d="M2492.76,1938.18v-28.63c-1.77-0.36-3.52-0.75-5.25-1.16v28.63
			C2489.24,1937.44,2490.99,1937.82,2492.76,1938.18z"/>
		<path class="st15" d="M2503.28,1939.98v-28.63c-1.77-0.24-3.51-0.51-5.25-0.81v28.63
			C2499.76,1939.46,2501.51,1939.73,2503.28,1939.98z"/>
		<path class="st15" d="M2513.79,1941.1v-28.63c-1.76-0.13-3.51-0.29-5.25-0.48v28.63
			C2510.28,1940.8,2512.03,1940.96,2513.79,1941.1z"/>
		<path class="st15" d="M2524.31,1941.59v-28.63c-1.76-0.03-3.51-0.09-5.24-0.17v28.63
			C2520.8,1941.5,2522.55,1941.56,2524.31,1941.59z"/>
		<path class="st15" d="M2534.83,1941.48v-28.63c-1.74,0.07-3.49,0.11-5.25,0.13v28.63
			C2531.34,1941.59,2533.09,1941.55,2534.83,1941.48z"/>
		<path class="st15" d="M2545.34,1940.75v-28.63c-1.73,0.17-3.48,0.32-5.25,0.44v28.63
			C2541.86,1941.07,2543.61,1940.93,2545.34,1940.75z"/>
		<path class="st15" d="M2555.86,1939.39v-28.63c-1.73,0.28-3.48,0.53-5.24,0.76v28.63
			C2552.38,1939.92,2554.13,1939.67,2555.86,1939.39z"/>
		<path class="st15" d="M2566.38,1937.33v-28.63c-1.73,0.4-3.47,0.77-5.25,1.12v28.63
			C2562.9,1938.1,2564.65,1937.73,2566.38,1937.33z"/>
		<path class="st15" d="M2576.89,1934.5v-28.63c-1.72,0.53-3.47,1.04-5.25,1.51v28.63
			C2573.42,1935.54,2575.17,1935.03,2576.89,1934.5z"/>
		<path class="st15" d="M2587.59,1930.69v-28.65c-1.71,0.69-3.46,1.35-5.25,1.99v28.65
			C2584.13,1932.05,2585.88,1931.39,2587.59,1930.69z"/>
		<path class="st15" d="M2597.93,1925.9v-28.63c-1.7,0.89-3.45,1.75-5.24,2.58v28.63
			C2594.48,1927.65,2596.23,1926.79,2597.93,1925.9z"/>
		<path class="st15" d="M2608.44,1919.48v-28.63c-1.67,1.18-3.42,2.33-5.24,3.44v28.63
			C2605.02,1921.81,2606.77,1920.67,2608.44,1919.48z"/>
		<g>
			<path class="st15" d="M2618.96,1910.51v-28.63c-1.61,1.69-3.36,3.33-5.25,4.91v28.63
				C2615.6,1913.84,2617.35,1912.2,2618.96,1910.51z"/>
		</g>
		<g>
			<path class="st15" d="M2629.48,1894.29v-28.62c-1.27,3.39-3.03,6.67-5.25,9.82v28.63
				C2626.45,1900.97,2628.21,1897.69,2629.48,1894.29z"/>
		</g>
	</g>
	<g>
		<ellipse class="st15" cx="2492.76" cy="1807.89" rx="104.21" ry="59.99"/>
		<g>
			<path class="st16" d="M2388.56,1807.45C2388.56,1807.45,2388.55,1807.45,2388.56,1807.45c-0.01,0-0.01,0.12-0.01,0.31
				C2388.55,1807.66,2388.56,1807.55,2388.56,1807.45z"/>
			<path class="st16" d="M2596.96,1807.43c0-0.24,0-0.38,0-0.38s-0.01,0-0.01,0C2596.96,1807.18,2596.96,1807.31,2596.96,1807.43z"
				/>
			<path class="st11" d="M2596.96,1808.33c-0.41,32.93-46.9,59.56-104.2,59.56c-57.48,0-104.08-26.79-104.21-59.86
				c0,3.13,0,18.62,0,28.55c0,33.13,46.66,59.99,104.21,59.99c57.55,0,104.21-26.86,104.21-59.99
				C2596.97,1826.18,2596.96,1812.51,2596.96,1808.33z"/>
		</g>
		<ellipse class="st17" cx="2492.76" cy="1810.27" rx="77.13" ry="42.03"/>
		<path class="st11" d="M2533.76,1827.04l-9.57,5.51l-5.57-3.2c0,0-17.15,7.27-22.43,8.12l-16.02-9.33c0,0,30.65-6.13,33.78-12.63
			c3.13-6.5-13.14-3.45-17.43-2.47c-10.42,2.4-30.34,10.96-42.24-1.9c-8.76-9.47,1.37-19.37,1.37-19.37l-5.7-2.97l9.07-5l5.48,3.01
			c0,0,11.14-7.3,24.13-8.24l14.22,7.82c0,0-39.13,7.45-32.02,15.44c0,0,4.54,3.89,17.31-1.07c12.05-3.12,32.72-9.63,45.04,4.47
			c2.45,2.8,3.36,8.87,1.07,12.69c-1.55,2.58-1.85,3.61-5.81,5.82L2533.76,1827.04z"/>
		<path class="st11" d="M2492.76,1768.24c41.89,0,75.98,18.2,77.1,40.87c0.02-0.41,0.03-0.81,0.03-1.22
			c0-24.52-34.53-44.4-77.13-44.4c-42.6,0-77.13,19.88-77.13,44.4c0,0.41,0.01,0.81,0.03,1.22
			C2416.78,1786.43,2450.87,1768.24,2492.76,1768.24z"/>
		<g>
			<path class="st15" d="M2394.82,1857.05v-28.62c-2.45-3.87-4.22-7.93-5.24-12.13v28.62
				C2390.59,1849.12,2392.37,1853.18,2394.82,1857.05z"/>
		</g>
		<g>
			<path class="st15" d="M2405.33,1869.18v-28.63c-1.89-1.68-3.65-3.41-5.25-5.19v28.63
				C2401.69,1865.77,2403.44,1867.5,2405.33,1869.18z"/>
		</g>
		<path class="st15" d="M2415.85,1877v-28.63c-1.83-1.15-3.58-2.34-5.24-3.57v28.63C2412.27,1874.66,2414.02,1875.85,2415.85,1877z"
			/>
		<path class="st15" d="M2426.37,1882.76v-28.63c-1.8-0.86-3.55-1.75-5.24-2.67v28.63
			C2422.82,1881.02,2424.57,1881.91,2426.37,1882.76z"/>
		<path class="st15" d="M2436.88,1887.17v-28.63c-1.79-0.65-3.53-1.34-5.24-2.06v28.63
			C2433.35,1885.83,2435.1,1886.52,2436.88,1887.17z"/>
		<path class="st15" d="M2447.4,1890.55v-28.63c-1.78-0.5-3.53-1.02-5.25-1.57v28.63
			C2443.88,1889.53,2445.62,1890.05,2447.4,1890.55z"/>
		<path class="st15" d="M2457.92,1893.08v-28.63c-1.77-0.36-3.52-0.75-5.24-1.16v28.63
			C2454.4,1892.33,2456.15,1892.71,2457.92,1893.08z"/>
		<path class="st15" d="M2468.43,1894.87v-28.63c-1.77-0.24-3.51-0.51-5.24-0.81v28.63
			C2464.92,1894.36,2466.67,1894.63,2468.43,1894.87z"/>
		<path class="st15" d="M2478.95,1895.99v-28.63c-1.76-0.13-3.51-0.29-5.24-0.48v28.63
			C2475.44,1895.7,2477.19,1895.86,2478.95,1895.99z"/>
		<path class="st15" d="M2489.47,1896.48v-28.63c-1.76-0.03-3.51-0.09-5.25-0.17v28.63
			C2485.96,1896.4,2487.71,1896.45,2489.47,1896.48z"/>
		<path class="st15" d="M2499.98,1896.37v-28.63c-1.74,0.07-3.49,0.11-5.25,0.13v28.63
			C2496.5,1896.48,2498.25,1896.44,2499.98,1896.37z"/>
		<path class="st15" d="M2510.5,1895.65v-28.63c-1.73,0.17-3.48,0.32-5.24,0.44v28.63
			C2507.02,1895.96,2508.77,1895.82,2510.5,1895.65z"/>
		<path class="st15" d="M2521.02,1894.28v-28.63c-1.73,0.28-3.48,0.53-5.25,0.76v28.63
			C2517.54,1894.82,2519.29,1894.56,2521.02,1894.28z"/>
		<path class="st15" d="M2531.53,1892.22v-28.63c-1.73,0.4-3.47,0.77-5.24,1.12v28.63C2528.06,1893,2529.81,1892.62,2531.53,1892.22
			z"/>
		<path class="st15" d="M2542.05,1889.39v-28.63c-1.72,0.53-3.47,1.04-5.25,1.51v28.63
			C2538.58,1890.43,2540.33,1889.92,2542.05,1889.39z"/>
		<path class="st15" d="M2552.75,1885.58v-28.65c-1.71,0.69-3.46,1.35-5.25,1.99v28.65
			C2549.29,1886.94,2551.04,1886.28,2552.75,1885.58z"/>
		<path class="st15" d="M2563.08,1880.79v-28.63c-1.7,0.89-3.45,1.75-5.25,2.58v28.63
			C2559.64,1882.55,2561.39,1881.69,2563.08,1880.79z"/>
		<path class="st15" d="M2573.6,1874.38v-28.63c-1.67,1.18-3.42,2.33-5.25,3.44v28.63
			C2570.18,1876.7,2571.93,1875.56,2573.6,1874.38z"/>
		<g>
			<path class="st15" d="M2584.12,1865.4v-28.63c-1.61,1.69-3.36,3.33-5.25,4.91v28.63
				C2580.75,1868.73,2582.5,1867.09,2584.12,1865.4z"/>
		</g>
		<g>
			<path class="st15" d="M2594.63,1849.19v-28.62c-1.27,3.39-3.03,6.67-5.25,9.82v28.63
				C2591.6,1855.86,2593.37,1852.58,2594.63,1849.19z"/>
		</g>
	</g>
	<ellipse class="st4" cx="2052.03" cy="1980.96" rx="112.89" ry="58.25"/>
	<ellipse class="st4" cx="1826.04" cy="2052.25" rx="120.47" ry="62.16"/>
	<g>
		<ellipse class="st15" cx="2052.03" cy="1930.82" rx="104.21" ry="59.99"/>
		<g>
			<path class="st16" d="M1947.83,1930.37C1947.83,1930.38,1947.83,1930.38,1947.83,1930.37c-0.01,0-0.01,0.12-0.01,0.31
				C1947.83,1930.58,1947.83,1930.48,1947.83,1930.37z"/>
			<path class="st16" d="M2156.23,1930.36c0-0.24,0-0.38,0-0.38s-0.01,0-0.01,0C2156.23,1930.1,2156.23,1930.23,2156.23,1930.36z"/>
			<path class="st11" d="M2156.23,1931.25c-0.41,32.93-46.9,59.56-104.2,59.56c-57.48,0-104.08-26.79-104.21-59.86
				c0,3.13,0,18.62,0,28.55c0,33.13,46.66,59.99,104.21,59.99c57.55,0,104.21-26.86,104.21-59.99
				C2156.24,1949.1,2156.24,1935.44,2156.23,1931.25z"/>
		</g>
		<ellipse class="st17" cx="2052.03" cy="1933.19" rx="77.13" ry="42.03"/>
		<path class="st11" d="M2093.03,1949.96l-9.57,5.51l-5.57-3.2c0,0-17.15,7.27-22.43,8.12l-16.02-9.33c0,0,30.65-6.13,33.78-12.63
			c3.13-6.5-13.14-3.45-17.43-2.47c-10.42,2.4-30.34,10.96-42.24-1.9c-8.76-9.47,1.37-19.37,1.37-19.37l-5.7-2.97l9.08-5l5.47,3.01
			c0,0,11.14-7.3,24.13-8.24l14.22,7.82c0,0-39.13,7.45-32.02,15.44c0,0,4.54,3.89,17.31-1.07c12.05-3.12,32.72-9.63,45.04,4.47
			c2.45,2.8,3.36,8.87,1.07,12.69c-1.55,2.58-1.85,3.61-5.81,5.82L2093.03,1949.96z"/>
		<path class="st11" d="M2052.03,1891.16c41.89,0,75.98,18.2,77.1,40.87c0.02-0.41,0.03-0.81,0.03-1.22
			c0-24.52-34.53-44.4-77.13-44.4s-77.13,19.88-77.13,44.4c0,0.41,0.01,0.81,0.03,1.22
			C1976.06,1909.36,2010.14,1891.16,2052.03,1891.16z"/>
		<g>
			<path class="st15" d="M1954.09,1979.98v-28.62c-2.45-3.87-4.22-7.93-5.25-12.13v28.62
				C1949.87,1972.04,1951.64,1976.1,1954.09,1979.98z"/>
		</g>
		<g>
			<path class="st15" d="M1964.61,1992.1v-28.63c-1.89-1.68-3.65-3.41-5.24-5.19v28.63
				C1960.96,1988.7,1962.72,1990.43,1964.61,1992.1z"/>
		</g>
		<path class="st15" d="M1975.12,1999.93v-28.63c-1.83-1.15-3.58-2.34-5.24-3.57v28.63
			C1971.55,1997.58,1973.3,1998.78,1975.12,1999.93z"/>
		<path class="st15" d="M1985.64,2005.69v-28.63c-1.8-0.86-3.55-1.75-5.24-2.68v28.63
			C1982.09,2003.94,1983.84,2004.83,1985.64,2005.69z"/>
		<path class="st15" d="M1996.16,2010.09v-28.63c-1.79-0.65-3.53-1.34-5.25-2.06v28.63
			C1992.62,2008.75,1994.37,2009.44,1996.16,2010.09z"/>
		<path class="st15" d="M2006.67,2013.47v-28.63c-1.78-0.5-3.52-1.02-5.24-1.57v28.63
			C2003.15,2012.45,2004.9,2012.98,2006.67,2013.47z"/>
		<path class="st15" d="M2017.19,2016v-28.63c-1.77-0.36-3.52-0.75-5.24-1.16v28.63C2013.67,2015.25,2015.42,2015.64,2017.19,2016z"
			/>
		<path class="st15" d="M2027.71,2017.79v-28.63c-1.77-0.24-3.51-0.51-5.24-0.81v28.63
			C2024.19,2017.28,2025.94,2017.55,2027.71,2017.79z"/>
		<path class="st15" d="M2038.22,2018.91v-28.63c-1.76-0.13-3.51-0.29-5.24-0.48v28.63
			C2034.71,2018.62,2036.46,2018.78,2038.22,2018.91z"/>
		<path class="st15" d="M2048.74,2019.41v-28.63c-1.76-0.03-3.51-0.09-5.25-0.17v28.63
			C2045.23,2019.32,2046.98,2019.38,2048.74,2019.41z"/>
		<path class="st15" d="M2059.26,2019.29v-28.63c-1.74,0.07-3.49,0.11-5.25,0.13v28.63
			C2055.77,2019.41,2057.52,2019.36,2059.26,2019.29z"/>
		<path class="st15" d="M2069.77,2018.57v-28.63c-1.73,0.17-3.48,0.32-5.25,0.44v28.63
			C2066.29,2018.89,2068.04,2018.74,2069.77,2018.57z"/>
		<path class="st15" d="M2080.29,2017.21v-28.63c-1.73,0.28-3.48,0.53-5.25,0.76v28.63
			C2076.81,2017.74,2078.56,2017.49,2080.29,2017.21z"/>
		<path class="st15" d="M2090.81,2015.15v-28.63c-1.73,0.4-3.47,0.77-5.25,1.12v28.63
			C2087.33,2015.92,2089.08,2015.54,2090.81,2015.15z"/>
		<path class="st15" d="M2101.32,2012.32v-28.63c-1.72,0.53-3.47,1.04-5.24,1.51v28.63
			C2097.85,2013.35,2099.6,2012.85,2101.32,2012.32z"/>
		<path class="st15" d="M2112.02,2008.51v-28.65c-1.71,0.69-3.46,1.35-5.25,1.99v28.65
			C2108.56,2009.86,2110.31,2009.2,2112.02,2008.51z"/>
		<path class="st15" d="M2122.36,2003.71v-28.63c-1.7,0.89-3.45,1.75-5.25,2.58v28.63
			C2118.91,2005.47,2120.66,2004.61,2122.36,2003.71z"/>
		<path class="st15" d="M2132.87,1997.3v-28.63c-1.67,1.18-3.42,2.33-5.25,3.44v28.63
			C2129.45,1999.63,2131.2,1998.48,2132.87,1997.3z"/>
		<g>
			<path class="st15" d="M2143.39,1988.33v-28.63c-1.61,1.69-3.36,3.33-5.25,4.91v28.63
				C2140.03,1991.65,2141.78,1990.02,2143.39,1988.33z"/>
		</g>
		<g>
			<path class="st15" d="M2153.91,1972.11v-28.62c-1.27,3.39-3.03,6.67-5.24,9.82v28.63
				C2150.88,1978.79,2152.64,1975.5,2153.91,1972.11z"/>
		</g>
	</g>
	<g>
		<ellipse class="st15" cx="1826.04" cy="2006.6" rx="104.21" ry="59.99"/>
		<g>
			<path class="st16" d="M1721.84,2006.16C1721.84,2006.16,1721.83,2006.16,1721.84,2006.16c-0.01,0-0.01,0.12-0.01,0.31
				C1721.83,2006.36,1721.83,2006.26,1721.84,2006.16z"/>
			<path class="st16" d="M1930.24,2006.14c0-0.24,0-0.38,0-0.38s-0.01,0-0.01,0C1930.23,2005.88,1930.24,2006.01,1930.24,2006.14z"
				/>
			<path class="st11" d="M1930.24,2007.04c-0.41,32.93-46.9,59.56-104.2,59.56c-57.48,0-104.08-26.79-104.21-59.86
				c0,3.13,0,18.62,0,28.55c0,33.13,46.66,59.99,104.21,59.99c57.55,0,104.21-26.86,104.21-59.99
				C1930.25,2024.88,1930.24,2011.22,1930.24,2007.04z"/>
		</g>
		<ellipse class="st17" cx="1826.04" cy="2008.97" rx="77.13" ry="42.03"/>
		<path class="st18" d="M1867.03,2025.74l-9.57,5.51l-5.57-3.2c0,0-17.15,7.27-22.43,8.12l-16.02-9.33c0,0,30.65-6.13,33.78-12.63
			c3.13-6.5-13.14-3.45-17.43-2.47c-10.42,2.4-30.34,10.96-42.24-1.9c-8.76-9.47,1.37-19.37,1.37-19.37l-5.7-2.97l9.07-5l5.47,3.01
			c0,0,11.14-7.3,24.13-8.24l14.22,7.82c0,0-39.13,7.45-32.02,15.44c0,0,4.54,3.89,17.31-1.07c12.05-3.12,32.72-9.63,45.04,4.47
			c2.45,2.8,3.36,8.87,1.07,12.69c-1.55,2.58-1.85,3.61-5.81,5.82L1867.03,2025.74z"/>
		<path class="st18" d="M1826.04,1966.94c41.89,0,75.98,18.2,77.1,40.87c0.02-0.41,0.03-0.81,0.03-1.22
			c0-24.52-34.53-44.4-77.13-44.4c-42.6,0-77.13,19.88-77.13,44.4c0,0.41,0.01,0.81,0.03,1.22
			C1750.06,1985.14,1784.15,1966.94,1826.04,1966.94z"/>
		<g>
			<path class="st15" d="M1728.09,2055.76v-28.62c-2.45-3.87-4.22-7.93-5.25-12.13v28.62
				C1723.87,2047.82,1725.64,2051.89,1728.09,2055.76z"/>
		</g>
		<g>
			<path class="st15" d="M1738.61,2067.89v-28.63c-1.89-1.68-3.65-3.41-5.25-5.19v28.63
				C1734.97,2064.48,1736.72,2066.21,1738.61,2067.89z"/>
		</g>
		<path class="st15" d="M1749.13,2075.71v-28.63c-1.83-1.15-3.58-2.34-5.24-3.57v28.63
			C1745.55,2073.37,1747.3,2074.56,1749.13,2075.71z"/>
		<path class="st15" d="M1759.64,2081.47v-28.63c-1.8-0.86-3.55-1.75-5.25-2.68v28.63
			C1756.09,2079.72,1757.84,2080.61,1759.64,2081.47z"/>
		<path class="st15" d="M1770.16,2085.88v-28.63c-1.79-0.65-3.53-1.34-5.25-2.06v28.63
			C1766.63,2084.53,1768.37,2085.22,1770.16,2085.88z"/>
		<path class="st15" d="M1780.68,2089.25v-28.63c-1.78-0.5-3.53-1.02-5.24-1.57v28.63
			C1777.15,2088.23,1778.9,2088.76,1780.68,2089.25z"/>
		<path class="st15" d="M1791.19,2091.78v-28.63c-1.77-0.36-3.52-0.75-5.24-1.16v28.63
			C1787.67,2091.03,1789.42,2091.42,1791.19,2091.78z"/>
		<path class="st15" d="M1801.71,2093.57v-28.63c-1.77-0.24-3.51-0.51-5.24-0.81v28.63
			C1798.2,2093.06,1799.94,2093.33,1801.71,2093.57z"/>
		<path class="st15" d="M1812.23,2094.7v-28.63c-1.76-0.13-3.51-0.29-5.25-0.48v28.63
			C1808.72,2094.4,1810.46,2094.56,1812.23,2094.7z"/>
		<path class="st15" d="M1822.74,2095.19v-28.63c-1.76-0.03-3.51-0.09-5.24-0.17v28.63
			C1819.24,2095.1,1820.98,2095.16,1822.74,2095.19z"/>
		<path class="st15" d="M1833.26,2095.08v-28.63c-1.74,0.07-3.49,0.11-5.24,0.13v28.63
			C1829.78,2095.19,1831.52,2095.15,1833.26,2095.08z"/>
		<path class="st15" d="M1843.78,2094.35v-28.63c-1.73,0.17-3.48,0.32-5.24,0.44v28.63
			C1840.29,2094.67,1842.04,2094.52,1843.78,2094.35z"/>
		<path class="st15" d="M1854.29,2092.99v-28.63c-1.73,0.28-3.48,0.53-5.25,0.76v28.63
			C1850.81,2093.52,1852.56,2093.27,1854.29,2092.99z"/>
		<path class="st15" d="M1864.81,2090.93v-28.63c-1.73,0.4-3.47,0.77-5.25,1.12v28.63
			C1861.34,2091.7,1863.08,2091.33,1864.81,2090.93z"/>
		<path class="st15" d="M1875.33,2088.1v-28.63c-1.72,0.53-3.47,1.04-5.24,1.51v28.63
			C1871.86,2089.13,1873.61,2088.63,1875.33,2088.1z"/>
		<path class="st15" d="M1886.02,2084.29v-28.65c-1.71,0.69-3.46,1.35-5.25,1.99v28.65
			C1882.56,2085.65,1884.31,2084.98,1886.02,2084.29z"/>
		<path class="st15" d="M1896.36,2079.5v-28.63c-1.7,0.89-3.45,1.75-5.24,2.58v28.63
			C1892.91,2081.25,1894.66,2080.39,1896.36,2079.5z"/>
		<path class="st15" d="M1906.88,2073.08v-28.63c-1.67,1.18-3.42,2.33-5.25,3.44v28.63
			C1903.46,2075.41,1905.2,2074.26,1906.88,2073.08z"/>
		<g>
			<path class="st15" d="M1917.39,2064.11v-28.63c-1.61,1.69-3.36,3.33-5.24,4.91v28.63
				C1914.03,2067.44,1915.78,2065.8,1917.39,2064.11z"/>
		</g>
		<g>
			<path class="st15" d="M1927.91,2047.89v-28.62c-1.27,3.39-3.03,6.67-5.25,9.82v28.63
				C1924.88,2054.57,1926.65,2051.28,1927.91,2047.89z"/>
		</g>
	</g>
	<g>
		<ellipse class="st15" cx="1839.19" cy="1953.39" rx="104.21" ry="59.99"/>
		<g>
			<path class="st16" d="M1734.99,1952.94C1734.99,1952.94,1734.99,1952.95,1734.99,1952.94c-0.01,0-0.01,0.12-0.01,0.31
				C1734.99,1953.15,1734.99,1953.05,1734.99,1952.94z"/>
			<path class="st16" d="M1943.39,1952.93c0-0.24,0-0.38,0-0.38s-0.01,0-0.01,0C1943.39,1952.67,1943.39,1952.8,1943.39,1952.93z"/>
			<path class="st11" d="M1943.4,1953.82c-0.41,32.93-46.9,59.56-104.2,59.56c-57.48,0-104.08-26.79-104.21-59.86
				c0,3.13,0,18.62,0,28.55c0,33.13,46.66,59.99,104.21,59.99c57.55,0,104.21-26.86,104.21-59.99
				C1943.4,1971.67,1943.4,1958.01,1943.4,1953.82z"/>
		</g>
		<ellipse class="st17" cx="1839.19" cy="1955.76" rx="77.13" ry="42.03"/>
		<path class="st18" d="M1880.19,1972.53l-9.57,5.51l-5.57-3.2c0,0-17.15,7.27-22.43,8.12l-16.02-9.33c0,0,30.65-6.13,33.78-12.63
			c3.13-6.5-13.14-3.45-17.43-2.47c-10.42,2.4-30.34,10.96-42.24-1.9c-8.76-9.47,1.37-19.37,1.37-19.37l-5.7-2.97l9.08-5l5.47,3.01
			c0,0,11.14-7.3,24.13-8.24l14.22,7.82c0,0-39.13,7.45-32.02,15.44c0,0,4.54,3.89,17.31-1.07c12.05-3.12,32.72-9.63,45.04,4.47
			c2.45,2.8,3.36,8.87,1.07,12.69c-1.55,2.58-1.85,3.61-5.81,5.82L1880.19,1972.53z"/>
		<path class="st19" d="M1839.19,1913.73c41.89,0,75.98,18.2,77.1,40.87c0.02-0.41,0.03-0.81,0.03-1.22
			c0-24.52-34.53-44.4-77.13-44.4c-42.6,0-77.13,19.88-77.13,44.4c0,0.41,0.01,0.81,0.03,1.22
			C1763.22,1931.93,1797.3,1913.73,1839.19,1913.73z"/>
		<g>
			<path class="st15" d="M1741.25,2002.55v-28.62c-2.45-3.87-4.22-7.93-5.24-12.13v28.62
				C1737.03,1994.61,1738.8,1998.67,1741.25,2002.55z"/>
		</g>
		<g>
			<path class="st15" d="M1751.77,2014.67v-28.63c-1.89-1.68-3.65-3.41-5.24-5.19v28.63
				C1748.12,2011.27,1749.88,2013,1751.77,2014.67z"/>
		</g>
		<path class="st15" d="M1762.28,2022.5v-28.63c-1.83-1.15-3.58-2.34-5.25-3.57v28.63
			C1758.71,2020.15,1760.46,2021.35,1762.28,2022.5z"/>
		<path class="st15" d="M1772.8,2028.26v-28.63c-1.8-0.86-3.55-1.75-5.25-2.68v28.63C1769.25,2026.51,1771,2027.4,1772.8,2028.26z"
			/>
		<path class="st15" d="M1783.32,2032.66v-28.63c-1.79-0.65-3.53-1.34-5.24-2.06v28.63
			C1779.78,2031.32,1781.53,2032.01,1783.32,2032.66z"/>
		<path class="st15" d="M1793.83,2036.04v-28.63c-1.78-0.5-3.53-1.02-5.24-1.57v28.63
			C1790.31,2035.02,1792.06,2035.55,1793.83,2036.04z"/>
		<path class="st15" d="M1804.35,2038.57v-28.63c-1.77-0.36-3.52-0.75-5.24-1.16v28.63
			C1800.83,2037.82,1802.58,2038.21,1804.35,2038.57z"/>
		<path class="st15" d="M1814.87,2040.36v-28.63c-1.77-0.24-3.51-0.51-5.25-0.81v28.63
			C1811.35,2039.85,1813.1,2040.12,1814.87,2040.36z"/>
		<path class="st15" d="M1825.38,2041.48v-28.63c-1.76-0.13-3.51-0.29-5.25-0.48v28.63
			C1821.87,2041.19,1823.62,2041.35,1825.38,2041.48z"/>
		<path class="st15" d="M1835.9,2041.98v-28.63c-1.76-0.03-3.51-0.09-5.24-0.17v28.63
			C1832.39,2041.89,1834.14,2041.95,1835.9,2041.98z"/>
		<path class="st15" d="M1846.42,2041.86v-28.63c-1.74,0.07-3.49,0.11-5.25,0.13V2042
			C1842.93,2041.98,1844.68,2041.93,1846.42,2041.86z"/>
		<path class="st15" d="M1856.93,2041.14v-28.63c-1.73,0.17-3.48,0.32-5.24,0.44v28.63
			C1853.45,2041.46,1855.2,2041.31,1856.93,2041.14z"/>
		<path class="st15" d="M1867.45,2039.78v-28.63c-1.73,0.28-3.48,0.53-5.24,0.76v28.63
			C1863.97,2040.31,1865.72,2040.06,1867.45,2039.78z"/>
		<path class="st15" d="M1877.97,2037.72v-28.63c-1.73,0.4-3.47,0.77-5.24,1.12v28.63
			C1874.49,2038.49,1876.24,2038.11,1877.97,2037.72z"/>
		<path class="st15" d="M1888.48,2034.89v-28.63c-1.72,0.53-3.47,1.04-5.25,1.51v28.63
			C1885.01,2035.92,1886.77,2035.42,1888.48,2034.89z"/>
		<path class="st15" d="M1899.18,2031.08v-28.65c-1.71,0.69-3.46,1.35-5.24,1.99v28.65
			C1895.72,2032.43,1897.47,2031.77,1899.18,2031.08z"/>
		<path class="st15" d="M1909.52,2026.28v-28.63c-1.7,0.89-3.45,1.75-5.24,2.58v28.63
			C1906.07,2028.04,1907.82,2027.18,1909.52,2026.28z"/>
		<path class="st15" d="M1920.03,2019.87v-28.63c-1.67,1.18-3.42,2.33-5.24,3.44v28.63
			C1916.61,2022.2,1918.36,2021.05,1920.03,2019.87z"/>
		<g>
			<path class="st15" d="M1930.55,2010.9v-28.63c-1.61,1.69-3.36,3.33-5.25,4.91v28.63
				C1927.19,2014.22,1928.94,2012.59,1930.55,2010.9z"/>
		</g>
		<g>
			<path class="st15" d="M1941.07,1994.68v-28.62c-1.27,3.39-3.03,6.67-5.25,9.82v28.63
				C1938.04,2001.36,1939.8,1998.07,1941.07,1994.68z"/>
		</g>
	</g>
	<g>
		<ellipse class="st15" cx="1804.35" cy="1908.28" rx="104.21" ry="59.99"/>
		<g>
			<path class="st16" d="M1700.15,1907.84C1700.15,1907.84,1700.14,1907.84,1700.15,1907.84c-0.01,0-0.01,0.12-0.01,0.31
				C1700.14,1908.04,1700.15,1907.94,1700.15,1907.84z"/>
			<path class="st16" d="M1908.55,1907.82c0-0.24,0-0.38,0-0.38s-0.01,0-0.01,0C1908.55,1907.56,1908.55,1907.69,1908.55,1907.82z"
				/>
			<path class="st11" d="M1908.55,1908.72c-0.41,32.93-46.9,59.56-104.2,59.56c-57.48,0-104.08-26.79-104.21-59.86
				c0,3.13,0,18.62,0,28.55c0,33.13,46.66,59.99,104.21,59.99c57.55,0,104.21-26.86,104.21-59.99
				C1908.56,1926.56,1908.55,1912.9,1908.55,1908.72z"/>
		</g>
		<ellipse class="st17" cx="1804.35" cy="1910.65" rx="77.13" ry="42.03"/>
		<path class="st11" d="M1845.35,1927.42l-9.57,5.51l-5.57-3.2c0,0-17.15,7.27-22.43,8.12l-16.02-9.33c0,0,30.65-6.13,33.78-12.63
			c3.13-6.5-13.14-3.45-17.43-2.47c-10.42,2.4-30.34,10.96-42.24-1.9c-8.76-9.47,1.37-19.37,1.37-19.37l-5.7-2.97l9.07-5l5.47,3.01
			c0,0,11.14-7.3,24.13-8.24l14.22,7.82c0,0-39.13,7.45-32.02,15.44c0,0,4.54,3.89,17.31-1.07c12.05-3.12,32.72-9.63,45.04,4.47
			c2.45,2.8,3.36,8.87,1.07,12.69c-1.55,2.58-1.85,3.61-5.81,5.82L1845.35,1927.42z"/>
		<path class="st11" d="M1804.35,1868.62c41.89,0,75.98,18.2,77.1,40.87c0.02-0.41,0.03-0.81,0.03-1.22
			c0-24.52-34.53-44.4-77.13-44.4c-42.6,0-77.13,19.88-77.13,44.4c0,0.41,0.01,0.81,0.03,1.22
			C1728.37,1886.82,1762.46,1868.62,1804.35,1868.62z"/>
		<g>
			<path class="st15" d="M1706.41,1957.44v-28.62c-2.45-3.87-4.22-7.93-5.25-12.13v28.62
				C1702.18,1949.5,1703.96,1953.56,1706.41,1957.44z"/>
		</g>
		<g>
			<path class="st15" d="M1716.92,1969.56v-28.63c-1.89-1.68-3.65-3.41-5.25-5.19v28.63
				C1713.28,1966.16,1715.03,1967.89,1716.92,1969.56z"/>
		</g>
		<path class="st15" d="M1727.44,1977.39v-28.63c-1.83-1.15-3.58-2.34-5.24-3.57v28.63
			C1723.87,1975.05,1725.61,1976.24,1727.44,1977.39z"/>
		<path class="st15" d="M1737.96,1983.15v-28.63c-1.8-0.86-3.55-1.75-5.24-2.68v28.63
			C1734.41,1981.4,1736.16,1982.29,1737.96,1983.15z"/>
		<path class="st15" d="M1748.47,1987.56v-28.63c-1.79-0.65-3.53-1.34-5.24-2.06v28.63
			C1744.94,1986.21,1746.69,1986.9,1748.47,1987.56z"/>
		<path class="st15" d="M1758.99,1990.93v-28.63c-1.78-0.5-3.53-1.02-5.25-1.57v28.63
			C1755.47,1989.91,1757.21,1990.44,1758.99,1990.93z"/>
		<path class="st15" d="M1769.51,1993.46v-28.63c-1.77-0.36-3.52-0.75-5.25-1.16v28.63
			C1765.99,1992.71,1767.74,1993.1,1769.51,1993.46z"/>
		<path class="st15" d="M1780.02,1995.25v-28.63c-1.77-0.24-3.51-0.51-5.24-0.81v28.63
			C1776.51,1994.74,1778.26,1995.01,1780.02,1995.25z"/>
		<path class="st15" d="M1790.54,1996.38v-28.63c-1.76-0.13-3.51-0.29-5.24-0.48v28.63
			C1787.03,1996.08,1788.78,1996.24,1790.54,1996.38z"/>
		<path class="st15" d="M1801.06,1996.87v-28.63c-1.76-0.03-3.51-0.09-5.25-0.17v28.63
			C1797.55,1996.78,1799.3,1996.84,1801.06,1996.87z"/>
		<path class="st15" d="M1811.57,1996.76v-28.63c-1.74,0.07-3.49,0.11-5.25,0.13v28.63
			C1808.09,1996.87,1809.84,1996.82,1811.57,1996.76z"/>
		<path class="st15" d="M1822.09,1996.03v-28.63c-1.73,0.17-3.48,0.32-5.24,0.44v28.63
			C1818.61,1996.35,1820.36,1996.2,1822.09,1996.03z"/>
		<path class="st15" d="M1832.61,1994.67v-28.63c-1.73,0.28-3.48,0.53-5.25,0.76v28.63
			C1829.13,1995.2,1830.88,1994.95,1832.61,1994.67z"/>
		<path class="st15" d="M1843.12,1992.61v-28.63c-1.73,0.4-3.47,0.77-5.24,1.12v28.63
			C1839.65,1993.38,1841.4,1993.01,1843.12,1992.61z"/>
		<path class="st15" d="M1853.64,1989.78v-28.63c-1.72,0.53-3.47,1.04-5.25,1.51v28.63
			C1850.17,1990.81,1851.92,1990.31,1853.64,1989.78z"/>
		<path class="st15" d="M1864.34,1985.97v-28.65c-1.71,0.69-3.46,1.35-5.24,1.99v28.65
			C1860.88,1987.33,1862.63,1986.66,1864.34,1985.97z"/>
		<path class="st15" d="M1874.67,1981.18v-28.63c-1.7,0.89-3.45,1.75-5.24,2.58v28.63
			C1871.23,1982.93,1872.98,1982.07,1874.67,1981.18z"/>
		<path class="st15" d="M1885.19,1974.76v-28.63c-1.67,1.18-3.42,2.33-5.25,3.44v28.63
			C1881.77,1977.09,1883.52,1975.94,1885.19,1974.76z"/>
		<g>
			<path class="st15" d="M1895.71,1965.79v-28.63c-1.61,1.69-3.36,3.33-5.25,4.91v28.63
				C1892.34,1969.12,1894.09,1967.48,1895.71,1965.79z"/>
		</g>
		<g>
			<path class="st15" d="M1906.22,1949.57v-28.62c-1.27,3.39-3.03,6.67-5.24,9.82v28.63
				C1903.2,1956.25,1904.96,1952.96,1906.22,1949.57z"/>
		</g>
	</g>
</g>
<g id="Man_1_">
	<ellipse class="st4" cx="1426.88" cy="1927.89" rx="160.73" ry="82.93"/>
	<path class="st20" d="M1498.7,1314.94c-105.62-125.42-51.88-145.04-51.88-145.04c45.18-43,104.84,80.93,104.84,80.93l23.12,38.97
		l64.3-55.72l23.04,21.32c0,0-73.41,121.3-106.48,102.61C1522.28,1339.14,1493.63,1309.55,1498.7,1314.94z"/>
	<path class="st7" d="M1504.46,1430.57v515.56c0,0-52.95,24.6-88.87,4.08c-1.28-7.7-5.61-404.14-5.61-404.14l-5.55,351.95
		c0,0-49.72,34.32-84.68-1.92c-1.28-6.42,6.74-504.21,6.74-504.21S1359.48,1453.27,1504.46,1430.57z"/>
	<path class="st20" d="M1491.25,1448.6c-20.19,6.81-41.81,9.52-56.14,10.2c-7.96,0.37-19.51,0.42-28.29-0.43
		c-66.43-6.38-86.01-23.13-82.99-64.84c3.19-44-6.38-142.21-6.38-142.21c-24.9-175.33,70.56-133.14,70.56-133.14
		c0.28-0.69,5.62,2.42,11.76,6.3c11.03,6.97,23.46,11.39,36.4,13.01c16.9,2.11,41.53,10.54,62.17,33.98
		c90.37,102.58,6.99,126.17,7.74,140.94c0.76,15.07-0.4,23.73-0.8,43.05c-0.08,3.68-0.84,13.21,1.77,38.63
		c0,0,3.23,27.36,0.06,40.44C1505.53,1441.1,1497.66,1446.44,1491.25,1448.6z"/>
	<rect x="1473.65" y="1520.62" class="st0" width="1.41" height="407.87"/>
	
		<rect x="1198.22" y="1710.42" transform="matrix(0.0205 -0.9998 0.9998 0.0205 -359.5213 3055.2673)" class="st0" width="362.69" height="1.41"/>
	<path class="st21" d="M1476.21,1026.12c1.98,0.73,13.77,104.7-35.03,93.02c0,0,0.11,12.25,4.25,20.02c0,0-34.63,12.45-55.51-4.73
		c-3.69-3.03-5.1-8.04-3.58-12.57c1.46-4.36,3.6-10.6,6.2-17.87C1399.42,1084.76,1382.4,991.48,1476.21,1026.12z"/>
	<path class="st21" d="M1658.72,1252.26l-17.14-15.23l7.68-19.81c1.16-2.97,3.79-5.11,6.94-5.62l14.07-2.32l23.99-25.39
		c0,0,5.67,0.52,3.07,4.11c-2.6,3.59-19.57,26.15-19.57,26.15s14.63,16.23,5.5,24.72c-4.58,4.26-9.13,6.1-11.9,6.88
		c-2.01,0.57-3.89,1.54-5.53,2.84L1658.72,1252.26z"/>
	<path class="st0" d="M1447.74,1139.73l-4.77-7.18c0,0-39.49,10.79-54.95-14.37c0,0-12.42,17.07,18.63,24.07
		C1436.68,1148.34,1447.74,1139.73,1447.74,1139.73z"/>
	<path class="st6" d="M1498.26,1314.42c-0.28-0.25-0.15-0.11,0.44,0.52C1498.55,1314.76,1498.41,1314.59,1498.26,1314.42
		c0.65,0.58,3.52,3.33,8.03,7.35c-0.28,16.6-1.28,36.95-1.11,45.25c-41.2-29.17-67.92-81.29-63.67-137.3
		C1450.41,1250.38,1467.56,1277.89,1498.26,1314.42z"/>
	<g>
		<path class="st22" d="M1343.25,1119.08c-0.01,0-0.01,0.01-0.02,0.01C1343.24,1119.09,1343.25,1119.08,1343.25,1119.08
			C1343.25,1119.08,1343.25,1119.08,1343.25,1119.08z"/>
		<path class="st20" d="M1291.04,1287.46l1.88-43.21c0.93-73.96,26.38-106.82,43.42-120.36c-17.39,14.93-29.89,49.93-18.89,127.42
			c0,0,8.88,60.88,8.16,105.04l-27.62-43.06C1293.08,1305.61,1290.64,1296.59,1291.04,1287.46z"/>
	</g>
	<path class="st6" d="M1314.04,1219.42L1314.04,1219.42c0.66,9.74,1.78,20.34,3.42,31.9c0,0,6,41.11,7.74,80.27c0,0,0,0,0,0
		C1306.44,1296.38,1314.04,1219.42,1314.04,1219.42z"/>
	<path class="st6" d="M1326.04,1419.89c5.83,18.64,22.42,29.22,55.37,35.12c2.57-6.25,6.86-26.58,6.86-26.58s3.4,20.53,2.07,28.01
		c5.14,0.73,10.63,1.38,16.48,1.94c8.78,0.84,20.33,0.8,28.29,0.43c14.34-0.67,35.96-3.39,56.14-10.2
		c4.61-1.56,9.99-4.76,13.23-8.89c0,7.7,0,22.52,0,22.52S1347.09,1500.09,1326.04,1419.89L1326.04,1419.89z"/>
	<g>
		<path class="st23" d="M1404.43,1898.02l0.72-45.86l5.55-1.48c0,0,1.08-0.04,2.98-0.24c0.34,24.26,0.67,45.85,0.97,62.69
			c-6.36,2.35-13.25,4.84-20.61,7.59v7.22c0,0-50.91,29.23-74.43-6.43v-34.56c0,5.49,0.04,8.67,0.14,9.14
			C1354.71,1932.34,1404.43,1898.02,1404.43,1898.02z"/>
		<path class="st24" d="M1319.65,1874.98c-0.03,4.73-0.04,8.75-0.04,11.97v-11.96L1319.65,1874.98z"/>
	</g>
	<path class="st23" d="M1415.59,1944.74c35.93,20.53,88.87-4.08,88.87-4.08v-42.86l1.33-0.35c0,0,8.58-0.27,20.2-3.87
		c13.53-4.19,28.07,3.63,31.41,17.39c0.07,0.31,0.66,9.27,0.72,9.59c4.63,22.5-23.02,29.76-68.99,46.94v7.22
		c0,0-50.91,29.23-74.43-6.43v-46.52l0.21-0.06C1415.18,1935.33,1415.41,1943.68,1415.59,1944.74z"/>
	<g>
		<path class="st0" d="M1489.28,1967.64c40.57-15.16,66.86-22.6,69.3-39.6c2.74,21.04-24.63,28.38-69.3,45.07V1967.64z"/>
		<path class="st0" d="M1489.28,1974.86v5.47c0,0-50.91,29.23-74.43-6.43v-5.47C1438.37,2004.09,1489.28,1974.86,1489.28,1974.86z"
			/>
	</g>
	<path class="st0" d="M1394.23,1927.93v5.47c0,0-50.91,29.23-74.43-6.43v-5.47C1343.32,1957.17,1394.23,1927.93,1394.23,1927.93z"/>
	<path class="st0" d="M1414.74,1918.42c-6.38,2.35-13.28,4.85-20.66,7.61v-5.47c7.34-2.74,14.21-5.23,20.56-7.57
		C1414.68,1914.86,1414.71,1916.67,1414.74,1918.42z"/>
	<path class="st6" d="M1452.1,1078.94c-3.46,0.61-3.12-40.08-21.18,10.33c-18.06,50.41-45.87,20.63-43,14.33
		s-13.78-27.49-13.76-29.97c0.02-2.48-37.45-35.79,0.53-82.47c16.56-20.36,83.67-18.26,93.62-30.11s49.76,53.19-8.07,75.11
		C1460.25,1036.17,1463.36,1076.95,1452.1,1078.94z"/>
</g>
<g id="Man_2_">
	<ellipse class="st4" cx="2247.95" cy="2207.22" rx="160.73" ry="82.93"/>
	<g>
		<path class="st7" d="M2180.18,1704.84v515.56c0,0,52.95,24.6,88.87,4.08c1.28-7.7,5.61-404.14,5.61-404.14l5.55,351.95
			c0,0,49.72,34.32,84.68-1.92c1.28-6.42-6.74-504.21-6.74-504.21S2325.17,1727.53,2180.18,1704.84z"/>
		<path class="st10" d="M2193.39,1722.87c20.19,6.81,41.81,9.52,56.14,10.2c7.96,0.37,19.51,0.42,28.29-0.43
			c66.43-6.38,86.01-23.13,82.99-64.84c-3.19-44,6.38-142.21,6.38-142.21c24.9-175.33-70.56-133.14-70.56-133.14
			c-0.28-0.69-5.62,2.42-11.76,6.3c-11.03,6.97-23.46,11.39-36.4,13.01c-16.9,2.11-41.53,10.54-62.17,33.98
			c-90.37,102.58-6.99,126.17-7.74,140.94c-0.76,15.07,0.4,23.73,0.8,43.05c0.08,3.67,0.84,13.21-1.77,38.63
			c0,0-3.23,27.36-0.06,40.44C2179.11,1715.37,2186.98,1720.71,2193.39,1722.87z"/>
		<rect x="2209.59" y="1794.89" class="st0" width="1.41" height="407.87"/>
		<path class="st5" d="M2186.38,1588.69c0.28-0.25,0.15-0.11-0.44,0.52C2186.09,1589.03,2186.24,1588.86,2186.38,1588.69
			c-0.65,0.58-3.52,3.33-8.03,7.35c0.28,16.6,1.28,36.95,1.11,45.25c41.2-29.17,67.92-81.29,63.67-137.3
			C2234.23,1524.64,2217.08,1552.16,2186.38,1588.69z"/>
		
			<rect x="2304.37" y="1804.05" transform="matrix(0.9998 -0.0205 0.0205 0.9998 -40.2773 47.7454)" class="st0" width="1.41" height="362.69"/>
		<path class="st25" d="M2208.44,1300.39c-1.98,0.73-13.77,104.7,35.03,93.02c0,0-0.11,12.25-4.25,20.02c0,0,34.63,12.45,55.51-4.73
			c3.69-3.03,5.1-8.04,3.58-12.57c-1.46-4.36-3.6-10.6-6.2-17.87C2285.22,1359.03,2302.24,1265.75,2208.44,1300.39z"/>
		<path class="st6" d="M2230.72,1352.16c3.46,0.61,3.12-40.08,21.18,10.33s45.87,20.63,43,14.33c-2.87-6.29,13.78-27.49,13.76-29.97
			c-0.02-2.48,19.7-68.71-39.75-77.97c-59.46-9.25-31.99-0.09-41.94-11.94c-9.95-11.85-62.21,30.52-4.39,52.44
			C2222.58,1309.39,2219.46,1350.16,2230.72,1352.16z"/>
		<path class="st0" d="M2236.9,1414l4.77-7.18c0,0,39.49,10.79,54.95-14.37c0,0,12.42,17.07-18.63,24.07
			C2247.96,1422.61,2236.9,1414,2236.9,1414z"/>
		<path class="st10" d="M2178.55,1613.64c105.62-125.42,59.28-169.47,59.28-169.47c-45.18-43-104.84,80.93-104.84,80.93
			l-27.41,59.24l-1.86,8.18c-4.98,12.22-1.31,29.56,2.7,42.14l-0.08-0.25c2.21,6.92,7.72,12.31,14.72,14.28
			c10.92,3.07,39.36,6.35,59.13-4.82C2180.18,1643.86,2181.06,1617.29,2178.55,1613.64z"/>
		<g>
			<path class="st22" d="M2341.39,1393.35c0.01,0,0.01,0.01,0.02,0.01C2341.4,1393.36,2341.4,1393.35,2341.39,1393.35
				C2341.39,1393.35,2341.39,1393.35,2341.39,1393.35z"/>
			<path class="st10" d="M2393.6,1561.73l-1.88-43.21c-0.93-73.96-26.38-106.82-43.42-120.36c17.39,14.93,29.89,49.93,18.89,127.42
				c0,0-9.29,42.99-8.58,87.15l28.03-25.18C2391.57,1579.88,2394,1570.85,2393.6,1561.73z"/>
		</g>
		<path class="st5" d="M2370.6,1493.69L2370.6,1493.69c-0.66,9.74-1.78,20.34-3.42,31.9c0,0-6,41.11-7.74,80.27c0,0,0,0,0,0
			C2378.21,1570.65,2370.6,1493.69,2370.6,1493.69z"/>
		<path class="st26" d="M2358.61,1694.16c-5.83,18.64-22.42,29.22-55.37,35.12c-2.57-6.25-6.86-26.58-6.86-26.58
			s-3.4,20.53-2.07,28.01c-5.14,0.73-10.63,1.38-16.48,1.94c-8.78,0.84-20.33,0.8-28.29,0.43c-14.34-0.67-35.96-3.39-56.14-10.2
			c-4.61-1.56-9.99-4.76-13.23-8.89c0,7.7,0,22.52,0,22.52S2337.55,1774.36,2358.61,1694.16L2358.61,1694.16z"/>
		<g>
			<path class="st23" d="M2280.22,2172.29l-0.72-45.86l-5.55-1.48c0,0-1.08-0.03-2.98-0.24c-0.34,24.26-0.67,45.85-0.97,62.69
				c6.36,2.35,13.25,4.84,20.61,7.59v7.22c0,0,50.91,29.23,74.43-6.43v-34.56c0,5.49-0.04,8.67-0.14,9.14
				C2329.94,2206.61,2280.22,2172.29,2280.22,2172.29z"/>
			<path class="st24" d="M2364.99,2149.25c0.03,4.73,0.04,8.75,0.04,11.97v-11.96L2364.99,2149.25z"/>
		</g>
		<path class="st23" d="M2269.05,2219.01c-35.93,20.53-88.87-4.08-88.87-4.08v-42.86l-1.33-0.35c0,0-8.58-0.27-20.2-3.87
			c-13.53-4.19-28.07,3.63-31.41,17.39c-0.07,0.31-0.66,9.27-0.72,9.59c-4.63,22.5,23.02,29.76,68.99,46.94v7.22
			c0,0,50.91,29.23,74.43-6.43v-46.52l-0.21-0.06C2269.46,2209.6,2269.23,2217.95,2269.05,2219.01z"/>
		<g>
			<path class="st0" d="M2195.51,2241.76c-40.57-15.16-66.86-22.6-69.3-39.6c-2.74,21.04,24.63,28.38,69.3,45.07V2241.76z"/>
			<path class="st0" d="M2195.51,2248.99v5.47c0,0,50.91,29.23,74.43-6.43v-5.47C2246.42,2278.22,2195.51,2248.99,2195.51,2248.99z"
				/>
		</g>
		<path class="st0" d="M2290.56,2202.06v5.47c0,0,50.91,29.23,74.43-6.43v-5.47C2341.47,2231.29,2290.56,2202.06,2290.56,2202.06z"
			/>
		<path class="st0" d="M2269.9,2192.69c6.38,2.35,13.28,4.85,20.66,7.61v-5.47c-7.34-2.74-14.21-5.23-20.56-7.57
			C2269.96,2189.13,2269.93,2190.94,2269.9,2192.69z"/>
	</g>
	<path class="st5" d="M2148.75,1651.63c0,0,28.59-34.47,29.8-37.99c1.21-3.52,1.63,30.22,1.63,30.22
		S2168.52,1651.06,2148.75,1651.63z"/>
	<path class="st25" d="M2127.08,1533.05c0,0,1.57,15.25,10.89,14.37c5.08-0.48,4.16,30.05-13.77,29.89
		c-10.49-0.1-22.73-3.99-20.38-14.22C2107.11,1548.79,2127.08,1533.05,2127.08,1533.05z"/>
</g>
<g id="Chart">
	<path class="st27" d="M722.57,700.45v515.73c0,16.83,18.29,27.29,32.8,18.75l806.01-474.37c15.97-9.4,25.78-26.55,25.78-45.08
		V202.01c0-14.82-16.05-24.08-28.88-16.66L750.24,652.5C733.12,662.4,722.57,680.68,722.57,700.45z"/>
	<path class="st6" d="M722.57,1216.18V700.45c0-19.78,10.55-38.06,27.67-47.96l808.04-467.15c4.65-2.69,9.72-3.18,14.29-2.02
		l-11.69-3.95c-10.1-3.78-21.36-2.84-30.69,2.55L733.23,642.28c-17.12,9.9-27.67,28.18-27.67,47.96v519.96
		c0,16.83,28.25,25.02,28.25,25.02C727.28,1231.61,722.57,1224.72,722.57,1216.18z"/>
	<path class="st4" d="M1506.12,608.08c-22.23,12.71-44.47,25.43-66.7,38.14c-22.23,12.71-44.47,25.43-66.7,38.14
		c-12.59,7.2-25.18,14.4-37.77,21.6c-3.35,1.92-4.79,6.77-2.65,10.09c2.18,3.38,6.51,4.7,10.09,2.65
		c22.23-12.71,44.47-25.43,66.7-38.14c22.23-12.71,44.47-25.43,66.7-38.14c12.59-7.2,25.18-14.4,37.77-21.6
		c3.35-1.92,4.79-6.77,2.65-10.09C1514.04,607.35,1509.71,606.03,1506.12,608.08L1506.12,608.08z"/>
	<path class="st4" d="M1506.12,657.2c-22.23,12.71-44.47,25.43-66.7,38.14c-22.23,12.71-44.47,25.43-66.7,38.14
		c-12.59,7.2-25.18,14.4-37.77,21.6c-3.35,1.92-4.79,6.77-2.65,10.09c2.18,3.38,6.51,4.7,10.09,2.65
		c22.23-12.71,44.47-25.43,66.7-38.14c22.23-12.71,44.47-25.43,66.7-38.14c12.59-7.2,25.18-14.4,37.77-21.6
		c3.35-1.92,4.79-6.77,2.65-10.09C1514.04,656.46,1509.71,655.15,1506.12,657.2L1506.12,657.2z"/>
	<path class="st4" d="M1506.12,709.84c-22.23,12.71-44.47,25.43-66.7,38.14c-22.23,12.71-44.47,25.43-66.7,38.14
		c-12.59,7.2-25.18,14.4-37.77,21.6c-3.35,1.92-4.79,6.77-2.65,10.09c2.18,3.38,6.51,4.7,10.09,2.65
		c22.23-12.71,44.47-25.43,66.7-38.14c22.23-12.71,44.47-25.43,66.7-38.14c12.59-7.2,25.18-14.4,37.77-21.6
		c3.35-1.92,4.79-6.77,2.65-10.09C1514.04,709.11,1509.71,707.79,1506.12,709.84L1506.12,709.84z"/>
	<path class="st0" d="M824.5,684.69c-16.27,8.78-32.53,17.57-48.8,26.35c-2.19,1.18-0.24,4.52,1.95,3.34
		c16.27-8.78,32.53-17.57,48.8-26.35C828.64,686.85,826.69,683.51,824.5,684.69L824.5,684.69z"/>
	<path class="st0" d="M824.5,738.13c-16.27,8.79-32.53,17.57-48.8,26.35c-2.19,1.18-0.24,4.52,1.95,3.34
		c16.27-8.78,32.53-17.57,48.8-26.35C828.64,740.28,826.69,736.94,824.5,738.13L824.5,738.13z"/>
	<path class="st0" d="M824.5,791.53c-16.27,8.78-32.53,17.57-48.8,26.35c-2.19,1.18-0.24,4.52,1.95,3.34
		c16.27-8.78,32.53-17.57,48.8-26.35C828.64,793.68,826.69,790.34,824.5,791.53L824.5,791.53z"/>
	<path class="st0" d="M824.5,847.28c-16.27,8.79-32.53,17.57-48.8,26.35c-2.19,1.18-0.24,4.52,1.95,3.34
		c16.27-8.78,32.53-17.57,48.8-26.35C828.64,849.43,826.69,846.09,824.5,847.28L824.5,847.28z"/>
	<path class="st0" d="M824.5,905.49c-16.27,8.79-32.53,17.57-48.8,26.35c-2.19,1.18-0.24,4.52,1.95,3.34
		c16.27-8.78,32.53-17.57,48.8-26.35C828.64,907.65,826.69,904.31,824.5,905.49L824.5,905.49z"/>
	<path class="st12" d="M1064.01,889.78v112.5c0,19.62-10.46,37.76-27.44,47.59l-220,127.37c-17.72,10.26-39.9-2.53-39.9-23.01
		l0.01-110.4c0-20.69,11.01-39.81,28.9-50.2l218.5-126.84C1041.81,856.5,1064.01,869.29,1064.01,889.78z"/>
	<g>
		<g>
			<path class="st4" d="M1138.33,816.93c16.61-26.39,39.22-45.31,61.86-54.15l1.98,92.8h76.43c0.3-1.04,0.58-2.07,0.85-3.1
				c-3.63,13.9-9.72,28.12-18.3,41.75c-31.45,49.97-84.44,73.17-118.36,51.83C1108.88,924.71,1106.88,866.9,1138.33,816.93z"/>
		</g>
		<path class="st11" d="M1202.17,855.58l-1.98-92.8c20.23-7.9,40.49-7.76,56.5,2.32c25.35,15.95,32.87,52.28,21.92,90.48H1202.17z"
			/>
		<path class="st6" d="M1202.17,855.58l-85.03,47.99c-4.11-25.69,2.85-57.5,21.19-86.64c16.61-26.39,39.22-45.31,61.86-54.15
			L1202.17,855.58z"/>
	</g>
	<path class="st0" d="M868.31,880.36c-1.37-20.62-0.16-41.36,3.84-61.64c3.72-18.9,9.43-37.94,18.38-55.05
		c14.14-27.02,40.51-54.86,74.02-47.43c29.9,6.63,50.66,33.08,79.96,41.48c35.25,10.1,68.53-13.14,85.92-42.46
		c9.59-16.17,15.55-34.23,20.55-52.27c4.94-17.84,9.08-35.88,14-53.73c9.44-34.24,22.35-71.17,50.13-95.02
		c12.91-11.08,29.79-18.9,47.12-16.22c15.82,2.45,29.31,12.09,42.52,20.46c13.52,8.57,27.84,16.59,44.18,17.5
		c16.95,0.95,33.59-5.65,47.13-15.5c31.16-22.65,43.97-59.27,59.39-92.95c15.34-33.5,36.83-63.21,65.3-86.8
		c6.85-5.67,14.04-10.9,21.5-15.73c3.78-2.45,0.26-8.54-3.55-6.07c-30.44,19.74-56.28,46.31-74.98,77.42
		c-10.08,16.76-17.47,34.85-25.42,52.67c-7.68,17.22-16.02,34.81-28.42,49.2c-11.48,13.32-26.39,24.59-43.64,29
		c-16.63,4.25-32.35,0.04-46.98-8.18c-13.91-7.82-26.6-17.82-41.47-23.86c-15.94-6.47-32.79-5.89-48.37,1.36
		c-32.89,15.32-51.48,51.3-62.91,83.92c-12.3,35.09-17.61,72.3-30.73,107.1c-6.67,17.71-16.07,34.92-30.42,47.57
		c-13.08,11.53-30.29,19.22-47.97,17.87c-15.56-1.19-29.46-9.56-42.22-17.91c-12.67-8.29-25.05-17.34-39.31-22.77
		c-14.64-5.58-30.53-5.77-45.03,0.37c-14.65,6.2-26.41,17.56-35.71,30.24c-10.35,14.11-17.39,30.22-22.73,46.81
		c-6.33,19.65-10.1,40.14-11.27,60.75c-0.57,9.95-0.49,19.92,0.18,29.86C861.58,884.85,868.61,884.88,868.31,880.36L868.31,880.36z"
		/>
	<path class="st12" d="M1568.31,435.43c-18.2-7.56-37.31-12.83-56.86-15.43c-18.21-2.43-37.16-3.12-55.37-0.27
		c-28.75,4.49-61.97,19.77-65.53,52.32c-3.18,29.04,14.35,55.9,12.95,84.94c-1.68,34.94-32.88,57.87-64.7,64.6
		c-17.55,3.71-35.69,3.55-53.51,2.54c-17.63-1-35.2-2.8-52.82-3.82c-33.82-1.97-71.14-1.63-101.2,16.15
		c-13.97,8.26-26.2,21.11-29.1,37.59c-2.64,15.04,1.93,30.18,5.45,44.68c3.6,14.84,6.45,30.23,2.27,45.28
		c-4.34,15.61-15.41,28.61-28.45,37.83c-30.01,21.2-67.02,21.55-102.17,25.15c-34.97,3.59-68.39,13.89-98.42,32.37
		c-7.22,4.45-14.15,9.34-20.8,14.6c-3.37,2.66-7.79-2.38-4.39-5.06c27.16-21.44,59.09-36.64,92.92-44
		c18.23-3.96,36.84-5.1,55.37-6.82c17.91-1.66,36.35-3.8,53.16-10.59c15.55-6.28,30.3-16.3,39.57-30.53
		c8.94-13.72,9.95-29.21,7.01-44.95c-2.79-14.96-7.95-29.49-8.84-44.78c-0.96-16.38,4.73-31.43,16.06-43.27
		c23.92-25.02,62.12-30.78,95.09-31.1c35.47-0.35,70.71,6.26,106.17,5.08c18.04-0.6,36.47-3.81,52.29-12.89
		c14.43-8.28,26.65-21.47,30.85-37.85c3.7-14.42,0.39-29.55-3.23-43.63c-3.6-13.99-7.98-27.95-8.52-42.49
		c-0.55-14.93,4.15-29.35,14.14-40.56c10.09-11.33,23.96-18.48,38.27-22.99c15.92-5.02,32.63-6.44,49.25-6.18
		c19.69,0.3,39.36,3.19,58.34,8.44c9.16,2.54,18.14,5.67,26.92,9.32C1574.42,430.73,1572.3,437.09,1568.31,435.43L1568.31,435.43z"
		/>
</g>
<g id="plant_4_">
	<ellipse class="st4" cx="942.7" cy="1853.22" rx="81.85" ry="42.23"/>
	<g id="plant_5_">
		<path class="st6" d="M941.2,1639.3c-42.03,0-76.69-14.67-81.59-33.59c-0.42-0.52-0.6-0.81-0.6-0.81l40.66,260.16
			c0,0,14.24,12.42,41.28,12.42c26.76,0,40.64-12.42,40.64-12.42l41.12-259.01C1017.48,1624.8,982.98,1639.3,941.2,1639.3z"/>
		<g>
			<path class="st0" d="M941.28,1753.64c23.82,0,45.26-4.71,60.28-12.24l4.3-27.06c-15.06,8.78-38.27,14.42-64.31,14.42
				c-26.54,0-50.14-5.85-65.17-14.92l4.28,27.39C895.68,1748.85,917.27,1753.64,941.28,1753.64z"/>
			<path class="st0" d="M941.28,1771.89c-22.41,0-42.72-4.17-57.54-10.93l2.06,13.16c14.65,6.29,34.23,10.13,55.74,10.13
				c21.03,0,40.22-3.67,54.75-9.72l2.13-13.4C983.63,1767.8,963.49,1771.89,941.28,1771.89z"/>
		</g>
		<ellipse class="st4" cx="941.2" cy="1603.01" rx="82.19" ry="38.2"/>
		<ellipse class="st0" cx="942.37" cy="1601.68" rx="68.42" ry="30.03"/>
		<path class="st28" d="M1001.06,1548.44"/>
		<path class="st29" d="M1000.02,1548.44c0,0,42.13,32.58,114.93-13.14c9.56-6,18.87-9.59,27.79-11.32
			c20.27-3.94,24.02-31.55,5.34-40.35c-29.3-13.8-64.87-17.84-104.94,2.41C1043.15,1486.04,1001.93,1506.07,1000.02,1548.44z"/>
		<path class="st29" d="M907.53,1571.64c0.13,6.15-4,11.61-9.97,13.07c-16.83,4.1-54.68,6.19-101.47-36.13
			c-15.59-14.1-31.77-19.78-47.1-20.55c-13.59-0.68-17.57-18.84-5.4-24.93c36.94-18.49,84.17-26.19,131.77,9.43
			C875.35,1512.53,906.75,1535.26,907.53,1571.64z"/>
		<path class="st29" d="M958.58,1530.77c0,0,48.38-1.36,83.73-79.72c7.72-17.1,23.24-29.62,39.68-38.59
			c17.31-9.44,9.96-35.78-9.75-35.22c-33.1,0.94-72.15,15.14-102.1,65.2C970.15,1442.43,942.37,1493.95,958.58,1530.77z"/>
		<path class="st29" d="M915.37,1500.82c-0.44,8.84-9.05,14.93-17.62,12.7c-17.69-4.6-48.27-19.62-76.93-68.06
			c-12.45-21.04-37.21-32.88-59.39-39.49c-13.78-4.11-13.28-23.75,0.69-27.16c35.49-8.67,86.12-6.67,129.19,49.77
			c0.21,0.27,0.4,0.54,0.59,0.83C894.81,1433.76,917,1468.16,915.37,1500.82z"/>
		<path class="st29" d="M923.62,1484.93c7.58,8.11,20.72,7.09,26.83-2.17c13.25-20.08,29.43-59.11,6.43-111.79
			c-9.93-22.74-15.85-43.3-19.26-60.99c-3.49-18.11-29.19-18.62-33.44-0.67c-3.12,13.2-6.14,28.97-8.86,47.78
			c-4.71,32.64-4.73,64.8,6.92,95.65C906.46,1463.89,914.9,1475.6,923.62,1484.93z"/>
		<path class="st4" d="M960.13,1630.93c6.56-40.61,32.38-77.25,67.38-98.56c9.83-5.99,20.36-10.72,31.4-14
			c2.26-0.67,1.3-4.21-0.98-3.54c-40.31,11.98-74.14,43.03-91.18,81.29c-4.81,10.81-8.28,22.15-10.17,33.83
			C956.22,1632.26,959.75,1633.26,960.13,1630.93L960.13,1630.93z"/>
		<path class="st4" d="M927.12,1631.17c-6.26-38.72-30.77-73.6-64.22-93.82c-9.42-5.7-19.55-10.18-30.11-13.32
			c-2.27-0.67-3.24,2.87-0.98,3.54c36.74,10.92,67.32,38.96,82.73,73.91c4.31,9.78,7.33,20.12,9.04,30.67
			C923.96,1634.47,927.49,1633.48,927.12,1631.17L927.12,1631.17z"/>
		<path class="st4" d="M954.51,1631.66c-2.96-34.41-1.4-69.13,6.68-102.79c7.26-30.23,19.42-59.24,37.27-84.78
			c9.81-14.04,21.32-26.86,34.3-38.05c1.79-1.54-0.81-4.13-2.6-2.6c-23.22,20.01-41.56,45.28-54.61,72.96
			c-14.11,29.95-22.18,62.65-25.01,95.58c-1.71,19.86-1.42,39.83,0.29,59.68C951.04,1633.99,954.71,1634.02,954.51,1631.66
			L954.51,1631.66z"/>
		<path class="st4" d="M932.44,1631.72c1.28-14.86,1.78-29.83,0.06-44.68c-1.56-13.43-4.84-26.53-8.62-39.48
			c-4.43-15.16-9.14-30.2-15.53-44.67c-6.19-14.01-13.68-27.46-22.48-39.99c-9.94-14.16-21.51-27.14-34.62-38.44
			c-1.78-1.53-4.39,1.05-2.6,2.6c23.01,19.83,41.11,44.79,54.03,72.22c6.66,14.13,11.53,28.85,16.03,43.78
			c3.94,13.07,7.62,26.28,9.58,39.81c2.34,16.19,1.88,32.6,0.49,48.86C928.57,1634.07,932.24,1634.06,932.44,1631.72L932.44,1631.72
			z"/>
		<path class="st4" d="M930.43,1397.95c7.48,60.41,10.11,121.4,7.78,182.23c-0.66,17.18-1.71,34.35-3.15,51.48
			c-0.2,2.35,3.47,2.34,3.67,0c5.08-60.66,5.29-121.71,0.55-182.4c-1.34-17.14-3.07-34.25-5.19-51.31
			C933.82,1395.63,930.14,1395.6,930.43,1397.95L930.43,1397.95z"/>
	</g>
</g>
</svg>
